{"glyphs":{"0":{"ha":953,"x_min":52,"x_max":901,"o":"m 476 -14 q 248 48 342 -14 q 102 225 153 110 q 52 505 52 341 q 102 784 52 668 q 248 963 153 901 q 476 1025 342 1025 q 705 962 610 1025 q 851 784 800 900 q 901 505 901 668 q 851 225 901 341 q 705 48 800 110 q 476 -14 610 -14 m 476 181 q 575 219 534 181 q 637 329 616 256 q 659 505 659 401 q 637 681 659 608 q 575 792 616 754 q 477 831 534 831 q 377 792 418 831 q 315 681 336 754 q 294 505 294 608 q 315 329 294 401 q 377 219 336 256 q 476 181 418 181 z "},"1":{"ha":600,"x_min":54,"x_max":525,"o":"m 525 1010 l 525 0 l 287 0 l 287 800 l 281 800 l 54 646 l 54 856 l 284 1010 l 525 1010 z "},"2":{"ha":878,"x_min":58,"x_max":816,"o":"m 71 0 l 71 172 l 439 494 q 510 563 480 531 q 557 627 541 594 q 574 700 574 660 q 556 772 574 742 q 505 820 537 803 q 431 836 473 836 q 354 818 387 836 q 303 766 321 800 q 285 683 285 732 l 58 683 q 104 865 58 788 q 235 983 151 941 q 431 1025 319 1025 q 628 986 544 1025 q 759 878 712 947 q 805 717 805 809 q 781 599 805 656 q 700 477 758 543 q 542 325 642 412 l 402 199 l 402 193 l 816 193 l 816 0 l 71 0 z "},"3":{"ha":903,"x_min":56,"x_max":852,"o":"m 450 -14 q 243 27 332 -14 q 105 141 154 69 q 56 305 56 214 l 294 305 q 315 239 294 267 q 370 195 335 210 q 451 179 406 179 q 530 195 496 179 q 584 238 564 210 q 603 304 603 267 q 582 369 603 341 q 523 413 561 397 q 431 429 484 429 l 334 429 l 334 600 l 431 600 q 513 615 478 600 q 567 657 548 630 q 587 720 587 684 q 570 782 587 755 q 523 824 553 808 q 452 839 492 839 q 377 824 410 839 q 325 781 344 808 q 304 716 305 753 l 75 716 q 124 876 76 806 q 257 985 172 945 q 453 1025 342 1025 q 642 987 560 1025 q 770 885 724 949 q 817 737 817 820 q 761 596 817 652 q 618 526 705 540 l 618 521 q 747 479 695 511 q 825 397 799 447 q 852 286 852 348 q 801 131 852 199 q 659 24 749 63 q 450 -14 568 -14 z "},"4":{"ha":951,"x_min":58,"x_max":899,"o":"m 58 178 l 58 364 l 477 1010 l 639 1010 l 639 762 l 546 762 l 294 372 l 294 366 l 899 366 l 899 178 l 58 178 m 548 0 l 548 234 l 552 317 l 552 1010 l 777 1010 l 777 0 l 548 0 z "},"5":{"ha":873,"x_min":50,"x_max":821,"o":"m 432 -14 q 237 26 322 -14 q 102 137 151 66 q 50 300 52 208 l 281 300 q 303 233 282 262 q 357 187 323 203 q 433 171 391 171 q 515 192 479 171 q 570 249 550 212 q 591 335 591 286 q 570 423 591 385 q 514 481 550 460 q 431 503 479 503 q 343 481 383 503 q 285 425 304 460 l 71 456 l 112 1010 l 762 1010 l 762 817 l 313 817 l 292 585 l 296 585 q 378 649 323 625 q 500 674 432 674 q 627 650 568 674 q 729 581 685 625 q 797 475 772 536 q 821 342 821 414 q 773 158 821 238 q 637 32 724 77 q 432 -14 549 -14 z "},"6":{"ha":909,"x_min":52,"x_max":858,"o":"m 469 -14 q 308 14 383 -14 q 174 102 232 42 q 84 258 117 163 q 52 487 52 353 q 81 711 52 612 q 165 881 110 811 q 299 988 221 951 q 474 1025 377 1025 q 660 984 580 1025 q 789 875 741 943 q 846 721 838 806 l 614 721 q 565 798 603 771 q 473 825 527 825 q 368 788 410 825 q 306 686 326 752 q 285 530 285 620 l 290 530 q 350 604 312 573 q 437 651 388 635 q 541 667 486 667 q 706 625 634 667 q 818 509 777 583 q 858 340 858 435 q 809 155 858 235 q 672 31 760 75 q 469 -14 585 -14 m 467 171 q 549 193 513 171 q 606 251 585 214 q 627 335 627 288 q 606 418 627 381 q 550 476 585 455 q 468 497 514 497 q 405 485 434 497 q 355 450 376 473 q 321 398 334 428 q 309 334 309 369 q 330 251 309 288 q 387 193 351 214 q 467 171 422 171 z "},"7":{"ha":809,"x_min":41,"x_max":768,"o":"m 111 0 l 519 810 l 519 815 l 41 815 l 41 1010 l 768 1010 l 768 815 l 357 0 l 111 0 z "},"8":{"ha":911,"x_min":52,"x_max":860,"o":"m 455 -14 q 246 23 337 -14 q 103 125 155 60 q 52 273 52 190 q 82 390 52 337 q 164 477 112 442 q 283 522 217 511 l 283 526 q 141 604 196 543 q 87 751 87 666 q 134 892 87 831 q 265 989 182 954 q 455 1025 349 1025 q 646 989 562 1025 q 777 892 729 954 q 824 751 824 831 q 769 604 824 665 q 627 526 714 543 l 627 522 q 746 477 694 511 q 829 390 799 442 q 860 273 860 337 q 808 125 860 190 q 665 23 756 60 q 455 -14 573 -14 m 455 156 q 536 173 501 156 q 590 221 570 191 q 610 292 610 252 q 590 363 610 332 q 535 412 570 394 q 455 430 500 430 q 376 412 411 430 q 321 364 341 395 q 301 292 301 333 q 321 222 301 252 q 375 174 340 191 q 455 156 410 156 m 455 601 q 525 617 494 601 q 573 661 555 633 q 590 726 590 689 q 573 790 590 762 q 525 832 555 817 q 455 848 495 848 q 385 832 416 848 q 338 790 355 817 q 321 726 321 762 q 338 661 321 689 q 385 617 355 633 q 455 601 416 601 z "},"9":{"ha":909,"x_min":52,"x_max":858,"o":"m 435 -16 q 250 25 330 -16 q 120 136 169 66 q 62 290 72 205 l 296 290 q 345 212 307 240 q 437 184 382 184 q 542 221 500 184 q 604 325 583 258 q 625 481 625 391 l 620 481 q 560 407 597 438 q 473 360 522 376 q 369 344 425 344 q 204 386 276 344 q 92 502 133 428 q 52 670 52 576 q 101 856 52 776 q 238 982 151 937 q 441 1026 326 1027 q 602 998 527 1026 q 735 909 677 969 q 825 753 793 848 q 858 524 858 658 q 829 299 858 399 q 744 129 800 199 q 610 21 688 58 q 435 -16 532 -16 m 441 513 q 505 526 475 513 q 555 561 534 538 q 588 613 576 583 q 600 677 600 642 q 580 759 600 722 q 524 818 559 796 q 442 840 488 840 q 361 818 397 840 q 304 760 325 797 q 283 676 283 723 q 304 593 283 630 q 360 535 324 556 q 441 513 396 513 z "},"\u0000":{"ha":770,"x_min":0,"x_max":0,"o":""},"A":{"ha":1059,"x_min":26,"x_max":1034,"o":"m 26 0 l 365 1010 l 686 1010 l 1034 0 l 764 0 l 624 442 q 559 674 591 553 q 495 930 527 796 l 551 930 q 490 674 519 796 q 428 442 460 552 l 292 0 l 26 0 m 256 210 l 256 395 l 802 395 l 802 210 l 256 210 z "},"Ä":{"ha":1059,"x_min":26,"x_max":1034,"o":"m 26 0 l 365 1010 l 686 1010 l 1034 0 l 764 0 l 624 442 q 559 674 591 553 q 495 930 527 796 l 551 930 q 490 674 519 796 q 428 442 460 552 l 292 0 l 26 0 m 256 210 l 256 395 l 802 395 l 802 210 l 256 210 m 682 1101 q 602 1133 635 1101 q 569 1211 569 1165 q 602 1288 569 1256 q 682 1319 635 1319 q 762 1288 729 1319 q 795 1211 795 1256 q 762 1133 795 1165 q 682 1101 729 1101 m 374 1101 q 294 1133 327 1101 q 262 1211 262 1165 q 295 1288 262 1256 q 374 1319 328 1319 q 455 1288 422 1319 q 488 1211 488 1256 q 455 1133 488 1165 q 374 1101 422 1101 z "},"Ã":{"ha":1059,"x_min":26,"x_max":1034,"o":"m 26 0 l 365 1010 l 686 1010 l 1034 0 l 764 0 l 624 442 q 559 674 591 553 q 495 930 527 796 l 551 930 q 490 674 519 796 q 428 442 460 552 l 292 0 l 26 0 m 256 210 l 256 395 l 802 395 l 802 210 l 256 210 m 625 1113 q 564 1124 590 1113 q 518 1150 538 1135 q 481 1177 498 1165 q 447 1188 465 1188 q 412 1169 425 1188 q 399 1118 400 1150 l 277 1118 q 321 1262 279 1213 q 431 1312 364 1312 q 492 1301 466 1312 q 537 1275 517 1290 q 574 1249 557 1260 q 609 1238 591 1238 q 646 1256 635 1238 q 659 1308 657 1274 l 779 1308 q 734 1163 778 1213 q 625 1113 690 1113 z "},"À":{"ha":1059,"x_min":26,"x_max":1034,"o":"m 26 0 l 365 1010 l 686 1010 l 1034 0 l 764 0 l 624 442 q 559 674 591 553 q 495 930 527 796 l 551 930 q 490 674 519 796 q 428 442 460 552 l 292 0 l 26 0 m 256 210 l 256 395 l 802 395 l 802 210 l 256 210 m 452 1103 l 298 1320 l 511 1320 l 612 1103 l 452 1103 z "},"Á":{"ha":1059,"x_min":26,"x_max":1034,"o":"m 26 0 l 365 1010 l 686 1010 l 1034 0 l 764 0 l 624 442 q 559 674 591 553 q 495 930 527 796 l 551 930 q 490 674 519 796 q 428 442 460 552 l 292 0 l 26 0 m 256 210 l 256 395 l 802 395 l 802 210 l 256 210 m 444 1103 l 545 1320 l 758 1320 l 604 1103 l 444 1103 z "},"Â":{"ha":1059,"x_min":26,"x_max":1034,"o":"m 26 0 l 365 1010 l 686 1010 l 1034 0 l 764 0 l 624 442 q 559 674 591 553 q 495 930 527 796 l 551 930 q 490 674 519 796 q 428 442 460 552 l 292 0 l 26 0 m 256 210 l 256 395 l 802 395 l 802 210 l 256 210 m 434 1107 l 239 1107 l 239 1111 l 441 1320 l 614 1320 l 817 1111 l 817 1107 l 623 1107 l 528 1220 l 434 1107 z "},"Å":{"ha":1059,"x_min":26,"x_max":1034,"o":"m 26 0 l 365 1010 l 686 1010 l 1034 0 l 764 0 l 624 442 q 559 674 591 553 q 495 930 527 796 l 551 930 q 490 674 519 796 q 428 442 460 552 l 292 0 l 26 0 m 256 210 l 256 395 l 802 395 l 802 210 l 256 210 m 528 1053 q 431 1074 473 1053 q 365 1133 389 1096 q 342 1217 342 1171 q 365 1300 342 1263 q 431 1359 389 1337 q 528 1381 473 1381 q 626 1359 584 1381 q 691 1300 667 1337 q 714 1217 714 1263 q 691 1133 714 1171 q 626 1074 667 1096 q 528 1053 584 1053 m 528 1145 q 583 1165 562 1145 q 604 1217 604 1185 q 583 1269 604 1249 q 528 1289 562 1289 q 473 1269 494 1289 q 452 1217 452 1249 q 473 1165 452 1185 q 528 1145 494 1145 z "},"Ǻ":{"ha":1059,"x_min":26,"x_max":1034,"o":"m 26 0 l 365 1010 l 686 1010 l 1034 0 l 764 0 l 624 442 q 559 674 591 553 q 495 930 527 796 l 551 930 q 490 674 519 796 q 428 442 460 552 l 292 0 l 26 0 m 256 210 l 256 395 l 802 395 l 802 210 l 256 210 m 457 1404 l 556 1552 l 745 1552 l 602 1404 l 457 1404 m 528 1051 q 431 1072 473 1051 q 365 1128 389 1093 q 342 1209 342 1164 q 365 1290 342 1254 q 431 1346 389 1325 q 528 1367 473 1367 q 626 1346 584 1367 q 691 1290 667 1325 q 714 1209 714 1254 q 691 1128 714 1164 q 626 1072 667 1093 q 528 1051 584 1051 m 528 1140 q 583 1159 562 1140 q 604 1209 604 1178 q 583 1259 604 1240 q 528 1278 562 1278 q 473 1259 494 1278 q 452 1209 452 1240 q 473 1159 452 1179 q 528 1140 494 1140 z "},"":{"ha":1059,"x_min":26,"x_max":1057,"o":"m 26 0 l 365 1010 l 686 1010 l 1034 0 l 764 0 l 624 442 q 559 674 591 553 q 495 930 527 796 l 551 930 q 490 674 519 796 q 428 442 460 552 l 292 0 l 26 0 m 256 210 l 256 395 l 802 395 l 802 210 l 256 210 m 528 1053 q 431 1074 473 1053 q 365 1133 389 1096 q 342 1217 342 1171 q 365 1300 342 1263 q 431 1359 389 1337 q 528 1381 473 1381 q 626 1359 584 1381 q 691 1300 667 1337 q 714 1217 714 1263 q 691 1133 714 1171 q 626 1074 667 1096 q 528 1053 584 1053 m 528 1145 q 583 1165 562 1145 q 604 1217 604 1185 q 583 1269 604 1249 q 528 1289 562 1289 q 473 1269 494 1289 q 452 1217 452 1249 q 473 1165 452 1185 q 528 1145 494 1145 m 905 -289 q 760 -249 817 -289 q 703 -139 703 -210 q 726 -56 703 -94 q 785 12 749 -17 l 1033 0 q 952 -50 977 -24 q 927 -106 927 -76 q 939 -141 927 -129 q 975 -154 951 -154 q 999 -151 987 -154 q 1021 -142 1010 -148 l 1056 -262 q 986 -281 1030 -274 q 905 -289 943 -289 z "},"Ā":{"ha":1059,"x_min":26,"x_max":1034,"o":"m 26 0 l 365 1010 l 686 1010 l 1034 0 l 764 0 l 624 442 q 559 674 591 553 q 495 930 527 796 l 551 930 q 490 674 519 796 q 428 442 460 552 l 292 0 l 26 0 m 256 210 l 256 395 l 802 395 l 802 210 l 256 210 m 728 1280 l 728 1138 l 328 1138 l 328 1280 l 728 1280 z "},"Ă":{"ha":1059,"x_min":26,"x_max":1034,"o":"m 26 0 l 365 1010 l 686 1010 l 1034 0 l 764 0 l 624 442 q 559 674 591 553 q 495 930 527 796 l 551 930 q 490 674 519 796 q 428 442 460 552 l 292 0 l 26 0 m 256 210 l 256 395 l 802 395 l 802 210 l 256 210 m 528 1097 q 401 1126 457 1097 q 312 1205 345 1156 q 279 1316 279 1255 l 410 1316 q 444 1246 410 1274 q 528 1218 478 1218 q 611 1246 578 1218 q 645 1316 645 1274 l 777 1316 q 744 1205 777 1255 q 655 1126 711 1156 q 528 1097 599 1097 z "},"Ą":{"ha":1059,"x_min":26,"x_max":1057,"o":"m 26 0 l 365 1010 l 686 1010 l 1034 0 l 764 0 l 624 442 q 559 674 591 553 q 495 930 527 796 l 551 930 q 490 674 519 796 q 428 442 460 552 l 292 0 l 26 0 m 256 210 l 256 395 l 802 395 l 802 210 l 256 210 m 905 -289 q 760 -249 817 -289 q 703 -139 703 -210 q 726 -56 703 -94 q 785 12 749 -17 l 1033 0 q 952 -50 977 -24 q 927 -106 927 -76 q 939 -141 927 -129 q 975 -154 951 -154 q 999 -151 987 -154 q 1021 -142 1010 -148 l 1056 -262 q 986 -281 1030 -274 q 905 -289 943 -289 z "},"Ǎ":{"ha":1059,"x_min":26,"x_max":1034,"o":"m 26 0 l 365 1010 l 686 1010 l 1034 0 l 764 0 l 624 442 q 559 674 591 553 q 495 930 527 796 l 551 930 q 490 674 519 796 q 428 442 460 552 l 292 0 l 26 0 m 256 210 l 256 395 l 802 395 l 802 210 l 256 210 m 434 1320 l 528 1206 l 623 1320 l 817 1320 l 817 1316 l 614 1107 l 441 1107 l 239 1316 l 239 1320 l 434 1320 z "},"Ǟ":{"ha":1059,"x_min":26,"x_max":1034,"o":"m 26 0 l 365 1010 l 686 1010 l 1034 0 l 764 0 l 624 442 q 559 674 591 553 q 495 930 527 796 l 551 930 q 490 674 519 796 q 428 442 460 552 l 292 0 l 26 0 m 256 210 l 256 395 l 802 395 l 802 210 l 256 210 m 680 1086 q 601 1118 633 1086 q 568 1196 568 1150 q 601 1273 568 1241 q 680 1304 633 1304 q 761 1273 728 1304 q 793 1196 793 1241 q 761 1118 793 1149 q 680 1086 728 1086 m 373 1086 q 293 1118 326 1086 q 260 1196 260 1150 q 293 1273 260 1241 q 373 1304 326 1304 q 453 1273 420 1304 q 486 1196 486 1241 q 453 1118 486 1149 q 373 1086 420 1086 m 728 1500 l 728 1381 l 329 1381 l 329 1500 l 728 1500 z "},"Ǡ":{"ha":1059,"x_min":26,"x_max":1034,"o":"m 26 0 l 365 1010 l 686 1010 l 1034 0 l 764 0 l 624 442 q 559 674 591 553 q 495 930 527 796 l 551 930 q 490 674 519 796 q 428 442 460 552 l 292 0 l 26 0 m 256 210 l 256 395 l 802 395 l 802 210 l 256 210 m 528 1080 q 440 1113 476 1080 q 404 1195 404 1147 q 440 1277 404 1244 q 528 1310 476 1310 q 616 1277 580 1310 q 652 1195 652 1244 q 616 1113 652 1147 q 528 1080 580 1080 m 728 1500 l 728 1381 l 329 1381 l 329 1500 l 728 1500 z "},"Ȁ":{"ha":1059,"x_min":26,"x_max":1034,"o":"m 26 0 l 365 1010 l 686 1010 l 1034 0 l 764 0 l 624 442 q 559 674 591 553 q 495 930 527 796 l 551 930 q 490 674 519 796 q 428 442 460 552 l 292 0 l 26 0 m 256 210 l 256 395 l 802 395 l 802 210 l 256 210 m 575 1103 l 459 1320 l 660 1320 l 735 1103 l 575 1103 m 330 1103 l 155 1320 l 373 1320 l 494 1103 l 330 1103 z "},"Ȃ":{"ha":1059,"x_min":26,"x_max":1034,"o":"m 26 0 l 365 1010 l 686 1010 l 1034 0 l 764 0 l 624 442 q 559 674 591 553 q 495 930 527 796 l 551 930 q 490 674 519 796 q 428 442 460 552 l 292 0 l 26 0 m 256 210 l 256 395 l 802 395 l 802 210 l 256 210 m 528 1327 q 656 1298 600 1327 q 746 1219 713 1268 q 779 1107 779 1169 l 646 1107 q 612 1177 646 1149 q 528 1205 578 1205 q 443 1177 477 1205 q 408 1107 408 1149 l 277 1107 q 310 1219 277 1169 q 399 1298 342 1268 q 528 1327 456 1327 z "},"Ȧ":{"ha":1059,"x_min":26,"x_max":1034,"o":"m 26 0 l 365 1010 l 686 1010 l 1034 0 l 764 0 l 624 442 q 559 674 591 553 q 495 930 527 796 l 551 930 q 490 674 519 796 q 428 442 460 552 l 292 0 l 26 0 m 256 210 l 256 395 l 802 395 l 802 210 l 256 210 m 528 1095 q 440 1128 476 1095 q 404 1210 404 1162 q 440 1292 404 1259 q 528 1325 476 1325 q 616 1292 580 1325 q 652 1210 652 1259 q 616 1128 652 1162 q 528 1095 580 1095 z "},"Ḁ":{"ha":1059,"x_min":26,"x_max":1034,"o":"m 26 0 l 365 1010 l 686 1010 l 1034 0 l 764 0 l 624 442 q 559 674 591 553 q 495 930 527 796 l 551 930 q 490 674 519 796 q 428 442 460 552 l 292 0 l 26 0 m 256 210 l 256 395 l 802 395 l 802 210 l 256 210 m 528 -359 q 438 -338 479 -359 q 374 -281 398 -317 q 351 -201 351 -245 q 374 -121 351 -157 q 438 -64 398 -85 q 528 -43 479 -43 q 618 -64 578 -43 q 682 -121 659 -85 q 706 -201 706 -157 q 682 -281 706 -245 q 618 -338 659 -317 q 528 -359 578 -359 m 528 -271 q 580 -251 559 -271 q 602 -201 602 -231 q 581 -152 602 -172 q 528 -132 559 -132 q 476 -152 497 -132 q 455 -201 455 -172 q 476 -251 455 -231 q 528 -271 498 -271 z "},"Ạ":{"ha":1059,"x_min":26,"x_max":1034,"o":"m 26 0 l 365 1010 l 686 1010 l 1034 0 l 764 0 l 624 442 q 559 674 591 553 q 495 930 527 796 l 551 930 q 490 674 519 796 q 428 442 460 552 l 292 0 l 26 0 m 256 210 l 256 395 l 802 395 l 802 210 l 256 210 m 528 -319 q 440 -286 476 -319 q 404 -205 404 -253 q 440 -123 404 -156 q 528 -90 476 -90 q 616 -123 580 -90 q 652 -205 652 -156 q 616 -286 652 -253 q 528 -319 580 -319 z "},"Ả":{"ha":1059,"x_min":26,"x_max":1034,"o":"m 26 0 l 365 1010 l 686 1010 l 1034 0 l 764 0 l 624 442 q 559 674 591 553 q 495 930 527 796 l 551 930 q 490 674 519 796 q 428 442 460 552 l 292 0 l 26 0 m 256 210 l 256 395 l 802 395 l 802 210 l 256 210 m 590 1103 l 456 1103 l 509 1194 q 510 1202 511 1199 q 503 1204 509 1204 l 390 1204 l 390 1320 l 505 1320 q 603 1303 568 1320 q 650 1261 638 1287 q 655 1205 663 1235 q 627 1149 648 1176 l 590 1103 z "},"Ấ":{"ha":1059,"x_min":26,"x_max":1034,"o":"m 26 0 l 365 1010 l 686 1010 l 1034 0 l 764 0 l 624 442 q 559 674 591 553 q 495 930 527 796 l 551 930 q 490 674 519 796 q 428 442 460 552 l 292 0 l 26 0 m 256 210 l 256 395 l 802 395 l 802 210 l 256 210 m 435 1091 l 240 1091 l 240 1095 l 441 1304 l 615 1304 l 817 1095 l 817 1091 l 623 1091 l 528 1205 l 435 1091 m 631 1350 l 717 1533 l 894 1533 l 764 1350 l 631 1350 z "},"Ầ":{"ha":1059,"x_min":26,"x_max":1034,"o":"m 26 0 l 365 1010 l 686 1010 l 1034 0 l 764 0 l 624 442 q 559 674 591 553 q 495 930 527 796 l 551 930 q 490 674 519 796 q 428 442 460 552 l 292 0 l 26 0 m 256 210 l 256 395 l 802 395 l 802 210 l 256 210 m 435 1091 l 240 1091 l 240 1095 l 441 1304 l 615 1304 l 817 1095 l 817 1091 l 623 1091 l 528 1205 l 435 1091 m 699 1350 l 570 1533 l 747 1533 l 832 1350 l 699 1350 z "},"Ẩ":{"ha":1059,"x_min":26,"x_max":1034,"o":"m 26 0 l 365 1010 l 686 1010 l 1034 0 l 764 0 l 624 442 q 559 674 591 553 q 495 930 527 796 l 551 930 q 490 674 519 796 q 428 442 460 552 l 292 0 l 26 0 m 256 210 l 256 395 l 802 395 l 802 210 l 256 210 m 435 1091 l 240 1091 l 240 1095 l 441 1304 l 615 1304 l 817 1095 l 817 1091 l 623 1091 l 528 1205 l 435 1091 m 744 1350 l 633 1350 l 676 1426 q 677 1433 678 1430 q 671 1435 675 1435 l 576 1435 l 576 1533 l 672 1533 q 772 1509 743 1533 q 800 1451 802 1485 q 774 1388 799 1417 l 744 1350 z "},"Ẫ":{"ha":1059,"x_min":26,"x_max":1034,"o":"m 26 0 l 365 1010 l 686 1010 l 1034 0 l 764 0 l 624 442 q 559 674 591 553 q 495 930 527 796 l 551 930 q 490 674 519 796 q 428 442 460 552 l 292 0 l 26 0 m 256 210 l 256 395 l 802 395 l 802 210 l 256 210 m 435 1091 l 240 1091 l 240 1095 l 441 1304 l 615 1304 l 817 1095 l 817 1091 l 623 1091 l 528 1205 l 435 1091 m 626 1355 q 565 1365 591 1355 q 519 1388 538 1375 q 482 1411 499 1401 q 448 1421 465 1421 q 413 1404 425 1421 q 400 1359 401 1388 l 277 1359 q 322 1486 279 1442 q 431 1529 366 1529 q 493 1519 467 1529 q 538 1496 519 1509 q 575 1474 558 1484 q 610 1464 592 1464 q 647 1480 635 1464 q 659 1525 658 1496 l 780 1525 q 735 1399 779 1443 q 626 1355 691 1355 z "},"Ậ":{"ha":1059,"x_min":26,"x_max":1034,"o":"m 26 0 l 365 1010 l 686 1010 l 1034 0 l 764 0 l 624 442 q 559 674 591 553 q 495 930 527 796 l 551 930 q 490 674 519 796 q 428 442 460 552 l 292 0 l 26 0 m 256 210 l 256 395 l 802 395 l 802 210 l 256 210 m 434 1107 l 239 1107 l 239 1111 l 441 1320 l 614 1320 l 817 1111 l 817 1107 l 623 1107 l 528 1220 l 434 1107 m 528 -319 q 440 -286 476 -319 q 404 -205 404 -253 q 440 -123 404 -156 q 528 -90 476 -90 q 616 -123 580 -90 q 652 -205 652 -156 q 616 -286 652 -253 q 528 -319 580 -319 z "},"Ắ":{"ha":1059,"x_min":26,"x_max":1034,"o":"m 26 0 l 365 1010 l 686 1010 l 1034 0 l 764 0 l 624 442 q 559 674 591 553 q 495 930 527 796 l 551 930 q 490 674 519 796 q 428 442 460 552 l 292 0 l 26 0 m 256 210 l 256 395 l 802 395 l 802 210 l 256 210 m 529 1082 q 401 1111 458 1082 q 312 1190 345 1140 q 279 1300 279 1240 l 411 1300 q 445 1231 411 1259 q 529 1203 479 1203 q 612 1231 578 1203 q 646 1300 646 1259 l 778 1300 q 745 1190 778 1240 q 656 1112 712 1141 q 529 1082 600 1082 m 461 1350 l 547 1533 l 724 1533 l 593 1350 l 461 1350 z "},"Ằ":{"ha":1059,"x_min":26,"x_max":1034,"o":"m 26 0 l 365 1010 l 686 1010 l 1034 0 l 764 0 l 624 442 q 559 674 591 553 q 495 930 527 796 l 551 930 q 490 674 519 796 q 428 442 460 552 l 292 0 l 26 0 m 256 210 l 256 395 l 802 395 l 802 210 l 256 210 m 528 1082 q 400 1112 456 1082 q 311 1190 344 1141 q 279 1300 279 1240 l 411 1300 q 444 1231 411 1259 q 528 1203 477 1203 q 611 1231 578 1203 q 645 1300 645 1259 l 777 1300 q 744 1190 777 1240 q 654 1111 711 1140 q 528 1082 598 1082 m 595 1350 l 463 1350 l 333 1533 l 510 1533 l 595 1350 z "},"Ẳ":{"ha":1059,"x_min":26,"x_max":1034,"o":"m 26 0 l 365 1010 l 686 1010 l 1034 0 l 764 0 l 624 442 q 559 674 591 553 q 495 930 527 796 l 551 930 q 490 674 519 796 q 428 442 460 552 l 292 0 l 26 0 m 256 210 l 256 395 l 802 395 l 802 210 l 256 210 m 529 1082 q 401 1111 458 1082 q 312 1190 345 1140 q 279 1300 279 1240 l 411 1300 q 445 1231 411 1259 q 529 1203 479 1203 q 612 1231 578 1203 q 646 1300 646 1259 l 778 1300 q 745 1190 778 1240 q 656 1112 712 1141 q 529 1082 600 1082 m 583 1350 l 471 1350 l 515 1426 q 515 1433 517 1430 q 509 1435 514 1435 l 414 1435 l 414 1533 l 511 1533 q 611 1509 581 1533 q 639 1451 640 1485 q 613 1388 637 1417 l 583 1350 z "},"Ẵ":{"ha":1059,"x_min":26,"x_max":1034,"o":"m 26 0 l 365 1010 l 686 1010 l 1034 0 l 764 0 l 624 442 q 559 674 591 553 q 495 930 527 796 l 551 930 q 490 674 519 796 q 428 442 460 552 l 292 0 l 26 0 m 256 210 l 256 395 l 802 395 l 802 210 l 256 210 m 527 1086 q 400 1116 456 1086 q 312 1194 345 1145 q 280 1304 280 1244 l 409 1304 q 443 1235 409 1263 q 527 1206 476 1206 q 610 1235 576 1206 q 644 1304 644 1263 l 776 1304 q 743 1194 776 1244 q 654 1116 710 1145 q 527 1086 597 1086 m 632 1355 q 571 1365 597 1355 q 525 1388 545 1375 q 488 1411 505 1401 q 454 1421 471 1421 q 419 1404 431 1421 q 406 1359 408 1388 l 283 1359 q 329 1486 286 1442 q 437 1529 372 1529 q 499 1519 473 1529 q 545 1496 525 1509 q 581 1474 564 1484 q 616 1464 598 1464 q 653 1480 642 1464 q 665 1525 664 1496 l 786 1525 q 741 1399 785 1443 q 632 1355 697 1355 z "},"Ặ":{"ha":1059,"x_min":26,"x_max":1034,"o":"m 26 0 l 365 1010 l 686 1010 l 1034 0 l 764 0 l 624 442 q 559 674 591 553 q 495 930 527 796 l 551 930 q 490 674 519 796 q 428 442 460 552 l 292 0 l 26 0 m 256 210 l 256 395 l 802 395 l 802 210 l 256 210 m 528 1097 q 401 1126 457 1097 q 312 1205 345 1156 q 279 1316 279 1255 l 410 1316 q 444 1246 410 1274 q 528 1218 478 1218 q 611 1246 578 1218 q 645 1316 645 1274 l 777 1316 q 744 1205 777 1255 q 655 1126 711 1156 q 528 1097 599 1097 m 528 -319 q 440 -286 476 -319 q 404 -205 404 -253 q 440 -123 404 -156 q 528 -90 476 -90 q 616 -123 580 -90 q 652 -205 652 -156 q 616 -286 652 -253 q 528 -319 580 -319 z "},"Α":{"ha":1059,"x_min":26,"x_max":1034,"o":"m 26 0 l 365 1010 l 686 1010 l 1034 0 l 764 0 l 624 442 q 559 674 591 553 q 495 930 527 796 l 551 930 q 490 674 519 796 q 428 442 460 552 l 292 0 l 26 0 m 256 210 l 256 395 l 802 395 l 802 210 l 256 210 z "},"Ά":{"ha":1059,"x_min":7,"x_max":1034,"o":"m 26 0 l 365 1010 l 686 1010 l 1034 0 l 764 0 l 624 442 q 559 674 591 553 q 495 930 527 796 l 551 930 q 490 674 519 796 q 428 442 460 552 l 292 0 l 26 0 m 256 210 l 256 395 l 802 395 l 802 210 l 256 210 m 7 794 l 30 1010 l 233 1010 l 143 794 l 7 794 z "},"Ἀ":{"ha":1086,"x_min":47,"x_max":1061,"o":"m 53 0 l 392 1010 l 713 1010 l 1061 0 l 791 0 l 651 442 q 586 674 618 553 q 522 930 554 796 l 578 930 q 517 674 547 796 q 455 442 488 552 l 319 0 l 53 0 m 283 210 l 283 395 l 829 395 l 829 210 l 283 210 m 77 788 l 68 788 l 68 848 l 79 848 q 133 858 115 848 q 151 888 151 867 q 134 915 151 906 q 86 924 118 924 l 47 924 l 47 1026 l 77 1026 q 215 994 167 1026 q 264 905 264 962 q 215 818 264 848 q 77 788 166 788 z "},"Ἁ":{"ha":1101,"x_min":45,"x_max":1076,"o":"m 68 0 l 407 1010 l 728 1010 l 1076 0 l 806 0 l 666 442 q 601 674 633 553 q 537 930 569 796 l 593 930 q 532 674 562 796 q 470 442 503 552 l 334 0 l 68 0 m 298 210 l 298 395 l 844 395 l 844 210 l 298 210 m 231 777 q 94 807 142 777 q 45 894 45 837 q 93 983 45 951 q 231 1015 142 1015 l 262 1015 l 262 913 l 222 913 q 174 904 190 913 q 158 876 158 895 q 176 846 158 856 q 229 836 194 836 l 240 836 l 240 777 l 231 777 z "},"Ἂ":{"ha":1345,"x_min":41,"x_max":1320,"o":"m 312 0 l 651 1010 l 972 1010 l 1320 0 l 1050 0 l 910 442 q 845 674 877 553 q 781 930 813 796 l 838 930 q 776 674 806 796 q 714 442 747 552 l 578 0 l 312 0 m 543 210 l 543 395 l 1088 395 l 1088 210 l 543 210 m 72 777 l 63 777 l 63 836 l 73 836 q 127 846 109 836 q 145 876 145 856 q 129 904 145 895 q 81 913 113 913 l 41 913 l 41 1015 l 72 1015 q 210 983 161 1015 q 258 894 258 951 q 210 807 258 837 q 72 777 161 777 m 478 785 l 359 785 l 279 1010 l 458 1010 l 478 785 z "},"Ἃ":{"ha":1376,"x_min":41,"x_max":1350,"o":"m 342 0 l 682 1010 l 1002 1010 l 1350 0 l 1080 0 l 941 442 q 876 674 907 553 q 812 930 844 796 l 868 930 q 807 674 836 796 q 745 442 777 552 l 608 0 l 342 0 m 573 210 l 573 395 l 1119 395 l 1119 210 l 573 210 m 228 777 q 90 807 139 777 q 41 894 41 837 q 90 983 41 951 q 228 1015 138 1015 l 258 1015 l 258 913 l 219 913 q 171 904 186 913 q 155 876 155 895 q 173 846 155 856 q 226 836 191 836 l 237 836 l 237 777 l 228 777 m 503 785 l 383 785 l 303 1010 l 483 1010 l 503 785 z "},"Ἄ":{"ha":1354,"x_min":41,"x_max":1329,"o":"m 321 0 l 661 1010 l 981 1010 l 1329 0 l 1059 0 l 920 442 q 854 674 886 553 q 791 930 823 796 l 847 930 q 786 674 815 796 q 724 442 756 552 l 587 0 l 321 0 m 552 210 l 552 395 l 1098 395 l 1098 210 l 552 210 m 72 777 l 63 777 l 63 836 l 73 836 q 127 846 109 836 q 145 876 145 856 q 129 904 145 895 q 81 913 113 913 l 41 913 l 41 1015 l 72 1015 q 210 983 161 1015 q 258 894 258 951 q 210 807 258 837 q 72 777 161 777 m 336 785 l 356 1010 l 536 1010 l 456 785 l 336 785 z "},"Ἅ":{"ha":1380,"x_min":41,"x_max":1354,"o":"m 347 0 l 686 1010 l 1006 1010 l 1354 0 l 1084 0 l 945 442 q 880 674 911 553 q 816 930 848 796 l 872 930 q 811 674 840 796 q 749 442 781 552 l 612 0 l 347 0 m 577 210 l 577 395 l 1123 395 l 1123 210 l 577 210 m 228 777 q 90 807 139 777 q 41 894 41 837 q 90 983 41 951 q 228 1015 138 1015 l 258 1015 l 258 913 l 219 913 q 171 904 186 913 q 155 876 155 895 q 173 846 155 856 q 226 836 191 836 l 237 836 l 237 777 l 228 777 m 354 785 l 374 1010 l 553 1010 l 473 785 l 354 785 z "},"Ἆ":{"ha":1222,"x_min":41,"x_max":1196,"o":"m 189 0 l 528 1010 l 848 1010 l 1196 0 l 926 0 l 787 442 q 722 674 753 553 q 658 930 690 796 l 714 930 q 653 674 682 796 q 591 442 623 552 l 454 0 l 189 0 m 419 210 l 419 395 l 965 395 l 965 210 l 419 210 m 210 789 l 201 789 l 201 849 l 212 849 q 266 859 248 849 q 283 888 283 869 q 267 917 283 907 q 219 926 251 926 l 180 926 l 180 1027 l 210 1027 q 348 996 300 1027 q 397 907 397 964 q 348 820 397 850 q 210 789 299 789 m 384 1085 q 323 1096 349 1085 q 278 1120 298 1106 q 242 1144 259 1133 q 208 1154 226 1154 q 175 1137 186 1154 q 161 1090 163 1120 l 41 1090 q 85 1222 43 1177 q 193 1267 127 1267 q 253 1258 227 1267 q 298 1234 278 1248 q 334 1210 317 1221 q 368 1200 351 1200 q 404 1216 393 1200 q 416 1265 415 1233 l 535 1265 q 491 1131 534 1177 q 384 1085 448 1085 z "},"Ἇ":{"ha":1243,"x_min":41,"x_max":1217,"o":"m 210 0 l 549 1010 l 870 1010 l 1218 0 l 948 0 l 808 442 q 743 674 775 553 q 680 930 711 796 l 736 930 q 674 674 704 796 q 612 442 645 552 l 476 0 l 210 0 m 441 210 l 441 395 l 987 395 l 987 210 l 441 210 m 366 773 q 229 803 277 773 q 180 890 180 833 q 228 979 180 947 q 366 1011 277 1011 l 397 1011 l 397 909 l 357 909 q 309 900 326 909 q 293 872 293 891 q 311 843 293 852 q 364 833 329 833 l 375 833 l 375 773 l 366 773 m 384 1069 q 323 1079 349 1069 q 278 1103 298 1090 q 242 1127 259 1117 q 208 1138 226 1138 q 175 1121 186 1138 q 161 1074 163 1103 l 41 1074 q 85 1206 43 1161 q 193 1251 127 1251 q 253 1241 227 1251 q 298 1218 278 1232 q 334 1194 317 1204 q 368 1183 351 1183 q 404 1200 393 1183 q 416 1249 415 1217 l 535 1249 q 491 1115 534 1161 q 384 1069 448 1069 z "},"Ᾰ":{"ha":1059,"x_min":26,"x_max":1034,"o":"m 26 0 l 365 1010 l 686 1010 l 1034 0 l 764 0 l 624 442 q 559 674 591 553 q 495 930 527 796 l 551 930 q 490 674 519 796 q 428 442 460 552 l 292 0 l 26 0 m 256 210 l 256 395 l 802 395 l 802 210 l 256 210 m 528 1097 q 401 1126 457 1097 q 312 1205 345 1156 q 279 1316 279 1255 l 410 1316 q 444 1246 410 1274 q 528 1218 478 1218 q 611 1246 578 1218 q 645 1316 645 1274 l 777 1316 q 744 1205 777 1255 q 655 1126 711 1156 q 528 1097 599 1097 z "},"Ᾱ":{"ha":1059,"x_min":26,"x_max":1034,"o":"m 26 0 l 365 1010 l 686 1010 l 1034 0 l 764 0 l 624 442 q 559 674 591 553 q 495 930 527 796 l 551 930 q 490 674 519 796 q 428 442 460 552 l 292 0 l 26 0 m 256 210 l 256 395 l 802 395 l 802 210 l 256 210 m 728 1280 l 728 1138 l 328 1138 l 328 1280 l 728 1280 z "},"Ὰ":{"ha":1059,"x_min":-75,"x_max":1034,"o":"m 26 0 l 365 1010 l 686 1010 l 1034 0 l 764 0 l 624 442 q 559 674 591 553 q 495 930 527 796 l 551 930 q 490 674 519 796 q 428 442 460 552 l 292 0 l 26 0 m 256 210 l 256 395 l 802 395 l 802 210 l 256 210 m 151 836 l 16 836 l -75 1053 l 129 1053 l 151 836 z "},"Ⱥ":{"ha":1059,"x_min":26,"x_max":1034,"o":"m 777 1138 l 378 -129 l 311 -129 l 710 1138 l 777 1138 m 26 0 l 365 1010 l 686 1010 l 1034 0 l 764 0 l 624 442 q 559 674 591 553 q 495 930 527 796 l 551 930 q 490 674 519 796 q 428 442 460 552 l 292 0 l 26 0 m 256 210 l 256 395 l 802 395 l 802 210 l 256 210 z "},"Ά":{"ha":1109,"x_min":57,"x_max":1083,"o":"m 75 0 l 414 1010 l 735 1010 l 1083 0 l 813 0 l 673 442 q 608 674 640 553 q 545 930 576 796 l 601 930 q 539 674 569 796 q 477 442 510 552 l 341 0 l 75 0 m 306 210 l 306 395 l 852 395 l 852 210 l 306 210 m 57 794 l 79 1010 l 283 1010 l 193 794 l 57 794 z "},"А":{"ha":1059,"x_min":26,"x_max":1034,"o":"m 26 0 l 365 1010 l 686 1010 l 1034 0 l 764 0 l 624 442 q 559 674 591 553 q 495 930 527 796 l 551 930 q 490 674 519 796 q 428 442 460 552 l 292 0 l 26 0 m 256 210 l 256 395 l 802 395 l 802 210 l 256 210 z "},"Ӑ":{"ha":1059,"x_min":26,"x_max":1034,"o":"m 26 0 l 365 1010 l 686 1010 l 1034 0 l 764 0 l 624 442 q 559 674 591 553 q 495 930 527 796 l 551 930 q 490 674 519 796 q 428 442 460 552 l 292 0 l 26 0 m 256 210 l 256 395 l 802 395 l 802 210 l 256 210 m 528 1097 q 401 1126 457 1097 q 312 1205 345 1156 q 279 1316 279 1255 l 410 1316 q 444 1246 410 1274 q 528 1218 478 1218 q 611 1246 578 1218 q 645 1316 645 1274 l 777 1316 q 744 1205 777 1255 q 655 1126 711 1156 q 528 1097 599 1097 z "},"Ӓ":{"ha":1059,"x_min":26,"x_max":1034,"o":"m 26 0 l 365 1010 l 686 1010 l 1034 0 l 764 0 l 624 442 q 559 674 591 553 q 495 930 527 796 l 551 930 q 490 674 519 796 q 428 442 460 552 l 292 0 l 26 0 m 256 210 l 256 395 l 802 395 l 802 210 l 256 210 m 682 1101 q 602 1133 635 1101 q 569 1211 569 1165 q 602 1288 569 1256 q 682 1319 635 1319 q 762 1288 729 1319 q 795 1211 795 1256 q 762 1133 795 1165 q 682 1101 729 1101 m 374 1101 q 294 1133 327 1101 q 262 1211 262 1165 q 295 1288 262 1256 q 374 1319 328 1319 q 455 1288 422 1319 q 488 1211 488 1256 q 455 1133 488 1165 q 374 1101 422 1101 z "},"ᾈ":{"ha":1086,"x_min":47,"x_max":1061,"o":"m 53 0 l 392 1010 l 713 1010 l 1061 0 l 791 0 l 651 442 q 586 674 618 553 q 522 930 554 796 l 578 930 q 517 674 547 796 q 455 442 488 552 l 319 0 l 53 0 m 283 210 l 283 395 l 829 395 l 829 210 l 283 210 m 606 -330 q 505 -295 538 -330 q 471 -200 471 -260 l 471 -80 l 639 -80 l 639 -189 q 646 -217 639 -209 q 677 -226 652 -226 q 689 -225 681 -226 q 709 -224 697 -225 l 709 -323 q 660 -328 689 -326 q 606 -330 630 -330 m 77 788 l 68 788 l 68 848 l 79 848 q 133 858 115 848 q 151 888 151 867 q 134 915 151 906 q 86 924 118 924 l 47 924 l 47 1026 l 77 1026 q 215 994 167 1026 q 264 905 264 962 q 215 818 264 848 q 77 788 166 788 z "},"ᾉ":{"ha":1101,"x_min":45,"x_max":1076,"o":"m 68 0 l 407 1010 l 728 1010 l 1076 0 l 806 0 l 666 442 q 601 674 633 553 q 537 930 569 796 l 593 930 q 532 674 562 796 q 470 442 503 552 l 334 0 l 68 0 m 298 210 l 298 395 l 844 395 l 844 210 l 298 210 m 621 -330 q 519 -295 553 -330 q 486 -200 486 -260 l 486 -80 l 654 -80 l 654 -189 q 661 -217 654 -209 q 692 -226 667 -226 q 704 -225 696 -226 q 724 -224 712 -225 l 724 -323 q 674 -328 704 -326 q 621 -330 645 -330 m 231 777 q 94 807 142 777 q 45 894 45 837 q 93 983 45 951 q 231 1015 142 1015 l 262 1015 l 262 913 l 222 913 q 174 904 190 913 q 158 876 158 895 q 176 846 158 856 q 229 836 194 836 l 240 836 l 240 777 l 231 777 z "},"ᾊ":{"ha":1345,"x_min":41,"x_max":1320,"o":"m 312 0 l 651 1010 l 972 1010 l 1320 0 l 1050 0 l 910 442 q 845 674 877 553 q 781 930 813 796 l 838 930 q 776 674 806 796 q 714 442 747 552 l 578 0 l 312 0 m 543 210 l 543 395 l 1088 395 l 1088 210 l 543 210 m 865 -330 q 764 -295 797 -330 q 730 -200 730 -260 l 730 -80 l 898 -80 l 898 -189 q 905 -217 898 -209 q 936 -226 911 -226 q 948 -225 940 -226 q 968 -224 956 -225 l 968 -323 q 919 -328 948 -326 q 865 -330 889 -330 m 72 777 l 63 777 l 63 836 l 73 836 q 127 846 109 836 q 145 876 145 856 q 129 904 145 895 q 81 913 113 913 l 41 913 l 41 1015 l 72 1015 q 210 983 161 1015 q 258 894 258 951 q 210 807 258 837 q 72 777 161 777 m 478 785 l 359 785 l 279 1010 l 458 1010 l 478 785 z "},"ᾋ":{"ha":1376,"x_min":41,"x_max":1350,"o":"m 342 0 l 682 1010 l 1002 1010 l 1350 0 l 1080 0 l 941 442 q 876 674 907 553 q 812 930 844 796 l 868 930 q 807 674 836 796 q 745 442 777 552 l 608 0 l 342 0 m 573 210 l 573 395 l 1119 395 l 1119 210 l 573 210 m 896 -330 q 794 -295 827 -330 q 761 -200 761 -260 l 761 -80 l 928 -80 l 928 -189 q 935 -217 928 -209 q 966 -226 942 -226 q 979 -225 970 -226 q 999 -224 987 -225 l 999 -323 q 949 -328 979 -326 q 896 -330 920 -330 m 228 777 q 90 807 139 777 q 41 894 41 837 q 90 983 41 951 q 228 1015 138 1015 l 258 1015 l 258 913 l 219 913 q 171 904 186 913 q 155 876 155 895 q 173 846 155 856 q 226 836 191 836 l 237 836 l 237 777 l 228 777 m 503 785 l 383 785 l 303 1010 l 483 1010 l 503 785 z "},"ᾌ":{"ha":1354,"x_min":41,"x_max":1329,"o":"m 321 0 l 661 1010 l 981 1010 l 1329 0 l 1059 0 l 920 442 q 854 674 886 553 q 791 930 823 796 l 847 930 q 786 674 815 796 q 724 442 756 552 l 587 0 l 321 0 m 552 210 l 552 395 l 1098 395 l 1098 210 l 552 210 m 72 777 l 63 777 l 63 836 l 73 836 q 127 846 109 836 q 145 876 145 856 q 129 904 145 895 q 81 913 113 913 l 41 913 l 41 1015 l 72 1015 q 210 983 161 1015 q 258 894 258 951 q 210 807 258 837 q 72 777 161 777 m 336 785 l 356 1010 l 536 1010 l 456 785 l 336 785 m 875 -330 q 773 -295 806 -330 q 740 -200 740 -260 l 740 -80 l 907 -80 l 907 -189 q 914 -217 907 -209 q 945 -226 921 -226 q 958 -225 949 -226 q 978 -224 966 -225 l 978 -323 q 928 -328 958 -326 q 875 -330 899 -330 z "},"ᾍ":{"ha":1380,"x_min":41,"x_max":1354,"o":"m 347 0 l 686 1010 l 1006 1010 l 1354 0 l 1084 0 l 945 442 q 880 674 911 553 q 816 930 848 796 l 872 930 q 811 674 840 796 q 749 442 781 552 l 612 0 l 347 0 m 577 210 l 577 395 l 1123 395 l 1123 210 l 577 210 m 900 -330 q 798 -295 831 -330 q 765 -200 765 -260 l 765 -80 l 932 -80 l 932 -189 q 939 -217 932 -209 q 970 -226 946 -226 q 983 -225 975 -226 q 1003 -224 991 -225 l 1003 -323 q 953 -328 983 -326 q 900 -330 924 -330 m 228 777 q 90 807 139 777 q 41 894 41 837 q 90 983 41 951 q 228 1015 138 1015 l 258 1015 l 258 913 l 219 913 q 171 904 186 913 q 155 876 155 895 q 173 846 155 856 q 226 836 191 836 l 237 836 l 237 777 l 228 777 m 354 785 l 374 1010 l 553 1010 l 473 785 l 354 785 z "},"ᾎ":{"ha":1222,"x_min":41,"x_max":1196,"o":"m 189 0 l 528 1010 l 848 1010 l 1196 0 l 926 0 l 787 442 q 722 674 753 553 q 658 930 690 796 l 714 930 q 653 674 682 796 q 591 442 623 552 l 454 0 l 189 0 m 419 210 l 419 395 l 965 395 l 965 210 l 419 210 m 210 789 l 201 789 l 201 849 l 212 849 q 266 859 248 849 q 283 888 283 869 q 267 917 283 907 q 219 926 251 926 l 180 926 l 180 1027 l 210 1027 q 348 996 300 1027 q 397 907 397 964 q 348 820 397 850 q 210 789 299 789 m 384 1085 q 323 1096 349 1085 q 278 1120 298 1106 q 242 1144 259 1133 q 208 1154 226 1154 q 175 1137 186 1154 q 161 1090 163 1120 l 41 1090 q 85 1222 43 1177 q 193 1267 127 1267 q 253 1258 227 1267 q 298 1234 278 1248 q 334 1210 317 1221 q 368 1200 351 1200 q 404 1216 393 1200 q 416 1265 415 1233 l 535 1265 q 491 1131 534 1177 q 384 1085 448 1085 m 742 -330 q 640 -295 673 -330 q 607 -200 607 -260 l 607 -80 l 774 -80 l 774 -189 q 781 -217 774 -209 q 812 -226 788 -226 q 825 -225 817 -226 q 845 -224 833 -225 l 845 -323 q 795 -328 825 -326 q 742 -330 766 -330 z "},"ᾏ":{"ha":1243,"x_min":41,"x_max":1217,"o":"m 210 0 l 549 1010 l 870 1010 l 1218 0 l 948 0 l 808 442 q 743 674 775 553 q 680 930 711 796 l 736 930 q 674 674 704 796 q 612 442 645 552 l 476 0 l 210 0 m 441 210 l 441 395 l 987 395 l 987 210 l 441 210 m 764 -330 q 662 -295 695 -330 q 629 -200 629 -260 l 629 -80 l 796 -80 l 796 -189 q 803 -217 796 -209 q 834 -226 810 -226 q 846 -225 838 -226 q 867 -224 854 -225 l 867 -323 q 817 -328 846 -326 q 764 -330 787 -330 m 366 773 q 229 803 277 773 q 180 890 180 833 q 228 979 180 947 q 366 1011 277 1011 l 397 1011 l 397 909 l 357 909 q 309 900 326 909 q 293 872 293 891 q 311 843 293 852 q 364 833 329 833 l 375 833 l 375 773 l 366 773 m 384 1069 q 323 1079 349 1069 q 278 1103 298 1090 q 242 1127 259 1117 q 208 1138 226 1138 q 175 1121 186 1138 q 161 1074 163 1103 l 41 1074 q 85 1206 43 1161 q 193 1251 127 1251 q 253 1241 227 1251 q 298 1218 278 1232 q 334 1194 317 1204 q 368 1183 351 1183 q 404 1200 393 1183 q 416 1249 415 1217 l 535 1249 q 491 1115 534 1161 q 384 1069 448 1069 z "},"ᾼ":{"ha":1059,"x_min":26,"x_max":1034,"o":"m 26 0 l 365 1010 l 686 1010 l 1034 0 l 764 0 l 624 442 q 559 674 591 553 q 495 930 527 796 l 551 930 q 490 674 519 796 q 428 442 460 552 l 292 0 l 26 0 m 256 210 l 256 395 l 802 395 l 802 210 l 256 210 m 579 -330 q 477 -295 511 -330 q 444 -200 444 -260 l 444 -80 l 612 -80 l 612 -189 q 618 -217 612 -209 q 650 -226 625 -226 q 662 -225 654 -226 q 682 -224 670 -225 l 682 -323 q 632 -328 662 -326 q 579 -330 603 -330 z "},"Λ":{"ha":1059,"x_min":26,"x_max":1034,"o":"m 26 0 l 365 1010 l 686 1010 l 1034 0 l 764 0 l 624 442 q 559 674 591 553 q 495 930 527 796 l 551 930 q 490 674 519 796 q 428 442 460 552 l 292 0 l 26 0 z "},"Æ":{"ha":1437,"x_min":26,"x_max":1375,"o":"m 26 0 l 441 1010 l 1375 1010 l 1375 812 l 903 812 l 903 606 l 1339 606 l 1339 412 l 903 412 l 903 198 l 1375 198 l 1375 0 l 673 0 l 673 847 l 617 847 l 287 0 l 26 0 m 265 222 l 265 391 l 789 391 l 789 222 l 265 222 z "},"Ǣ":{"ha":1437,"x_min":26,"x_max":1375,"o":"m 26 0 l 441 1010 l 1375 1010 l 1375 812 l 903 812 l 903 606 l 1339 606 l 1339 412 l 903 412 l 903 198 l 1375 198 l 1375 0 l 673 0 l 673 847 l 617 847 l 287 0 l 26 0 m 265 222 l 265 391 l 789 391 l 789 222 l 265 222 m 1113 1280 l 1113 1138 l 713 1138 l 713 1280 l 1113 1280 z "},"Ǽ":{"ha":1437,"x_min":26,"x_max":1375,"o":"m 26 0 l 441 1010 l 1375 1010 l 1375 812 l 903 812 l 903 606 l 1339 606 l 1339 412 l 903 412 l 903 198 l 1375 198 l 1375 0 l 673 0 l 673 847 l 617 847 l 287 0 l 26 0 m 265 222 l 265 391 l 789 391 l 789 222 l 265 222 m 829 1103 l 930 1320 l 1143 1320 l 989 1103 l 829 1103 z "},"Ӕ":{"ha":1437,"x_min":26,"x_max":1375,"o":"m 26 0 l 441 1010 l 1375 1010 l 1375 812 l 903 812 l 903 606 l 1339 606 l 1339 412 l 903 412 l 903 198 l 1375 198 l 1375 0 l 673 0 l 673 847 l 617 847 l 287 0 l 26 0 m 265 222 l 265 391 l 789 391 l 789 222 l 265 222 z "},"B":{"ha":918,"x_min":76,"x_max":877,"o":"m 76 0 l 76 1010 l 495 1010 q 684 978 608 1010 q 800 888 761 945 q 838 754 838 830 q 814 651 838 696 q 748 576 791 606 q 650 534 706 547 l 650 526 q 763 493 711 524 q 846 409 814 463 q 877 283 877 355 q 836 137 877 201 q 717 37 795 73 q 526 0 639 0 l 76 0 m 315 192 l 473 192 q 589 223 551 192 q 627 308 627 254 q 609 375 627 347 q 558 420 591 404 q 477 435 524 435 l 315 435 l 315 192 m 315 595 l 458 595 q 529 609 498 595 q 577 648 559 623 q 595 709 595 673 q 559 790 595 760 q 461 820 523 820 l 315 820 l 315 595 z "},"Ḃ":{"ha":918,"x_min":76,"x_max":877,"o":"m 76 0 l 76 1010 l 495 1010 q 684 978 608 1010 q 800 888 761 945 q 838 754 838 830 q 814 651 838 696 q 748 576 791 606 q 650 534 706 547 l 650 526 q 763 493 711 524 q 846 409 814 463 q 877 283 877 355 q 836 137 877 201 q 717 37 795 73 q 526 0 639 0 l 76 0 m 315 192 l 473 192 q 589 223 551 192 q 627 308 627 254 q 609 375 627 347 q 558 420 591 404 q 477 435 524 435 l 315 435 l 315 192 m 315 595 l 458 595 q 529 609 498 595 q 577 648 559 623 q 595 709 595 673 q 559 790 595 760 q 461 820 523 820 l 315 820 l 315 595 m 446 1095 q 357 1128 393 1095 q 321 1210 321 1162 q 357 1292 321 1259 q 446 1325 393 1325 q 533 1292 497 1325 q 569 1210 569 1259 q 533 1128 569 1162 q 446 1095 497 1095 z "},"Ḅ":{"ha":918,"x_min":76,"x_max":877,"o":"m 76 0 l 76 1010 l 495 1010 q 684 978 608 1010 q 800 888 761 945 q 838 754 838 830 q 814 651 838 696 q 748 576 791 606 q 650 534 706 547 l 650 526 q 763 493 711 524 q 846 409 814 463 q 877 283 877 355 q 836 137 877 201 q 717 37 795 73 q 526 0 639 0 l 76 0 m 315 192 l 473 192 q 589 223 551 192 q 627 308 627 254 q 609 375 627 347 q 558 420 591 404 q 477 435 524 435 l 315 435 l 315 192 m 315 595 l 458 595 q 529 609 498 595 q 577 648 559 623 q 595 709 595 673 q 559 790 595 760 q 461 820 523 820 l 315 820 l 315 595 m 446 -319 q 358 -286 394 -319 q 322 -205 322 -253 q 358 -123 322 -156 q 446 -90 394 -90 q 534 -123 498 -90 q 570 -205 570 -156 q 534 -286 570 -253 q 446 -319 498 -319 z "},"Ḇ":{"ha":918,"x_min":76,"x_max":877,"o":"m 76 0 l 76 1010 l 495 1010 q 684 978 608 1010 q 800 888 761 945 q 838 754 838 830 q 814 651 838 696 q 748 576 791 606 q 650 534 706 547 l 650 526 q 763 493 711 524 q 846 409 814 463 q 877 283 877 355 q 836 137 877 201 q 717 37 795 73 q 526 0 639 0 l 76 0 m 315 192 l 473 192 q 589 223 551 192 q 627 308 627 254 q 609 375 627 347 q 558 420 591 404 q 477 435 524 435 l 315 435 l 315 192 m 315 595 l 458 595 q 529 609 498 595 q 577 648 559 623 q 595 709 595 673 q 559 790 595 760 q 461 820 523 820 l 315 820 l 315 595 m 646 -126 l 646 -269 l 246 -269 l 246 -126 l 646 -126 z "},"Ƀ":{"ha":958,"x_min":8,"x_max":917,"o":"m 116 0 l 116 1010 l 535 1010 q 724 978 648 1010 q 840 888 801 945 q 878 754 878 830 q 854 651 878 696 q 788 576 831 606 q 690 534 746 547 l 690 526 q 803 493 751 524 q 886 409 854 463 q 917 283 917 355 q 876 137 917 201 q 757 37 836 73 q 566 0 679 0 l 116 0 m 355 192 l 513 192 q 629 223 591 192 q 667 308 667 254 q 649 375 667 347 q 598 420 631 404 q 517 435 564 435 l 355 435 l 355 192 m 355 595 l 498 595 q 569 609 538 595 q 617 648 600 623 q 635 709 635 673 q 599 790 635 760 q 501 820 563 820 l 355 820 l 355 595 m 8 271 l 8 355 l 508 355 l 508 271 l 8 271 z "},"Ɓ":{"ha":1211,"x_min":28,"x_max":1170,"o":"m 28 706 l 28 765 q 99 949 28 888 q 319 1010 170 1010 l 369 1010 l 369 814 l 330 814 q 266 795 287 814 q 244 741 244 777 l 244 706 l 28 706 m 369 0 l 369 1010 l 788 1010 q 977 978 901 1010 q 1093 888 1054 945 q 1131 754 1131 830 q 1107 651 1131 696 q 1041 576 1084 606 q 943 534 999 547 l 943 526 q 1056 493 1004 524 q 1139 409 1107 463 q 1170 283 1170 355 q 1129 137 1170 201 q 1010 37 1088 73 q 819 0 932 0 l 369 0 m 608 192 l 766 192 q 882 223 844 192 q 920 308 920 254 q 902 375 920 347 q 851 420 884 404 q 770 435 817 435 l 608 435 l 608 192 m 608 595 l 751 595 q 822 609 791 595 q 870 648 852 623 q 888 709 888 673 q 852 790 888 760 q 754 820 816 820 l 608 820 l 608 595 z "},"В":{"ha":918,"x_min":76,"x_max":877,"o":"m 76 0 l 76 1010 l 495 1010 q 684 978 608 1010 q 800 888 761 945 q 838 754 838 830 q 814 651 838 696 q 748 576 791 606 q 650 534 706 547 l 650 526 q 763 493 711 524 q 846 409 814 463 q 877 283 877 355 q 836 137 877 201 q 717 37 795 73 q 526 0 639 0 l 76 0 m 315 192 l 473 192 q 589 223 551 192 q 627 308 627 254 q 609 375 627 347 q 558 420 591 404 q 477 435 524 435 l 315 435 l 315 192 m 315 595 l 458 595 q 529 609 498 595 q 577 648 559 623 q 595 709 595 673 q 559 790 595 760 q 461 820 523 820 l 315 820 l 315 595 z "},"Β":{"ha":918,"x_min":76,"x_max":877,"o":"m 76 0 l 76 1010 l 495 1010 q 684 978 608 1010 q 800 888 761 945 q 838 754 838 830 q 814 651 838 696 q 748 576 791 606 q 650 534 706 547 l 650 526 q 763 493 711 524 q 846 409 814 463 q 877 283 877 355 q 836 137 877 201 q 717 37 795 73 q 526 0 639 0 l 76 0 m 315 192 l 473 192 q 589 223 551 192 q 627 308 627 254 q 609 375 627 347 q 558 420 591 404 q 477 435 524 435 l 315 435 l 315 192 m 315 595 l 458 595 q 529 609 498 595 q 577 648 559 623 q 595 709 595 673 q 559 790 595 760 q 461 820 523 820 l 315 820 l 315 595 z "},"C":{"ha":1027,"x_min":52,"x_max":980,"o":"m 531 -14 q 286 46 394 -14 q 114 223 177 107 q 52 505 52 339 q 115 787 52 671 q 287 964 178 903 q 531 1025 395 1025 q 699 999 621 1025 q 835 926 776 974 q 931 808 894 878 q 979 651 968 739 l 736 651 q 713 719 730 689 q 671 770 696 749 q 611 803 645 791 q 536 814 577 814 q 408 777 462 814 q 325 671 354 741 q 296 505 296 602 q 326 336 296 405 q 408 232 355 267 q 536 197 462 197 q 610 208 576 197 q 670 240 644 219 q 713 291 696 261 q 737 359 730 321 l 980 359 q 939 220 972 287 q 848 101 905 154 q 711 17 791 47 q 531 -14 631 -14 z "},"Ƈ":{"ha":1027,"x_min":52,"x_max":1130,"o":"m 746 651 l 746 915 q 811 1089 746 1031 q 1008 1147 877 1147 q 1075 1145 1044 1147 q 1130 1137 1105 1142 l 1130 967 q 1094 970 1113 969 q 1057 971 1076 971 q 998 958 1016 971 q 979 913 979 944 l 979 651 l 746 651 m 531 -14 q 286 46 394 -14 q 114 223 177 107 q 52 505 52 339 q 115 787 52 671 q 287 964 178 903 q 531 1025 395 1025 q 699 999 621 1025 q 835 926 776 974 q 931 808 894 878 q 979 651 968 739 l 736 651 q 713 719 730 689 q 671 770 696 749 q 611 803 645 791 q 536 814 577 814 q 408 777 462 814 q 325 671 354 741 q 296 505 296 602 q 326 336 296 405 q 408 232 355 267 q 536 197 462 197 q 610 208 576 197 q 670 240 644 219 q 713 291 696 261 q 737 359 730 321 l 980 359 q 939 220 972 287 q 848 101 905 154 q 711 17 791 47 q 531 -14 631 -14 z "},"Ç":{"ha":1027,"x_min":52,"x_max":980,"o":"m 531 -14 q 286 46 394 -14 q 114 223 177 107 q 52 505 52 339 q 115 787 52 671 q 287 964 178 903 q 531 1025 395 1025 q 699 999 621 1025 q 835 926 776 974 q 931 808 894 878 q 979 651 968 739 l 736 651 q 713 719 730 689 q 671 770 696 749 q 611 803 645 791 q 536 814 577 814 q 408 777 462 814 q 325 671 354 741 q 296 505 296 602 q 326 336 296 405 q 408 232 355 267 q 536 197 462 197 q 610 208 576 197 q 670 240 644 219 q 713 291 696 261 q 737 359 730 321 l 980 359 q 939 220 972 287 q 848 101 905 154 q 711 17 791 47 q 531 -14 631 -14 m 433 -281 l 433 -196 l 520 -196 q 564 -186 550 -196 q 577 -156 577 -177 q 564 -125 577 -135 q 520 -116 550 -116 l 457 -116 l 484 31 l 568 31 l 568 2 l 564 -56 q 662 -81 627 -52 q 698 -163 698 -111 q 658 -253 698 -225 q 534 -281 618 -281 l 433 -281 z "},"Ć":{"ha":1027,"x_min":52,"x_max":980,"o":"m 531 -14 q 286 46 394 -14 q 114 223 177 107 q 52 505 52 339 q 115 787 52 671 q 287 964 178 903 q 531 1025 395 1025 q 699 999 621 1025 q 835 926 776 974 q 931 808 894 878 q 979 651 968 739 l 736 651 q 713 719 730 689 q 671 770 696 749 q 611 803 645 791 q 536 814 577 814 q 408 777 462 814 q 325 671 354 741 q 296 505 296 602 q 326 336 296 405 q 408 232 355 267 q 536 197 462 197 q 610 208 576 197 q 670 240 644 219 q 713 291 696 261 q 737 359 730 321 l 980 359 q 939 220 972 287 q 848 101 905 154 q 711 17 791 47 q 531 -14 631 -14 m 445 1103 l 547 1320 l 759 1320 l 605 1103 l 445 1103 z "},"Ĉ":{"ha":1027,"x_min":52,"x_max":980,"o":"m 531 -14 q 286 46 394 -14 q 114 223 177 107 q 52 505 52 339 q 115 787 52 671 q 287 964 178 903 q 531 1025 395 1025 q 699 999 621 1025 q 835 926 776 974 q 931 808 894 878 q 979 651 968 739 l 736 651 q 713 719 730 689 q 671 770 696 749 q 611 803 645 791 q 536 814 577 814 q 408 777 462 814 q 325 671 354 741 q 296 505 296 602 q 326 336 296 405 q 408 232 355 267 q 536 197 462 197 q 610 208 576 197 q 670 240 644 219 q 713 291 696 261 q 737 359 730 321 l 980 359 q 939 220 972 287 q 848 101 905 154 q 711 17 791 47 q 531 -14 631 -14 m 435 1107 l 240 1107 l 240 1111 l 441 1320 l 615 1320 l 817 1111 l 817 1107 l 623 1107 l 528 1220 l 435 1107 z "},"Ċ":{"ha":1027,"x_min":52,"x_max":980,"o":"m 531 -14 q 286 46 394 -14 q 114 223 177 107 q 52 505 52 339 q 115 787 52 671 q 287 964 178 903 q 531 1025 395 1025 q 699 999 621 1025 q 835 926 776 974 q 931 808 894 878 q 979 651 968 739 l 736 651 q 713 719 730 689 q 671 770 696 749 q 611 803 645 791 q 536 814 577 814 q 408 777 462 814 q 325 671 354 741 q 296 505 296 602 q 326 336 296 405 q 408 232 355 267 q 536 197 462 197 q 610 208 576 197 q 670 240 644 219 q 713 291 696 261 q 737 359 730 321 l 980 359 q 939 220 972 287 q 848 101 905 154 q 711 17 791 47 q 531 -14 631 -14 m 530 1095 q 441 1128 477 1095 q 406 1210 406 1162 q 441 1292 406 1259 q 530 1325 477 1325 q 617 1292 581 1325 q 653 1210 653 1259 q 617 1128 653 1162 q 530 1095 581 1095 z "},"Č":{"ha":1027,"x_min":52,"x_max":980,"o":"m 531 -14 q 286 46 394 -14 q 114 223 177 107 q 52 505 52 339 q 115 787 52 671 q 287 964 178 903 q 531 1025 395 1025 q 699 999 621 1025 q 835 926 776 974 q 931 808 894 878 q 979 651 968 739 l 736 651 q 713 719 730 689 q 671 770 696 749 q 611 803 645 791 q 536 814 577 814 q 408 777 462 814 q 325 671 354 741 q 296 505 296 602 q 326 336 296 405 q 408 232 355 267 q 536 197 462 197 q 610 208 576 197 q 670 240 644 219 q 713 291 696 261 q 737 359 730 321 l 980 359 q 939 220 972 287 q 848 101 905 154 q 711 17 791 47 q 531 -14 631 -14 m 435 1320 l 528 1206 l 623 1320 l 817 1320 l 817 1316 l 615 1107 l 441 1107 l 240 1316 l 240 1320 l 435 1320 z "},"Ḉ":{"ha":1027,"x_min":52,"x_max":980,"o":"m 531 -14 q 286 46 394 -14 q 114 223 177 107 q 52 505 52 339 q 115 787 52 671 q 287 964 178 903 q 531 1025 395 1025 q 699 999 621 1025 q 835 926 776 974 q 931 808 894 878 q 979 651 968 739 l 736 651 q 713 719 730 689 q 671 770 696 749 q 611 803 645 791 q 536 814 577 814 q 408 777 462 814 q 325 671 354 741 q 296 505 296 602 q 326 336 296 405 q 408 232 355 267 q 536 197 462 197 q 610 208 576 197 q 670 240 644 219 q 713 291 696 261 q 737 359 730 321 l 980 359 q 939 220 972 287 q 848 101 905 154 q 711 17 791 47 q 531 -14 631 -14 m 433 -281 l 433 -196 l 520 -196 q 564 -186 550 -196 q 577 -156 577 -177 q 564 -125 577 -135 q 520 -116 550 -116 l 457 -116 l 484 31 l 568 31 l 568 2 l 564 -56 q 662 -81 627 -52 q 698 -163 698 -111 q 658 -253 698 -225 q 534 -281 618 -281 l 433 -281 m 445 1103 l 547 1320 l 759 1320 l 605 1103 l 445 1103 z "},"Ȼ":{"ha":1027,"x_min":52,"x_max":980,"o":"m 260 -129 l 659 1138 l 793 1138 l 393 -129 l 260 -129 m 531 -14 q 286 46 394 -14 q 114 223 177 107 q 52 505 52 339 q 115 787 52 671 q 287 964 178 903 q 531 1025 395 1025 q 699 999 621 1025 q 835 926 776 974 q 931 808 894 878 q 979 651 968 739 l 736 651 q 713 719 730 689 q 671 770 696 749 q 611 803 645 791 q 536 814 577 814 q 408 777 462 814 q 325 671 354 741 q 296 505 296 602 q 326 336 296 405 q 408 232 355 267 q 536 197 462 197 q 610 208 576 197 q 670 240 644 219 q 713 291 696 261 q 737 359 730 321 l 980 359 q 939 220 972 287 q 848 101 905 154 q 711 17 791 47 q 531 -14 631 -14 z "},"Ɔ":{"ha":1027,"x_min":47,"x_max":977,"o":"m 497 1025 q 742 964 634 1025 q 913 787 850 903 q 977 506 977 671 q 913 223 977 340 q 741 46 850 107 q 497 -14 633 -14 q 329 11 406 -14 q 193 85 252 37 q 96 202 134 133 q 49 359 59 271 l 292 359 q 314 291 298 321 q 357 240 331 261 q 416 208 382 219 q 491 197 450 197 q 620 233 566 197 q 703 339 674 270 q 732 506 732 408 q 703 675 732 606 q 620 779 673 743 q 492 814 566 814 q 418 803 452 814 q 358 770 384 791 q 315 720 332 749 q 291 652 298 690 l 47 652 q 89 790 56 724 q 179 910 122 857 q 316 994 237 963 q 497 1025 396 1025 z "},"Ϲ":{"ha":1027,"x_min":52,"x_max":980,"o":"m 531 -14 q 286 46 394 -14 q 114 223 177 107 q 52 505 52 339 q 115 787 52 671 q 287 964 178 903 q 531 1025 395 1025 q 699 999 621 1025 q 835 926 776 974 q 931 808 894 878 q 979 651 968 739 l 736 651 q 713 719 730 689 q 671 770 696 749 q 611 803 645 791 q 536 814 577 814 q 408 777 462 814 q 325 671 354 741 q 296 505 296 602 q 326 336 296 405 q 408 232 355 267 q 536 197 462 197 q 610 208 576 197 q 670 240 644 219 q 713 291 696 261 q 737 359 730 321 l 980 359 q 939 220 972 287 q 848 101 905 154 q 711 17 791 47 q 531 -14 631 -14 z "},"D":{"ha":998,"x_min":76,"x_max":947,"o":"m 448 0 l 179 0 l 179 204 l 437 204 q 586 235 526 204 q 676 332 646 265 q 706 505 706 398 q 675 679 706 612 q 584 776 644 745 q 434 806 524 806 l 175 806 l 175 1010 l 448 1010 q 714 949 602 1010 q 886 775 825 888 q 947 505 947 662 q 886 235 947 349 q 714 61 826 121 q 448 0 602 0 m 316 1010 l 316 0 l 76 0 l 76 1010 l 316 1010 z "},"Ɗ":{"ha":1291,"x_min":28,"x_max":1240,"o":"m 28 706 l 28 765 q 99 949 28 888 q 319 1010 170 1010 l 369 1010 l 369 814 l 330 814 q 266 795 287 814 q 244 741 244 777 l 244 706 l 28 706 m 741 0 l 472 0 l 472 204 l 730 204 q 879 235 819 204 q 969 332 939 265 q 999 505 999 398 q 968 679 999 612 q 877 776 938 745 q 727 806 817 806 l 468 806 l 468 1010 l 741 1010 q 1007 949 895 1010 q 1179 775 1118 888 q 1240 505 1240 662 q 1179 235 1240 349 q 1007 61 1119 121 q 741 0 895 0 m 609 1010 l 609 0 l 369 0 l 369 1010 l 609 1010 z "},"Ď":{"ha":998,"x_min":76,"x_max":947,"o":"m 448 0 l 179 0 l 179 204 l 437 204 q 586 235 526 204 q 676 332 646 265 q 706 505 706 398 q 675 679 706 612 q 584 776 644 745 q 434 806 524 806 l 175 806 l 175 1010 l 448 1010 q 714 949 602 1010 q 886 775 825 888 q 947 505 947 662 q 886 235 947 349 q 714 61 826 121 q 448 0 602 0 m 316 1010 l 316 0 l 76 0 l 76 1010 l 316 1010 m 311 1320 l 404 1206 l 499 1320 l 693 1320 l 693 1316 l 491 1107 l 317 1107 l 116 1316 l 116 1320 l 311 1320 z "},"Ḋ":{"ha":998,"x_min":76,"x_max":947,"o":"m 448 0 l 179 0 l 179 204 l 437 204 q 586 235 526 204 q 676 332 646 265 q 706 505 706 398 q 675 679 706 612 q 584 776 644 745 q 434 806 524 806 l 175 806 l 175 1010 l 448 1010 q 714 949 602 1010 q 886 775 825 888 q 947 505 947 662 q 886 235 947 349 q 714 61 826 121 q 448 0 602 0 m 316 1010 l 316 0 l 76 0 l 76 1010 l 316 1010 m 405 1095 q 317 1128 353 1095 q 281 1210 281 1162 q 317 1292 281 1259 q 405 1325 353 1325 q 492 1292 456 1325 q 528 1210 528 1259 q 492 1128 528 1162 q 405 1095 456 1095 z "},"Ḍ":{"ha":998,"x_min":76,"x_max":947,"o":"m 448 0 l 179 0 l 179 204 l 437 204 q 586 235 526 204 q 676 332 646 265 q 706 505 706 398 q 675 679 706 612 q 584 776 644 745 q 434 806 524 806 l 175 806 l 175 1010 l 448 1010 q 714 949 602 1010 q 886 775 825 888 q 947 505 947 662 q 886 235 947 349 q 714 61 826 121 q 448 0 602 0 m 316 1010 l 316 0 l 76 0 l 76 1010 l 316 1010 m 448 -319 q 359 -286 395 -319 q 323 -205 323 -253 q 359 -123 323 -156 q 448 -90 395 -90 q 535 -123 499 -90 q 571 -205 571 -156 q 535 -286 571 -253 q 448 -319 499 -319 z "},"Ḏ":{"ha":998,"x_min":76,"x_max":947,"o":"m 448 0 l 179 0 l 179 204 l 437 204 q 586 235 526 204 q 676 332 646 265 q 706 505 706 398 q 675 679 706 612 q 584 776 644 745 q 434 806 524 806 l 175 806 l 175 1010 l 448 1010 q 714 949 602 1010 q 886 775 825 888 q 947 505 947 662 q 886 235 947 349 q 714 61 826 121 q 448 0 602 0 m 316 1010 l 316 0 l 76 0 l 76 1010 l 316 1010 m 648 -126 l 648 -269 l 248 -269 l 248 -126 l 648 -126 z "},"Ḑ":{"ha":998,"x_min":76,"x_max":947,"o":"m 448 0 l 179 0 l 179 204 l 437 204 q 586 235 526 204 q 676 332 646 265 q 706 505 706 398 q 675 679 706 612 q 584 776 644 745 q 434 806 524 806 l 175 806 l 175 1010 l 448 1010 q 714 949 602 1010 q 886 775 825 888 q 947 505 947 662 q 886 235 947 349 q 714 61 826 121 q 448 0 602 0 m 316 1010 l 316 0 l 76 0 l 76 1010 l 316 1010 m 279 -321 l 341 -80 l 557 -80 l 441 -321 l 279 -321 z "},"Ḓ":{"ha":998,"x_min":76,"x_max":947,"o":"m 448 0 l 179 0 l 179 204 l 437 204 q 586 235 526 204 q 676 332 646 265 q 706 505 706 398 q 675 679 706 612 q 584 776 644 745 q 434 806 524 806 l 175 806 l 175 1010 l 448 1010 q 714 949 602 1010 q 886 775 825 888 q 947 505 947 662 q 886 235 947 349 q 714 61 826 121 q 448 0 602 0 m 316 1010 l 316 0 l 76 0 l 76 1010 l 316 1010 m 354 -308 l 159 -308 l 159 -304 l 361 -95 l 534 -95 l 736 -304 l 736 -308 l 543 -308 l 448 -195 l 354 -308 z "},"Ɖ":{"ha":1066,"x_min":14,"x_max":1015,"o":"m 516 0 l 247 0 l 247 204 l 505 204 q 653 235 593 204 q 744 332 713 265 q 774 505 774 398 q 743 679 774 612 q 652 776 712 745 q 502 806 591 806 l 243 806 l 243 1010 l 516 1010 q 782 949 670 1010 q 954 775 893 888 q 1015 505 1015 662 q 954 235 1015 349 q 782 61 894 121 q 516 0 670 0 m 384 1010 l 384 0 l 144 0 l 144 1010 l 384 1010 m 14 428 l 14 583 l 577 583 l 577 428 l 14 428 z "},"ǲ":{"ha":1792,"x_min":76,"x_max":1716,"o":"m 448 0 l 179 0 l 179 204 l 437 204 q 586 235 526 204 q 676 332 646 265 q 706 505 706 398 q 675 679 706 612 q 584 776 644 745 q 434 806 524 806 l 175 806 l 175 1010 l 448 1010 q 714 949 602 1010 q 886 775 825 888 q 947 505 947 662 q 886 235 947 349 q 714 61 826 121 q 448 0 602 0 m 316 1010 l 316 0 l 76 0 l 76 1010 l 316 1010 m 1074 0 l 1074 140 l 1425 561 l 1425 565 l 1084 565 l 1084 749 l 1706 749 l 1706 596 l 1377 188 l 1377 184 l 1716 184 l 1716 0 l 1074 0 z "},"ǅ":{"ha":1792,"x_min":76,"x_max":1716,"o":"m 448 0 l 179 0 l 179 204 l 437 204 q 586 235 526 204 q 676 332 646 265 q 706 505 706 398 q 675 679 706 612 q 584 776 644 745 q 434 806 524 806 l 175 806 l 175 1010 l 448 1010 q 714 949 602 1010 q 886 775 825 888 q 947 505 947 662 q 886 235 947 349 q 714 61 826 121 q 448 0 602 0 m 316 1010 l 316 0 l 76 0 l 76 1010 l 316 1010 m 1074 0 l 1074 140 l 1425 561 l 1425 565 l 1084 565 l 1084 749 l 1706 749 l 1706 596 l 1377 188 l 1377 184 l 1716 184 l 1716 0 l 1074 0 m 1300 1058 l 1394 945 l 1489 1058 l 1683 1058 l 1683 1054 l 1480 845 l 1307 845 l 1105 1054 l 1105 1058 l 1300 1058 z "},"E":{"ha":850,"x_min":76,"x_max":789,"o":"m 76 0 l 76 1010 l 789 1010 l 789 812 l 316 812 l 316 606 l 751 606 l 751 413 l 316 413 l 316 198 l 788 198 l 788 0 l 76 0 z "},"È":{"ha":850,"x_min":76,"x_max":789,"o":"m 76 0 l 76 1010 l 789 1010 l 789 812 l 316 812 l 316 606 l 751 606 l 751 413 l 316 413 l 316 198 l 788 198 l 788 0 l 76 0 m 357 1103 l 203 1320 l 415 1320 l 517 1103 l 357 1103 z "},"É":{"ha":850,"x_min":76,"x_max":789,"o":"m 76 0 l 76 1010 l 789 1010 l 789 812 l 316 812 l 316 606 l 751 606 l 751 413 l 316 413 l 316 198 l 788 198 l 788 0 l 76 0 m 349 1103 l 450 1320 l 663 1320 l 509 1103 l 349 1103 z "},"Ê":{"ha":850,"x_min":76,"x_max":789,"o":"m 76 0 l 76 1010 l 789 1010 l 789 812 l 316 812 l 316 606 l 751 606 l 751 413 l 316 413 l 316 198 l 788 198 l 788 0 l 76 0 m 338 1107 l 144 1107 l 144 1111 l 345 1320 l 519 1320 l 721 1111 l 721 1107 l 527 1107 l 432 1220 l 338 1107 z "},"Ë":{"ha":850,"x_min":76,"x_max":789,"o":"m 76 0 l 76 1010 l 789 1010 l 789 812 l 316 812 l 316 606 l 751 606 l 751 413 l 316 413 l 316 198 l 788 198 l 788 0 l 76 0 m 586 1101 q 506 1133 539 1101 q 473 1211 473 1165 q 506 1288 473 1256 q 586 1319 539 1319 q 666 1288 633 1319 q 699 1211 699 1256 q 666 1133 699 1165 q 586 1101 633 1101 m 279 1101 q 199 1133 231 1101 q 166 1211 166 1165 q 199 1288 166 1256 q 279 1319 232 1319 q 359 1288 326 1319 q 392 1211 392 1256 q 359 1133 392 1165 q 279 1101 326 1101 z "},"Ē":{"ha":850,"x_min":76,"x_max":789,"o":"m 76 0 l 76 1010 l 789 1010 l 789 812 l 316 812 l 316 606 l 751 606 l 751 413 l 316 413 l 316 198 l 788 198 l 788 0 l 76 0 m 633 1280 l 633 1138 l 233 1138 l 233 1280 l 633 1280 z "},"Ĕ":{"ha":850,"x_min":76,"x_max":789,"o":"m 76 0 l 76 1010 l 789 1010 l 789 812 l 316 812 l 316 606 l 751 606 l 751 413 l 316 413 l 316 198 l 788 198 l 788 0 l 76 0 m 433 1097 q 305 1126 361 1097 q 216 1205 249 1156 q 183 1316 183 1255 l 315 1316 q 349 1246 315 1274 q 433 1218 382 1218 q 516 1246 482 1218 q 549 1316 549 1274 l 682 1316 q 649 1205 682 1255 q 559 1126 616 1156 q 433 1097 503 1097 z "},"Ė":{"ha":850,"x_min":76,"x_max":789,"o":"m 76 0 l 76 1010 l 789 1010 l 789 812 l 316 812 l 316 606 l 751 606 l 751 413 l 316 413 l 316 198 l 788 198 l 788 0 l 76 0 m 433 1095 q 345 1128 380 1095 q 309 1210 309 1162 q 345 1292 309 1259 q 433 1325 380 1325 q 520 1292 484 1325 q 556 1210 556 1259 q 520 1128 556 1162 q 433 1095 484 1095 z "},"Ę":{"ha":850,"x_min":76,"x_max":811,"o":"m 76 0 l 76 1010 l 789 1010 l 789 812 l 316 812 l 316 606 l 751 606 l 751 413 l 316 413 l 316 198 l 788 198 l 788 0 l 76 0 m 668 -289 q 529 -250 581 -289 q 477 -142 477 -212 q 501 -54 477 -95 q 566 18 526 -12 l 788 0 q 707 -50 732 -24 q 682 -106 682 -76 q 694 -141 682 -129 q 730 -154 706 -154 q 754 -151 743 -154 q 776 -142 766 -148 l 811 -262 q 745 -281 785 -274 q 668 -289 706 -289 z "},"Ě":{"ha":850,"x_min":76,"x_max":789,"o":"m 76 0 l 76 1010 l 789 1010 l 789 812 l 316 812 l 316 606 l 751 606 l 751 413 l 316 413 l 316 198 l 788 198 l 788 0 l 76 0 m 338 1320 l 432 1206 l 527 1320 l 721 1320 l 721 1316 l 519 1107 l 345 1107 l 144 1316 l 144 1320 l 338 1320 z "},"Ȅ":{"ha":850,"x_min":60,"x_max":789,"o":"m 76 0 l 76 1010 l 789 1010 l 789 812 l 316 812 l 316 606 l 751 606 l 751 413 l 316 413 l 316 198 l 788 198 l 788 0 l 76 0 m 479 1103 l 363 1320 l 564 1320 l 640 1103 l 479 1103 m 234 1103 l 60 1320 l 277 1320 l 398 1103 l 234 1103 z "},"Ȇ":{"ha":850,"x_min":76,"x_max":789,"o":"m 76 0 l 76 1010 l 789 1010 l 789 812 l 316 812 l 316 606 l 751 606 l 751 413 l 316 413 l 316 198 l 788 198 l 788 0 l 76 0 m 433 1327 q 561 1298 505 1327 q 651 1219 618 1268 q 684 1107 684 1169 l 551 1107 q 517 1177 551 1149 q 433 1205 483 1205 q 348 1177 382 1205 q 313 1107 313 1149 l 182 1107 q 215 1219 182 1169 q 304 1298 248 1268 q 433 1327 361 1327 z "},"Ȩ":{"ha":850,"x_min":76,"x_max":789,"o":"m 76 0 l 76 1010 l 789 1010 l 789 812 l 316 812 l 316 606 l 751 606 l 751 413 l 316 413 l 316 198 l 788 198 l 788 0 l 76 0 m 342 -283 l 342 -198 l 429 -198 q 473 -189 459 -198 q 486 -158 486 -179 q 473 -127 486 -137 q 429 -118 459 -118 l 366 -118 l 393 28 l 477 28 l 477 0 l 473 -58 q 571 -83 536 -54 q 607 -165 607 -113 q 567 -255 607 -227 q 443 -283 528 -283 l 342 -283 z "},"Ḕ":{"ha":850,"x_min":76,"x_max":789,"o":"m 76 0 l 76 1010 l 789 1010 l 789 812 l 316 812 l 316 606 l 751 606 l 751 413 l 316 413 l 316 198 l 788 198 l 788 0 l 76 0 m 633 1266 l 633 1124 l 233 1124 l 233 1266 l 633 1266 m 373 1352 l 240 1536 l 420 1536 l 509 1352 l 373 1352 z "},"Ḗ":{"ha":850,"x_min":76,"x_max":789,"o":"m 76 0 l 76 1010 l 789 1010 l 789 812 l 316 812 l 316 606 l 751 606 l 751 413 l 316 413 l 316 198 l 788 198 l 788 0 l 76 0 m 633 1265 l 633 1123 l 233 1123 l 233 1265 l 633 1265 m 366 1352 l 453 1536 l 634 1536 l 500 1352 l 366 1352 z "},"Ḙ":{"ha":850,"x_min":76,"x_max":789,"o":"m 76 0 l 76 1010 l 789 1010 l 789 812 l 316 812 l 316 606 l 751 606 l 751 413 l 316 413 l 316 198 l 788 198 l 788 0 l 76 0 m 340 -308 l 145 -308 l 145 -304 l 347 -95 l 520 -95 l 722 -304 l 722 -308 l 528 -308 l 433 -195 l 340 -308 z "},"Ḛ":{"ha":850,"x_min":76,"x_max":789,"o":"m 76 0 l 76 1010 l 789 1010 l 789 812 l 316 812 l 316 606 l 751 606 l 751 413 l 316 413 l 316 198 l 788 198 l 788 0 l 76 0 m 531 -301 q 470 -290 496 -301 q 424 -264 444 -279 q 387 -237 404 -249 q 353 -226 370 -226 q 318 -245 330 -226 q 304 -296 306 -264 l 182 -296 q 227 -152 184 -201 q 336 -102 270 -102 q 397 -113 372 -102 q 443 -139 423 -124 q 480 -165 463 -154 q 515 -176 497 -176 q 552 -158 541 -176 q 564 -106 563 -140 l 685 -106 q 640 -251 684 -201 q 531 -301 595 -301 z "},"Ḝ":{"ha":850,"x_min":76,"x_max":789,"o":"m 76 0 l 76 1010 l 789 1010 l 789 812 l 316 812 l 316 606 l 751 606 l 751 413 l 316 413 l 316 198 l 788 198 l 788 0 l 76 0 m 342 -283 l 342 -198 l 429 -198 q 473 -189 459 -198 q 486 -158 486 -179 q 473 -127 486 -137 q 429 -118 459 -118 l 366 -118 l 393 28 l 477 28 l 477 0 l 473 -58 q 571 -83 536 -54 q 607 -165 607 -113 q 567 -255 607 -227 q 443 -283 528 -283 l 342 -283 m 433 1097 q 305 1126 361 1097 q 216 1205 249 1156 q 183 1316 183 1255 l 315 1316 q 349 1246 315 1274 q 433 1218 382 1218 q 516 1246 482 1218 q 549 1316 549 1274 l 682 1316 q 649 1205 682 1255 q 559 1126 616 1156 q 433 1097 503 1097 z "},"Ẹ":{"ha":850,"x_min":76,"x_max":789,"o":"m 76 0 l 76 1010 l 789 1010 l 789 812 l 316 812 l 316 606 l 751 606 l 751 413 l 316 413 l 316 198 l 788 198 l 788 0 l 76 0 m 433 -319 q 345 -286 381 -319 q 309 -205 309 -253 q 345 -123 309 -156 q 433 -90 381 -90 q 521 -123 485 -90 q 557 -205 557 -156 q 521 -286 557 -253 q 433 -319 485 -319 z "},"Ẻ":{"ha":850,"x_min":76,"x_max":789,"o":"m 76 0 l 76 1010 l 789 1010 l 789 812 l 316 812 l 316 606 l 751 606 l 751 413 l 316 413 l 316 198 l 788 198 l 788 0 l 76 0 m 494 1103 l 360 1103 l 413 1194 q 414 1202 416 1199 q 408 1204 413 1204 l 294 1204 l 294 1320 l 409 1320 q 508 1303 473 1320 q 555 1261 543 1287 q 560 1205 567 1235 q 532 1149 553 1176 l 494 1103 z "},"Ẽ":{"ha":850,"x_min":76,"x_max":789,"o":"m 76 0 l 76 1010 l 789 1010 l 789 812 l 316 812 l 316 606 l 751 606 l 751 413 l 316 413 l 316 198 l 788 198 l 788 0 l 76 0 m 530 1113 q 469 1124 495 1113 q 423 1150 443 1135 q 386 1177 403 1165 q 352 1188 370 1188 q 317 1169 330 1188 q 304 1118 305 1150 l 182 1118 q 227 1262 184 1213 q 336 1312 269 1312 q 397 1301 371 1312 q 443 1275 422 1290 q 479 1249 463 1260 q 514 1238 496 1238 q 551 1256 540 1238 q 564 1308 562 1274 l 684 1308 q 639 1163 683 1213 q 530 1113 595 1113 z "},"Ế":{"ha":850,"x_min":76,"x_max":799,"o":"m 76 0 l 76 1010 l 789 1010 l 789 812 l 316 812 l 316 606 l 751 606 l 751 413 l 316 413 l 316 198 l 788 198 l 788 0 l 76 0 m 340 1091 l 145 1091 l 145 1095 l 347 1304 l 520 1304 l 722 1095 l 722 1091 l 528 1091 l 433 1205 l 340 1091 m 536 1350 l 622 1533 l 799 1533 l 669 1350 l 536 1350 z "},"Ề":{"ha":850,"x_min":76,"x_max":789,"o":"m 76 0 l 76 1010 l 789 1010 l 789 812 l 316 812 l 316 606 l 751 606 l 751 413 l 316 413 l 316 198 l 788 198 l 788 0 l 76 0 m 340 1091 l 145 1091 l 145 1095 l 347 1304 l 520 1304 l 722 1095 l 722 1091 l 528 1091 l 433 1205 l 340 1091 m 604 1350 l 475 1533 l 652 1533 l 737 1350 l 604 1350 z "},"Ể":{"ha":850,"x_min":76,"x_max":789,"o":"m 76 0 l 76 1010 l 789 1010 l 789 812 l 316 812 l 316 606 l 751 606 l 751 413 l 316 413 l 316 198 l 788 198 l 788 0 l 76 0 m 340 1091 l 145 1091 l 145 1095 l 347 1304 l 520 1304 l 722 1095 l 722 1091 l 528 1091 l 433 1205 l 340 1091 m 649 1350 l 538 1350 l 581 1426 q 582 1433 583 1430 q 576 1435 581 1435 l 481 1435 l 481 1533 l 577 1533 q 677 1509 648 1533 q 705 1451 707 1485 q 680 1388 704 1417 l 649 1350 z "},"Ễ":{"ha":850,"x_min":76,"x_max":789,"o":"m 76 0 l 76 1010 l 789 1010 l 789 812 l 316 812 l 316 606 l 751 606 l 751 413 l 316 413 l 316 198 l 788 198 l 788 0 l 76 0 m 340 1091 l 145 1091 l 145 1095 l 347 1304 l 520 1304 l 722 1095 l 722 1091 l 528 1091 l 433 1205 l 340 1091 m 531 1355 q 470 1365 496 1355 q 424 1388 444 1375 q 387 1411 404 1401 q 353 1421 370 1421 q 318 1404 330 1421 q 305 1359 307 1388 l 182 1359 q 228 1486 184 1442 q 336 1529 271 1529 q 398 1519 372 1529 q 444 1496 424 1509 q 480 1474 463 1484 q 515 1464 497 1464 q 552 1480 541 1464 q 564 1525 563 1496 l 685 1525 q 640 1399 684 1443 q 531 1355 596 1355 z "},"Ệ":{"ha":850,"x_min":76,"x_max":789,"o":"m 76 0 l 76 1010 l 789 1010 l 789 812 l 316 812 l 316 606 l 751 606 l 751 413 l 316 413 l 316 198 l 788 198 l 788 0 l 76 0 m 338 1107 l 144 1107 l 144 1111 l 345 1320 l 519 1320 l 721 1111 l 721 1107 l 527 1107 l 432 1220 l 338 1107 m 433 -319 q 345 -286 381 -319 q 309 -205 309 -253 q 345 -123 309 -156 q 433 -90 381 -90 q 521 -123 485 -90 q 557 -205 557 -156 q 521 -286 557 -253 q 433 -319 485 -319 z "},"Ɇ":{"ha":850,"x_min":76,"x_max":789,"o":"m 216 -129 l 582 1138 l 693 1138 l 328 -129 l 216 -129 m 76 0 l 76 1010 l 789 1010 l 789 812 l 316 812 l 316 606 l 751 606 l 751 413 l 316 413 l 316 198 l 788 198 l 788 0 l 76 0 z "},"Ǝ":{"ha":850,"x_min":62,"x_max":774,"o":"m 774 1010 l 774 0 l 62 0 l 62 198 l 534 198 l 534 404 l 99 404 l 99 597 l 534 597 l 534 812 l 62 812 l 62 1010 l 774 1010 z "},"Ε":{"ha":850,"x_min":76,"x_max":789,"o":"m 76 0 l 76 1010 l 789 1010 l 789 812 l 316 812 l 316 606 l 751 606 l 751 413 l 316 413 l 316 198 l 788 198 l 788 0 l 76 0 z "},"Έ":{"ha":1128,"x_min":41,"x_max":1067,"o":"m 355 0 l 355 1010 l 1067 1010 l 1067 812 l 595 812 l 595 606 l 1030 606 l 1030 413 l 595 413 l 595 198 l 1067 198 l 1067 0 l 355 0 m 41 794 l 64 1010 l 267 1010 l 177 794 l 41 794 z "},"Ἐ":{"ha":1116,"x_min":41,"x_max":1055,"o":"m 342 0 l 342 1010 l 1055 1010 l 1055 812 l 583 812 l 583 606 l 1018 606 l 1018 413 l 583 413 l 583 198 l 1055 198 l 1055 0 l 342 0 m 72 788 l 63 788 l 63 848 l 73 848 q 127 858 109 848 q 145 888 145 867 q 129 915 145 906 q 81 924 113 924 l 41 924 l 41 1026 l 72 1026 q 210 994 161 1026 q 258 905 258 962 q 210 818 258 848 q 72 788 161 788 z "},"Ἑ":{"ha":1133,"x_min":41,"x_max":1072,"o":"m 359 0 l 359 1010 l 1072 1010 l 1072 812 l 599 812 l 599 606 l 1034 606 l 1034 413 l 599 413 l 599 198 l 1071 198 l 1071 0 l 359 0 m 228 777 q 90 807 139 777 q 41 894 41 837 q 90 983 41 951 q 228 1015 138 1015 l 258 1015 l 258 913 l 219 913 q 171 904 186 913 q 155 876 155 895 q 173 846 155 856 q 226 836 191 836 l 237 836 l 237 777 l 228 777 z "},"Ἒ":{"ha":1381,"x_min":41,"x_max":1320,"o":"m 607 0 l 607 1010 l 1320 1010 l 1320 812 l 847 812 l 847 606 l 1282 606 l 1282 413 l 847 413 l 847 198 l 1319 198 l 1319 0 l 607 0 m 72 777 l 63 777 l 63 836 l 73 836 q 127 846 109 836 q 145 876 145 856 q 129 904 145 895 q 81 913 113 913 l 41 913 l 41 1015 l 72 1015 q 210 983 161 1015 q 258 894 258 951 q 210 807 258 837 q 72 777 161 777 m 478 785 l 359 785 l 279 1010 l 458 1010 l 478 785 z "},"Ἓ":{"ha":1411,"x_min":41,"x_max":1350,"o":"m 637 0 l 637 1010 l 1350 1010 l 1350 812 l 878 812 l 878 606 l 1313 606 l 1313 413 l 878 413 l 878 198 l 1350 198 l 1350 0 l 637 0 m 228 777 q 90 807 139 777 q 41 894 41 837 q 90 983 41 951 q 228 1015 138 1015 l 258 1015 l 258 913 l 219 913 q 171 904 186 913 q 155 876 155 895 q 173 846 155 856 q 226 836 191 836 l 237 836 l 237 777 l 228 777 m 503 785 l 383 785 l 303 1010 l 483 1010 l 503 785 z "},"Ἔ":{"ha":1390,"x_min":41,"x_max":1329,"o":"m 616 0 l 616 1010 l 1329 1010 l 1329 812 l 857 812 l 857 606 l 1292 606 l 1292 413 l 857 413 l 857 198 l 1329 198 l 1329 0 l 616 0 m 72 777 l 63 777 l 63 836 l 73 836 q 127 846 109 836 q 145 876 145 856 q 129 904 145 895 q 81 913 113 913 l 41 913 l 41 1015 l 72 1015 q 210 983 161 1015 q 258 894 258 951 q 210 807 258 837 q 72 777 161 777 m 336 785 l 356 1010 l 536 1010 l 456 785 l 336 785 z "},"Ἕ":{"ha":1415,"x_min":41,"x_max":1354,"o":"m 642 0 l 642 1010 l 1354 1010 l 1354 812 l 882 812 l 882 606 l 1317 606 l 1317 413 l 882 413 l 882 198 l 1354 198 l 1354 0 l 642 0 m 228 777 q 90 807 139 777 q 41 894 41 837 q 90 983 41 951 q 228 1015 138 1015 l 258 1015 l 258 913 l 219 913 q 171 904 186 913 q 155 876 155 895 q 173 846 155 856 q 226 836 191 836 l 237 836 l 237 777 l 228 777 m 354 785 l 374 1010 l 553 1010 l 473 785 l 354 785 z "},"Ὲ":{"ha":1111,"x_min":-59,"x_max":1049,"o":"m 336 0 l 336 1010 l 1049 1010 l 1049 812 l 576 812 l 576 606 l 1012 606 l 1012 413 l 576 413 l 576 198 l 1048 198 l 1048 0 l 336 0 m 167 836 l 31 836 l -59 1053 l 144 1053 l 167 836 z "},"Έ":{"ha":1128,"x_min":41,"x_max":1067,"o":"m 355 0 l 355 1010 l 1067 1010 l 1067 812 l 595 812 l 595 606 l 1030 606 l 1030 413 l 595 413 l 595 198 l 1067 198 l 1067 0 l 355 0 m 41 794 l 64 1010 l 267 1010 l 177 794 l 41 794 z "},"Е":{"ha":850,"x_min":76,"x_max":789,"o":"m 76 0 l 76 1010 l 789 1010 l 789 812 l 316 812 l 316 606 l 751 606 l 751 413 l 316 413 l 316 198 l 788 198 l 788 0 l 76 0 z "},"Ѐ":{"ha":850,"x_min":76,"x_max":789,"o":"m 76 0 l 76 1010 l 789 1010 l 789 812 l 316 812 l 316 606 l 751 606 l 751 413 l 316 413 l 316 198 l 788 198 l 788 0 l 76 0 m 357 1103 l 203 1320 l 415 1320 l 517 1103 l 357 1103 z "},"Ё":{"ha":850,"x_min":76,"x_max":789,"o":"m 76 0 l 76 1010 l 789 1010 l 789 812 l 316 812 l 316 606 l 751 606 l 751 413 l 316 413 l 316 198 l 788 198 l 788 0 l 76 0 m 586 1101 q 506 1133 539 1101 q 473 1211 473 1165 q 506 1288 473 1256 q 586 1319 539 1319 q 666 1288 633 1319 q 699 1211 699 1256 q 666 1133 699 1165 q 586 1101 633 1101 m 279 1101 q 199 1133 231 1101 q 166 1211 166 1165 q 199 1288 166 1256 q 279 1319 232 1319 q 359 1288 326 1319 q 392 1211 392 1256 q 359 1133 392 1165 q 279 1101 326 1101 z "},"Ӗ":{"ha":850,"x_min":76,"x_max":789,"o":"m 76 0 l 76 1010 l 789 1010 l 789 812 l 316 812 l 316 606 l 751 606 l 751 413 l 316 413 l 316 198 l 788 198 l 788 0 l 76 0 m 433 1097 q 305 1126 361 1097 q 216 1205 249 1156 q 183 1316 183 1255 l 315 1316 q 349 1246 315 1274 q 433 1218 382 1218 q 516 1246 482 1218 q 549 1316 549 1274 l 682 1316 q 649 1205 682 1255 q 559 1126 616 1156 q 433 1097 503 1097 z "},"F":{"ha":815,"x_min":76,"x_max":772,"o":"m 76 0 l 76 1010 l 772 1010 l 772 812 l 316 812 l 316 566 l 731 566 l 731 372 l 316 372 l 316 0 l 76 0 z "},"Ƒ":{"ha":815,"x_min":-71,"x_max":772,"o":"m -71 -283 l -71 -102 q -35 -105 -54 -104 q 2 -106 -16 -106 q 60 -93 43 -106 q 76 -48 76 -79 l 76 85 l 316 85 l 316 -62 q 249 -235 316 -177 q 51 -294 182 -294 q -15 -291 16 -294 q -71 -283 -46 -288 m 76 0 l 76 1010 l 772 1010 l 772 812 l 316 812 l 316 566 l 731 566 l 731 372 l 316 372 l 316 0 l 76 0 z "},"Ḟ":{"ha":815,"x_min":76,"x_max":772,"o":"m 76 0 l 76 1010 l 772 1010 l 772 812 l 316 812 l 316 566 l 731 566 l 731 372 l 316 372 l 316 0 l 76 0 m 425 1095 q 336 1128 372 1095 q 300 1210 300 1162 q 336 1292 300 1259 q 425 1325 372 1325 q 512 1292 476 1325 q 548 1210 548 1259 q 512 1128 548 1162 q 425 1095 476 1095 z "},"Ⅎ":{"ha":815,"x_min":43,"x_max":740,"o":"m 740 1010 l 740 0 l 43 0 l 43 198 l 500 198 l 500 445 l 85 445 l 85 638 l 500 638 l 500 1010 l 740 1010 z "},"G":{"ha":1040,"x_min":52,"x_max":985,"o":"m 537 -14 q 283 49 392 -14 q 113 228 174 112 q 52 504 52 345 q 116 786 52 669 q 289 963 180 902 q 534 1025 399 1025 q 697 1000 621 1025 q 832 928 773 975 q 928 818 892 882 q 974 677 965 754 l 730 677 q 706 735 723 709 q 665 778 689 760 q 609 805 640 795 q 539 814 577 814 q 410 778 465 814 q 326 672 355 741 q 296 506 296 604 q 325 339 296 408 q 409 233 354 270 q 541 197 463 197 q 655 219 608 197 q 727 283 702 241 q 751 380 751 324 l 799 374 l 549 374 l 549 551 l 985 551 l 985 417 q 927 187 985 283 q 769 38 869 90 q 537 -14 668 -14 z "},"Ǥ":{"ha":1040,"x_min":52,"x_max":1057,"o":"m 537 -14 q 283 49 392 -14 q 113 228 174 112 q 52 504 52 345 q 116 786 52 669 q 289 963 180 902 q 534 1025 399 1025 q 697 1000 621 1025 q 832 928 773 975 q 928 818 892 882 q 974 677 965 754 l 730 677 q 706 735 723 709 q 665 778 689 760 q 609 805 640 795 q 539 814 577 814 q 410 778 465 814 q 326 672 355 741 q 296 506 296 604 q 325 339 296 408 q 409 233 354 270 q 541 197 463 197 q 655 219 608 197 q 727 283 702 241 q 751 380 751 324 l 799 374 l 549 374 l 549 551 l 985 551 l 985 417 q 927 187 985 283 q 769 38 869 90 q 537 -14 668 -14 m 549 251 l 549 323 l 1057 323 l 1057 251 l 549 251 z "},"Ɠ":{"ha":1040,"x_min":52,"x_max":1124,"o":"m 741 677 l 741 909 q 806 1082 741 1024 q 1004 1141 871 1141 q 1070 1138 1039 1141 q 1124 1130 1101 1135 l 1124 960 q 1089 963 1107 962 q 1052 964 1071 964 q 992 951 1010 964 q 974 906 974 937 l 974 677 l 741 677 m 537 -14 q 283 49 392 -14 q 113 228 174 112 q 52 504 52 345 q 116 786 52 669 q 289 963 180 902 q 534 1025 399 1025 q 697 1000 621 1025 q 832 928 773 975 q 928 818 892 882 q 974 677 965 754 l 730 677 q 706 735 723 709 q 665 778 689 760 q 609 805 640 795 q 539 814 577 814 q 410 778 465 814 q 326 672 355 741 q 296 506 296 604 q 325 339 296 408 q 409 233 354 270 q 541 197 463 197 q 655 219 608 197 q 727 283 702 241 q 751 380 751 324 l 799 374 l 549 374 l 549 551 l 985 551 l 985 417 q 927 187 985 283 q 769 38 869 90 q 537 -14 668 -14 z "},"Ĝ":{"ha":1040,"x_min":52,"x_max":985,"o":"m 537 -14 q 283 49 392 -14 q 113 228 174 112 q 52 504 52 345 q 116 786 52 669 q 289 963 180 902 q 534 1025 399 1025 q 697 1000 621 1025 q 832 928 773 975 q 928 818 892 882 q 974 677 965 754 l 730 677 q 706 735 723 709 q 665 778 689 760 q 609 805 640 795 q 539 814 577 814 q 410 778 465 814 q 326 672 355 741 q 296 506 296 604 q 325 339 296 408 q 409 233 354 270 q 541 197 463 197 q 655 219 608 197 q 727 283 702 241 q 751 380 751 324 l 799 374 l 549 374 l 549 551 l 985 551 l 985 417 q 927 187 985 283 q 769 38 869 90 q 537 -14 668 -14 m 433 1107 l 239 1107 l 239 1111 l 440 1320 l 614 1320 l 816 1111 l 816 1107 l 622 1107 l 527 1220 l 433 1107 z "},"Ğ":{"ha":1040,"x_min":52,"x_max":985,"o":"m 537 -14 q 283 49 392 -14 q 113 228 174 112 q 52 504 52 345 q 116 786 52 669 q 289 963 180 902 q 534 1025 399 1025 q 697 1000 621 1025 q 832 928 773 975 q 928 818 892 882 q 974 677 965 754 l 730 677 q 706 735 723 709 q 665 778 689 760 q 609 805 640 795 q 539 814 577 814 q 410 778 465 814 q 326 672 355 741 q 296 506 296 604 q 325 339 296 408 q 409 233 354 270 q 541 197 463 197 q 655 219 608 197 q 727 283 702 241 q 751 380 751 324 l 799 374 l 549 374 l 549 551 l 985 551 l 985 417 q 927 187 985 283 q 769 38 869 90 q 537 -14 668 -14 m 528 1097 q 400 1126 456 1097 q 311 1205 344 1156 q 278 1316 278 1255 l 410 1316 q 444 1246 410 1274 q 528 1218 477 1218 q 611 1246 577 1218 q 644 1316 644 1274 l 777 1316 q 744 1205 777 1255 q 654 1126 711 1156 q 528 1097 598 1097 z "},"Ġ":{"ha":1040,"x_min":52,"x_max":985,"o":"m 537 -14 q 283 49 392 -14 q 113 228 174 112 q 52 504 52 345 q 116 786 52 669 q 289 963 180 902 q 534 1025 399 1025 q 697 1000 621 1025 q 832 928 773 975 q 928 818 892 882 q 974 677 965 754 l 730 677 q 706 735 723 709 q 665 778 689 760 q 609 805 640 795 q 539 814 577 814 q 410 778 465 814 q 326 672 355 741 q 296 506 296 604 q 325 339 296 408 q 409 233 354 270 q 541 197 463 197 q 655 219 608 197 q 727 283 702 241 q 751 380 751 324 l 799 374 l 549 374 l 549 551 l 985 551 l 985 417 q 927 187 985 283 q 769 38 869 90 q 537 -14 668 -14 m 528 1095 q 439 1128 475 1095 q 404 1210 404 1162 q 439 1292 404 1259 q 528 1325 475 1325 q 615 1292 579 1325 q 651 1210 651 1259 q 615 1128 651 1162 q 528 1095 579 1095 z "},"Ģ":{"ha":1040,"x_min":52,"x_max":985,"o":"m 537 -14 q 283 49 392 -14 q 113 228 174 112 q 52 504 52 345 q 116 786 52 669 q 289 963 180 902 q 534 1025 399 1025 q 697 1000 621 1025 q 832 928 773 975 q 928 818 892 882 q 974 677 965 754 l 730 677 q 706 735 723 709 q 665 778 689 760 q 609 805 640 795 q 539 814 577 814 q 410 778 465 814 q 326 672 355 741 q 296 506 296 604 q 325 339 296 408 q 409 233 354 270 q 541 197 463 197 q 655 219 608 197 q 727 283 702 241 q 751 380 751 324 l 799 374 l 549 374 l 549 551 l 985 551 l 985 417 q 927 187 985 283 q 769 38 869 90 q 537 -14 668 -14 m 356 -321 l 418 -80 l 634 -80 l 519 -321 l 356 -321 z "},"Ǧ":{"ha":1040,"x_min":52,"x_max":985,"o":"m 537 -14 q 283 49 392 -14 q 113 228 174 112 q 52 504 52 345 q 116 786 52 669 q 289 963 180 902 q 534 1025 399 1025 q 697 1000 621 1025 q 832 928 773 975 q 928 818 892 882 q 974 677 965 754 l 730 677 q 706 735 723 709 q 665 778 689 760 q 609 805 640 795 q 539 814 577 814 q 410 778 465 814 q 326 672 355 741 q 296 506 296 604 q 325 339 296 408 q 409 233 354 270 q 541 197 463 197 q 655 219 608 197 q 727 283 702 241 q 751 380 751 324 l 799 374 l 549 374 l 549 551 l 985 551 l 985 417 q 927 187 985 283 q 769 38 869 90 q 537 -14 668 -14 m 433 1320 l 527 1206 l 622 1320 l 816 1320 l 816 1316 l 614 1107 l 440 1107 l 239 1316 l 239 1320 l 433 1320 z "},"Ǵ":{"ha":1040,"x_min":52,"x_max":985,"o":"m 537 -14 q 283 49 392 -14 q 113 228 174 112 q 52 504 52 345 q 116 786 52 669 q 289 963 180 902 q 534 1025 399 1025 q 697 1000 621 1025 q 832 928 773 975 q 928 818 892 882 q 974 677 965 754 l 730 677 q 706 735 723 709 q 665 778 689 760 q 609 805 640 795 q 539 814 577 814 q 410 778 465 814 q 326 672 355 741 q 296 506 296 604 q 325 339 296 408 q 409 233 354 270 q 541 197 463 197 q 655 219 608 197 q 727 283 702 241 q 751 380 751 324 l 799 374 l 549 374 l 549 551 l 985 551 l 985 417 q 927 187 985 283 q 769 38 869 90 q 537 -14 668 -14 m 443 1103 l 545 1320 l 757 1320 l 603 1103 l 443 1103 z "},"Ḡ":{"ha":1040,"x_min":52,"x_max":985,"o":"m 537 -14 q 283 49 392 -14 q 113 228 174 112 q 52 504 52 345 q 116 786 52 669 q 289 963 180 902 q 534 1025 399 1025 q 697 1000 621 1025 q 832 928 773 975 q 928 818 892 882 q 974 677 965 754 l 730 677 q 706 735 723 709 q 665 778 689 760 q 609 805 640 795 q 539 814 577 814 q 410 778 465 814 q 326 672 355 741 q 296 506 296 604 q 325 339 296 408 q 409 233 354 270 q 541 197 463 197 q 655 219 608 197 q 727 283 702 241 q 751 380 751 324 l 799 374 l 549 374 l 549 551 l 985 551 l 985 417 q 927 187 985 283 q 769 38 869 90 q 537 -14 668 -14 m 728 1280 l 728 1138 l 328 1138 l 328 1280 l 728 1280 z "},"":{"ha":1053,"x_min":52,"x_max":985,"o":"m 509 -14 q 277 49 381 -14 q 113 228 174 112 q 52 504 52 345 q 116 786 52 669 q 289 963 180 902 q 534 1025 399 1025 q 697 1000 621 1025 q 832 928 773 975 q 928 818 892 882 q 974 677 965 754 l 730 677 q 706 735 723 709 q 665 778 689 760 q 609 805 640 795 q 539 814 577 814 q 410 778 465 814 q 326 672 355 741 q 296 506 296 604 q 326 339 296 408 q 410 233 355 270 q 543 197 465 197 q 655 220 609 197 q 727 285 702 243 q 752 384 752 327 l 821 384 l 821 309 q 802 180 821 239 q 746 78 784 121 q 649 10 707 34 q 509 -14 590 -14 m 832 0 l 802 231 l 802 374 l 549 374 l 549 551 l 985 551 l 985 0 l 832 0 z "},"":{"ha":1053,"x_min":52,"x_max":1057,"o":"m 509 -14 q 277 49 381 -14 q 113 228 174 112 q 52 504 52 345 q 116 786 52 669 q 289 963 180 902 q 534 1025 399 1025 q 697 1000 621 1025 q 832 928 773 975 q 928 818 892 882 q 974 677 965 754 l 730 677 q 706 735 723 709 q 665 778 689 760 q 609 805 640 795 q 539 814 577 814 q 410 778 465 814 q 326 672 355 741 q 296 506 296 604 q 326 339 296 408 q 410 233 355 270 q 543 197 465 197 q 655 220 609 197 q 727 285 702 243 q 752 384 752 327 l 821 384 l 821 309 q 802 180 821 239 q 746 78 784 121 q 649 10 707 34 q 509 -14 590 -14 m 832 0 l 802 231 l 802 374 l 549 374 l 549 551 l 985 551 l 985 0 l 832 0 m 549 251 l 549 323 l 1057 323 l 1057 251 l 549 251 z "},"":{"ha":1053,"x_min":52,"x_max":1124,"o":"m 741 677 l 741 909 q 806 1082 741 1024 q 1004 1141 871 1141 q 1070 1138 1039 1141 q 1124 1130 1101 1135 l 1124 960 q 1089 963 1107 962 q 1052 964 1071 964 q 992 951 1010 964 q 974 906 974 937 l 974 677 l 741 677 m 509 -14 q 277 49 381 -14 q 113 228 174 112 q 52 504 52 345 q 116 786 52 669 q 289 963 180 902 q 534 1025 399 1025 q 697 1000 621 1025 q 832 928 773 975 q 928 818 892 882 q 974 677 965 754 l 730 677 q 706 735 723 709 q 665 778 689 760 q 609 805 640 795 q 539 814 577 814 q 410 778 465 814 q 326 672 355 741 q 296 506 296 604 q 326 339 296 408 q 410 233 355 270 q 543 197 465 197 q 655 220 609 197 q 727 285 702 243 q 752 384 752 327 l 821 384 l 821 309 q 802 180 821 239 q 746 78 784 121 q 649 10 707 34 q 509 -14 590 -14 m 832 0 l 802 231 l 802 374 l 549 374 l 549 551 l 985 551 l 985 0 l 832 0 z "},"":{"ha":1053,"x_min":52,"x_max":985,"o":"m 509 -14 q 277 49 381 -14 q 113 228 174 112 q 52 504 52 345 q 116 786 52 669 q 289 963 180 902 q 534 1025 399 1025 q 697 1000 621 1025 q 832 928 773 975 q 928 818 892 882 q 974 677 965 754 l 730 677 q 706 735 723 709 q 665 778 689 760 q 609 805 640 795 q 539 814 577 814 q 410 778 465 814 q 326 672 355 741 q 296 506 296 604 q 326 339 296 408 q 410 233 355 270 q 543 197 465 197 q 655 220 609 197 q 727 285 702 243 q 752 384 752 327 l 821 384 l 821 309 q 802 180 821 239 q 746 78 784 121 q 649 10 707 34 q 509 -14 590 -14 m 832 0 l 802 231 l 802 374 l 549 374 l 549 551 l 985 551 l 985 0 l 832 0 m 433 1107 l 239 1107 l 239 1111 l 440 1320 l 614 1320 l 816 1111 l 816 1107 l 622 1107 l 527 1220 l 433 1107 z "},"":{"ha":1053,"x_min":52,"x_max":985,"o":"m 509 -14 q 277 49 381 -14 q 113 228 174 112 q 52 504 52 345 q 116 786 52 669 q 289 963 180 902 q 534 1025 399 1025 q 697 1000 621 1025 q 832 928 773 975 q 928 818 892 882 q 974 677 965 754 l 730 677 q 706 735 723 709 q 665 778 689 760 q 609 805 640 795 q 539 814 577 814 q 410 778 465 814 q 326 672 355 741 q 296 506 296 604 q 326 339 296 408 q 410 233 355 270 q 543 197 465 197 q 655 220 609 197 q 727 285 702 243 q 752 384 752 327 l 821 384 l 821 309 q 802 180 821 239 q 746 78 784 121 q 649 10 707 34 q 509 -14 590 -14 m 832 0 l 802 231 l 802 374 l 549 374 l 549 551 l 985 551 l 985 0 l 832 0 m 528 1097 q 400 1126 456 1097 q 311 1205 344 1156 q 278 1316 278 1255 l 410 1316 q 444 1246 410 1274 q 528 1218 477 1218 q 611 1246 577 1218 q 644 1316 644 1274 l 777 1316 q 744 1205 777 1255 q 654 1126 711 1156 q 528 1097 598 1097 z "},"":{"ha":1053,"x_min":52,"x_max":985,"o":"m 509 -14 q 277 49 381 -14 q 113 228 174 112 q 52 504 52 345 q 116 786 52 669 q 289 963 180 902 q 534 1025 399 1025 q 697 1000 621 1025 q 832 928 773 975 q 928 818 892 882 q 974 677 965 754 l 730 677 q 706 735 723 709 q 665 778 689 760 q 609 805 640 795 q 539 814 577 814 q 410 778 465 814 q 326 672 355 741 q 296 506 296 604 q 326 339 296 408 q 410 233 355 270 q 543 197 465 197 q 655 220 609 197 q 727 285 702 243 q 752 384 752 327 l 821 384 l 821 309 q 802 180 821 239 q 746 78 784 121 q 649 10 707 34 q 509 -14 590 -14 m 832 0 l 802 231 l 802 374 l 549 374 l 549 551 l 985 551 l 985 0 l 832 0 m 528 1095 q 439 1128 475 1095 q 404 1210 404 1162 q 439 1292 404 1259 q 528 1325 475 1325 q 615 1292 579 1325 q 651 1210 651 1259 q 615 1128 651 1162 q 528 1095 579 1095 z "},"":{"ha":1053,"x_min":52,"x_max":985,"o":"m 509 -14 q 277 49 381 -14 q 113 228 174 112 q 52 504 52 345 q 116 786 52 669 q 289 963 180 902 q 534 1025 399 1025 q 697 1000 621 1025 q 832 928 773 975 q 928 818 892 882 q 974 677 965 754 l 730 677 q 706 735 723 709 q 665 778 689 760 q 609 805 640 795 q 539 814 577 814 q 410 778 465 814 q 326 672 355 741 q 296 506 296 604 q 326 339 296 408 q 410 233 355 270 q 543 197 465 197 q 655 220 609 197 q 727 285 702 243 q 752 384 752 327 l 821 384 l 821 309 q 802 180 821 239 q 746 78 784 121 q 649 10 707 34 q 509 -14 590 -14 m 832 0 l 802 231 l 802 374 l 549 374 l 549 551 l 985 551 l 985 0 l 832 0 m 357 -321 l 419 -80 l 635 -80 l 519 -321 l 357 -321 z "},"":{"ha":1053,"x_min":52,"x_max":985,"o":"m 509 -14 q 277 49 381 -14 q 113 228 174 112 q 52 504 52 345 q 116 786 52 669 q 289 963 180 902 q 534 1025 399 1025 q 697 1000 621 1025 q 832 928 773 975 q 928 818 892 882 q 974 677 965 754 l 730 677 q 706 735 723 709 q 665 778 689 760 q 609 805 640 795 q 539 814 577 814 q 410 778 465 814 q 326 672 355 741 q 296 506 296 604 q 326 339 296 408 q 410 233 355 270 q 543 197 465 197 q 655 220 609 197 q 727 285 702 243 q 752 384 752 327 l 821 384 l 821 309 q 802 180 821 239 q 746 78 784 121 q 649 10 707 34 q 509 -14 590 -14 m 832 0 l 802 231 l 802 374 l 549 374 l 549 551 l 985 551 l 985 0 l 832 0 m 433 1320 l 527 1206 l 622 1320 l 816 1320 l 816 1316 l 614 1107 l 440 1107 l 239 1316 l 239 1320 l 433 1320 z "},"":{"ha":1053,"x_min":52,"x_max":985,"o":"m 509 -14 q 277 49 381 -14 q 113 228 174 112 q 52 504 52 345 q 116 786 52 669 q 289 963 180 902 q 534 1025 399 1025 q 697 1000 621 1025 q 832 928 773 975 q 928 818 892 882 q 974 677 965 754 l 730 677 q 706 735 723 709 q 665 778 689 760 q 609 805 640 795 q 539 814 577 814 q 410 778 465 814 q 326 672 355 741 q 296 506 296 604 q 326 339 296 408 q 410 233 355 270 q 543 197 465 197 q 655 220 609 197 q 727 285 702 243 q 752 384 752 327 l 821 384 l 821 309 q 802 180 821 239 q 746 78 784 121 q 649 10 707 34 q 509 -14 590 -14 m 832 0 l 802 231 l 802 374 l 549 374 l 549 551 l 985 551 l 985 0 l 832 0 m 443 1103 l 545 1320 l 757 1320 l 603 1103 l 443 1103 z "},"":{"ha":1053,"x_min":52,"x_max":985,"o":"m 509 -14 q 277 49 381 -14 q 113 228 174 112 q 52 504 52 345 q 116 786 52 669 q 289 963 180 902 q 534 1025 399 1025 q 697 1000 621 1025 q 832 928 773 975 q 928 818 892 882 q 974 677 965 754 l 730 677 q 706 735 723 709 q 665 778 689 760 q 609 805 640 795 q 539 814 577 814 q 410 778 465 814 q 326 672 355 741 q 296 506 296 604 q 326 339 296 408 q 410 233 355 270 q 543 197 465 197 q 655 220 609 197 q 727 285 702 243 q 752 384 752 327 l 821 384 l 821 309 q 802 180 821 239 q 746 78 784 121 q 649 10 707 34 q 509 -14 590 -14 m 832 0 l 802 231 l 802 374 l 549 374 l 549 551 l 985 551 l 985 0 l 832 0 m 728 1280 l 728 1138 l 328 1138 l 328 1280 l 728 1280 z "},"H":{"ha":1031,"x_min":76,"x_max":956,"o":"m 76 0 l 76 1010 l 316 1010 l 316 615 l 715 615 l 715 1010 l 956 1010 l 956 0 l 715 0 l 715 417 l 316 417 l 316 0 l 76 0 z "},"Ḩ":{"ha":1031,"x_min":76,"x_max":956,"o":"m 76 0 l 76 1010 l 316 1010 l 316 615 l 715 615 l 715 1010 l 956 1010 l 956 0 l 715 0 l 715 417 l 316 417 l 316 0 l 76 0 m 103 -283 l 103 -198 l 191 -198 q 234 -189 220 -198 q 248 -158 248 -179 q 234 -127 248 -137 q 191 -118 220 -118 l 127 -118 l 154 28 l 238 28 l 238 0 l 234 -58 q 333 -83 297 -54 q 368 -165 368 -113 q 329 -255 368 -227 q 204 -283 289 -283 l 103 -283 z "},"Ĥ":{"ha":1031,"x_min":76,"x_max":956,"o":"m 76 0 l 76 1010 l 316 1010 l 316 615 l 715 615 l 715 1010 l 956 1010 l 956 0 l 715 0 l 715 417 l 316 417 l 316 0 l 76 0 m 421 1107 l 227 1107 l 227 1111 l 428 1320 l 602 1320 l 804 1111 l 804 1107 l 610 1107 l 515 1220 l 421 1107 z "},"Ȟ":{"ha":1031,"x_min":76,"x_max":956,"o":"m 76 0 l 76 1010 l 316 1010 l 316 615 l 715 615 l 715 1010 l 956 1010 l 956 0 l 715 0 l 715 417 l 316 417 l 316 0 l 76 0 m 421 1320 l 515 1206 l 610 1320 l 804 1320 l 804 1316 l 602 1107 l 428 1107 l 227 1316 l 227 1320 l 421 1320 z "},"Ḣ":{"ha":1031,"x_min":76,"x_max":956,"o":"m 76 0 l 76 1010 l 316 1010 l 316 615 l 715 615 l 715 1010 l 956 1010 l 956 0 l 715 0 l 715 417 l 316 417 l 316 0 l 76 0 m 515 1095 q 427 1128 463 1095 q 391 1210 391 1162 q 427 1292 391 1259 q 515 1325 463 1325 q 603 1292 567 1325 q 639 1210 639 1259 q 603 1128 639 1162 q 515 1095 567 1095 z "},"Ḥ":{"ha":1031,"x_min":76,"x_max":956,"o":"m 76 0 l 76 1010 l 316 1010 l 316 615 l 715 615 l 715 1010 l 956 1010 l 956 0 l 715 0 l 715 417 l 316 417 l 316 0 l 76 0 m 516 -319 q 428 -286 464 -319 q 392 -205 392 -253 q 428 -123 392 -156 q 516 -90 464 -90 q 604 -123 568 -90 q 640 -205 640 -156 q 604 -286 640 -253 q 516 -319 568 -319 z "},"Ḧ":{"ha":1031,"x_min":76,"x_max":956,"o":"m 76 0 l 76 1010 l 316 1010 l 316 615 l 715 615 l 715 1010 l 956 1010 l 956 0 l 715 0 l 715 417 l 316 417 l 316 0 l 76 0 m 669 1101 q 589 1133 622 1101 q 556 1211 556 1165 q 589 1288 556 1256 q 669 1319 622 1319 q 749 1288 716 1319 q 782 1211 782 1256 q 749 1133 782 1165 q 669 1101 716 1101 m 361 1101 q 281 1133 314 1101 q 249 1211 249 1165 q 282 1288 249 1256 q 361 1319 315 1319 q 442 1288 409 1319 q 475 1211 475 1256 q 442 1133 475 1165 q 361 1101 409 1101 z "},"Ḫ":{"ha":1031,"x_min":76,"x_max":956,"o":"m 76 0 l 76 1010 l 316 1010 l 316 615 l 715 615 l 715 1010 l 956 1010 l 956 0 l 715 0 l 715 417 l 316 417 l 316 0 l 76 0 m 516 -317 q 389 -288 445 -317 q 299 -210 332 -259 q 267 -99 267 -160 l 398 -99 q 432 -169 398 -140 q 516 -197 466 -197 q 599 -169 566 -197 q 633 -99 633 -140 l 765 -99 q 732 -210 765 -160 q 643 -288 699 -259 q 516 -317 587 -317 z "},"Ħ":{"ha":1131,"x_min":41,"x_max":1090,"o":"m 1090 845 l 1090 722 l 41 722 l 41 845 l 1090 845 m 125 0 l 125 1010 l 365 1010 l 365 615 l 764 615 l 764 1010 l 1004 1010 l 1004 0 l 764 0 l 764 417 l 365 417 l 365 0 l 125 0 z "},"Ӈ":{"ha":1031,"x_min":76,"x_max":956,"o":"m 569 -283 l 569 -102 q 605 -105 586 -104 q 642 -106 623 -106 q 699 -93 683 -106 q 715 -48 715 -79 l 715 85 l 956 85 l 956 -62 q 889 -235 956 -177 q 690 -294 822 -294 q 624 -291 655 -294 q 569 -283 593 -288 m 76 0 l 76 1010 l 316 1010 l 316 615 l 715 615 l 715 1010 l 956 1010 l 956 0 l 715 0 l 715 417 l 316 417 l 316 0 l 76 0 z "},"Ң":{"ha":1077,"x_min":76,"x_max":1067,"o":"m 76 0 l 76 1010 l 316 1010 l 316 615 l 715 615 l 715 1010 l 956 1010 l 956 0 l 715 0 l 715 417 l 316 417 l 316 0 l 76 0 m 826 -217 l 826 0 l 764 0 l 764 187 l 1066 187 l 1054 -217 l 826 -217 z "},"Ӊ":{"ha":1031,"x_min":76,"x_max":1083,"o":"m 76 0 l 76 1010 l 316 1010 l 316 615 l 715 615 l 715 1010 l 956 1010 l 956 0 l 715 0 l 715 417 l 316 417 l 316 0 l 76 0 m 741 -217 l 810 0 l 750 0 l 750 182 l 1082 182 l 956 -217 l 741 -217 z "},"Ҥ":{"ha":1399,"x_min":76,"x_max":1358,"o":"m 1358 1010 l 1358 817 l 917 817 l 720 1010 l 1358 1010 m 76 0 l 76 1010 l 316 1010 l 316 615 l 715 615 l 715 1010 l 956 1010 l 956 0 l 715 0 l 715 417 l 316 417 l 316 0 l 76 0 z "},"Ƕ":{"ha":1548,"x_min":76,"x_max":1473,"o":"m 1095 -14 q 895 28 980 -14 q 762 148 809 70 q 715 334 715 226 l 715 408 l 316 408 l 316 0 l 76 0 l 76 1010 l 316 1010 l 316 606 l 715 606 l 715 1010 l 956 1010 l 956 337 q 972 254 956 288 q 1021 201 989 219 q 1096 184 1053 184 q 1170 201 1139 184 q 1218 254 1201 219 q 1234 337 1234 288 l 1234 728 l 1472 728 l 1472 334 q 1427 148 1473 226 q 1295 28 1380 70 q 1095 -14 1211 -14 z "},"Η":{"ha":1031,"x_min":76,"x_max":956,"o":"m 76 0 l 76 1010 l 316 1010 l 316 615 l 715 615 l 715 1010 l 956 1010 l 956 0 l 715 0 l 715 417 l 316 417 l 316 0 l 76 0 z "},"Ή":{"ha":1310,"x_min":41,"x_max":1234,"o":"m 355 0 l 355 1010 l 595 1010 l 595 615 l 994 615 l 994 1010 l 1234 1010 l 1234 0 l 994 0 l 994 417 l 595 417 l 595 0 l 355 0 m 41 794 l 64 1010 l 267 1010 l 177 794 l 41 794 z "},"Ἠ":{"ha":1298,"x_min":41,"x_max":1222,"o":"m 342 0 l 342 1010 l 583 1010 l 583 615 l 982 615 l 982 1010 l 1222 1010 l 1222 0 l 982 0 l 982 417 l 583 417 l 583 0 l 342 0 m 72 788 l 63 788 l 63 848 l 73 848 q 127 858 109 848 q 145 888 145 867 q 129 915 145 906 q 81 924 113 924 l 41 924 l 41 1026 l 72 1026 q 210 994 161 1026 q 258 905 258 962 q 210 818 258 848 q 72 788 161 788 z "},"Ἡ":{"ha":1314,"x_min":41,"x_max":1238,"o":"m 359 0 l 359 1010 l 599 1010 l 599 615 l 998 615 l 998 1010 l 1238 1010 l 1238 0 l 998 0 l 998 417 l 599 417 l 599 0 l 359 0 m 228 777 q 90 807 139 777 q 41 894 41 837 q 90 983 41 951 q 228 1015 138 1015 l 258 1015 l 258 913 l 219 913 q 171 904 186 913 q 155 876 155 895 q 173 846 155 856 q 226 836 191 836 l 237 836 l 237 777 l 228 777 z "},"Ἢ":{"ha":1563,"x_min":41,"x_max":1487,"o":"m 607 0 l 607 1010 l 847 1010 l 847 615 l 1246 615 l 1246 1010 l 1487 1010 l 1487 0 l 1246 0 l 1246 417 l 847 417 l 847 0 l 607 0 m 72 777 l 63 777 l 63 836 l 73 836 q 127 846 109 836 q 145 876 145 856 q 129 904 145 895 q 81 913 113 913 l 41 913 l 41 1015 l 72 1015 q 210 983 161 1015 q 258 894 258 951 q 210 807 258 837 q 72 777 161 777 m 478 785 l 359 785 l 279 1010 l 458 1010 l 478 785 z "},"Ἣ":{"ha":1593,"x_min":41,"x_max":1517,"o":"m 637 0 l 637 1010 l 878 1010 l 878 615 l 1277 615 l 1277 1010 l 1517 1010 l 1517 0 l 1277 0 l 1277 417 l 878 417 l 878 0 l 637 0 m 228 777 q 90 807 139 777 q 41 894 41 837 q 90 983 41 951 q 228 1015 138 1015 l 258 1015 l 258 913 l 219 913 q 171 904 186 913 q 155 876 155 895 q 173 846 155 856 q 226 836 191 836 l 237 836 l 237 777 l 228 777 m 503 785 l 383 785 l 303 1010 l 483 1010 l 503 785 z "},"Ἤ":{"ha":1571,"x_min":41,"x_max":1496,"o":"m 616 0 l 616 1010 l 857 1010 l 857 615 l 1256 615 l 1256 1010 l 1496 1010 l 1496 0 l 1256 0 l 1256 417 l 857 417 l 857 0 l 616 0 m 72 777 l 63 777 l 63 836 l 73 836 q 127 846 109 836 q 145 876 145 856 q 129 904 145 895 q 81 913 113 913 l 41 913 l 41 1015 l 72 1015 q 210 983 161 1015 q 258 894 258 951 q 210 807 258 837 q 72 777 161 777 m 336 785 l 356 1010 l 536 1010 l 456 785 l 336 785 z "},"Ἥ":{"ha":1596,"x_min":41,"x_max":1521,"o":"m 642 0 l 642 1010 l 882 1010 l 882 615 l 1281 615 l 1281 1010 l 1521 1010 l 1521 0 l 1281 0 l 1281 417 l 882 417 l 882 0 l 642 0 m 228 777 q 90 807 139 777 q 41 894 41 837 q 90 983 41 951 q 228 1015 138 1015 l 258 1015 l 258 913 l 219 913 q 171 904 186 913 q 155 876 155 895 q 173 846 155 856 q 226 836 191 836 l 237 836 l 237 777 l 228 777 m 354 785 l 374 1010 l 553 1010 l 473 785 l 354 785 z "},"Ἦ":{"ha":1439,"x_min":41,"x_max":1363,"o":"m 484 0 l 484 1010 l 724 1010 l 724 615 l 1123 615 l 1123 1010 l 1363 1010 l 1363 0 l 1123 0 l 1123 417 l 724 417 l 724 0 l 484 0 m 210 789 l 201 789 l 201 849 l 212 849 q 266 859 248 849 q 283 888 283 869 q 267 917 283 907 q 219 926 251 926 l 180 926 l 180 1027 l 210 1027 q 348 996 300 1027 q 397 907 397 964 q 348 820 397 850 q 210 789 299 789 m 384 1085 q 323 1096 349 1085 q 278 1120 298 1106 q 242 1144 259 1133 q 208 1154 226 1154 q 175 1137 186 1154 q 161 1090 163 1120 l 41 1090 q 85 1222 43 1177 q 193 1267 127 1267 q 253 1258 227 1267 q 298 1234 278 1248 q 334 1210 317 1221 q 368 1200 351 1200 q 404 1216 393 1200 q 416 1265 415 1233 l 535 1265 q 491 1131 534 1177 q 384 1085 448 1085 z "},"Ἧ":{"ha":1460,"x_min":41,"x_max":1384,"o":"m 505 0 l 505 1010 l 745 1010 l 745 615 l 1144 615 l 1144 1010 l 1384 1010 l 1384 0 l 1144 0 l 1144 417 l 745 417 l 745 0 l 505 0 m 366 773 q 229 803 277 773 q 180 890 180 833 q 228 979 180 947 q 366 1011 277 1011 l 397 1011 l 397 909 l 357 909 q 309 900 326 909 q 293 872 293 891 q 311 843 293 852 q 364 833 329 833 l 375 833 l 375 773 l 366 773 m 384 1069 q 323 1079 349 1069 q 278 1103 298 1090 q 242 1127 259 1117 q 208 1138 226 1138 q 175 1121 186 1138 q 161 1074 163 1103 l 41 1074 q 85 1206 43 1161 q 193 1251 127 1251 q 253 1241 227 1251 q 298 1218 278 1232 q 334 1194 317 1204 q 368 1183 351 1183 q 404 1200 393 1183 q 416 1249 415 1217 l 535 1249 q 491 1115 534 1161 q 384 1069 448 1069 z "},"Ὴ":{"ha":1292,"x_min":-59,"x_max":1216,"o":"m 336 0 l 336 1010 l 576 1010 l 576 615 l 976 615 l 976 1010 l 1216 1010 l 1216 0 l 976 0 l 976 417 l 576 417 l 576 0 l 336 0 m 167 836 l 31 836 l -59 1053 l 144 1053 l 167 836 z "},"Ή":{"ha":1310,"x_min":41,"x_max":1234,"o":"m 355 0 l 355 1010 l 595 1010 l 595 615 l 994 615 l 994 1010 l 1234 1010 l 1234 0 l 994 0 l 994 417 l 595 417 l 595 0 l 355 0 m 41 794 l 64 1010 l 267 1010 l 177 794 l 41 794 z "},"Н":{"ha":1031,"x_min":76,"x_max":956,"o":"m 76 0 l 76 1010 l 316 1010 l 316 615 l 715 615 l 715 1010 l 956 1010 l 956 0 l 715 0 l 715 417 l 316 417 l 316 0 l 76 0 z "},"ᾘ":{"ha":1298,"x_min":41,"x_max":1222,"o":"m 342 0 l 342 1010 l 583 1010 l 583 615 l 982 615 l 982 1010 l 1222 1010 l 1222 0 l 982 0 l 982 417 l 583 417 l 583 0 l 342 0 m 833 -330 q 731 -295 764 -330 q 698 -200 698 -260 l 698 -80 l 865 -80 l 865 -189 q 872 -217 865 -209 q 903 -226 879 -226 q 916 -225 907 -226 q 936 -224 924 -225 l 936 -323 q 886 -328 916 -326 q 833 -330 857 -330 m 72 788 l 63 788 l 63 848 l 73 848 q 127 858 109 848 q 145 888 145 867 q 129 915 145 906 q 81 924 113 924 l 41 924 l 41 1026 l 72 1026 q 210 994 161 1026 q 258 905 258 962 q 210 818 258 848 q 72 788 161 788 z "},"ᾙ":{"ha":1314,"x_min":41,"x_max":1238,"o":"m 359 0 l 359 1010 l 599 1010 l 599 615 l 998 615 l 998 1010 l 1238 1010 l 1238 0 l 998 0 l 998 417 l 599 417 l 599 0 l 359 0 m 850 -330 q 748 -295 781 -330 q 715 -200 715 -260 l 715 -80 l 882 -80 l 882 -189 q 889 -217 882 -209 q 920 -226 896 -226 q 932 -225 924 -226 q 953 -224 941 -225 l 953 -323 q 903 -328 932 -326 q 850 -330 873 -330 m 228 777 q 90 807 139 777 q 41 894 41 837 q 90 983 41 951 q 228 1015 138 1015 l 258 1015 l 258 913 l 219 913 q 171 904 186 913 q 155 876 155 895 q 173 846 155 856 q 226 836 191 836 l 237 836 l 237 777 l 228 777 z "},"ᾚ":{"ha":1563,"x_min":41,"x_max":1487,"o":"m 607 0 l 607 1010 l 847 1010 l 847 615 l 1246 615 l 1246 1010 l 1487 1010 l 1487 0 l 1246 0 l 1246 417 l 847 417 l 847 0 l 607 0 m 1097 -330 q 996 -295 1029 -330 q 962 -200 962 -260 l 962 -80 l 1130 -80 l 1130 -189 q 1137 -217 1130 -209 q 1168 -226 1143 -226 q 1180 -225 1172 -226 q 1200 -224 1188 -225 l 1200 -323 q 1151 -328 1180 -326 q 1097 -330 1121 -330 m 72 777 l 63 777 l 63 836 l 73 836 q 127 846 109 836 q 145 876 145 856 q 129 904 145 895 q 81 913 113 913 l 41 913 l 41 1015 l 72 1015 q 210 983 161 1015 q 258 894 258 951 q 210 807 258 837 q 72 777 161 777 m 478 785 l 359 785 l 279 1010 l 458 1010 l 478 785 z "},"ᾛ":{"ha":1593,"x_min":41,"x_max":1517,"o":"m 637 0 l 637 1010 l 878 1010 l 878 615 l 1277 615 l 1277 1010 l 1517 1010 l 1517 0 l 1277 0 l 1277 417 l 878 417 l 878 0 l 637 0 m 1128 -330 q 1026 -295 1059 -330 q 993 -200 993 -260 l 993 -80 l 1160 -80 l 1160 -189 q 1167 -217 1160 -209 q 1198 -226 1174 -226 q 1211 -225 1202 -226 q 1231 -224 1219 -225 l 1231 -323 q 1181 -328 1211 -326 q 1128 -330 1152 -330 m 228 777 q 90 807 139 777 q 41 894 41 837 q 90 983 41 951 q 228 1015 138 1015 l 258 1015 l 258 913 l 219 913 q 171 904 186 913 q 155 876 155 895 q 173 846 155 856 q 226 836 191 836 l 237 836 l 237 777 l 228 777 m 503 785 l 383 785 l 303 1010 l 483 1010 l 503 785 z "},"ᾜ":{"ha":1571,"x_min":41,"x_max":1496,"o":"m 616 0 l 616 1010 l 857 1010 l 857 615 l 1256 615 l 1256 1010 l 1496 1010 l 1496 0 l 1256 0 l 1256 417 l 857 417 l 857 0 l 616 0 m 1107 -330 q 1005 -295 1038 -330 q 972 -200 972 -260 l 972 -80 l 1139 -80 l 1139 -189 q 1146 -217 1139 -209 q 1177 -226 1153 -226 q 1190 -225 1181 -226 q 1210 -224 1198 -225 l 1210 -323 q 1160 -328 1190 -326 q 1107 -330 1131 -330 m 72 777 l 63 777 l 63 836 l 73 836 q 127 846 109 836 q 145 876 145 856 q 129 904 145 895 q 81 913 113 913 l 41 913 l 41 1015 l 72 1015 q 210 983 161 1015 q 258 894 258 951 q 210 807 258 837 q 72 777 161 777 m 336 785 l 356 1010 l 536 1010 l 456 785 l 336 785 z "},"ᾝ":{"ha":1596,"x_min":41,"x_max":1521,"o":"m 642 0 l 642 1010 l 882 1010 l 882 615 l 1281 615 l 1281 1010 l 1521 1010 l 1521 0 l 1281 0 l 1281 417 l 882 417 l 882 0 l 642 0 m 1132 -330 q 1030 -295 1063 -330 q 997 -200 997 -260 l 997 -80 l 1164 -80 l 1164 -189 q 1171 -217 1164 -209 q 1202 -226 1178 -226 q 1215 -225 1206 -226 q 1235 -224 1223 -225 l 1235 -323 q 1185 -328 1215 -326 q 1132 -330 1156 -330 m 228 777 q 90 807 139 777 q 41 894 41 837 q 90 983 41 951 q 228 1015 138 1015 l 258 1015 l 258 913 l 219 913 q 171 904 186 913 q 155 876 155 895 q 173 846 155 856 q 226 836 191 836 l 237 836 l 237 777 l 228 777 m 354 785 l 374 1010 l 553 1010 l 473 785 l 354 785 z "},"ᾞ":{"ha":1439,"x_min":41,"x_max":1363,"o":"m 484 0 l 484 1010 l 724 1010 l 724 615 l 1123 615 l 1123 1010 l 1363 1010 l 1363 0 l 1123 0 l 1123 417 l 724 417 l 724 0 l 484 0 m 975 -330 q 873 -295 906 -330 q 840 -200 840 -260 l 840 -80 l 1007 -80 l 1007 -189 q 1014 -217 1007 -209 q 1045 -226 1021 -226 q 1057 -225 1049 -226 q 1078 -224 1065 -225 l 1078 -323 q 1028 -328 1057 -326 q 975 -330 998 -330 m 210 789 l 201 789 l 201 849 l 212 849 q 266 859 248 849 q 283 888 283 869 q 267 917 283 907 q 219 926 251 926 l 180 926 l 180 1027 l 210 1027 q 348 996 300 1027 q 397 907 397 964 q 348 820 397 850 q 210 789 299 789 m 384 1085 q 323 1096 349 1085 q 278 1120 298 1106 q 242 1144 259 1133 q 208 1154 226 1154 q 175 1137 186 1154 q 161 1090 163 1120 l 41 1090 q 85 1222 43 1177 q 193 1267 127 1267 q 253 1258 227 1267 q 298 1234 278 1248 q 334 1210 317 1221 q 368 1200 351 1200 q 404 1216 393 1200 q 416 1265 415 1233 l 535 1265 q 491 1131 534 1177 q 384 1085 448 1085 z "},"ᾟ":{"ha":1460,"x_min":41,"x_max":1384,"o":"m 505 0 l 505 1010 l 745 1010 l 745 615 l 1144 615 l 1144 1010 l 1384 1010 l 1384 0 l 1144 0 l 1144 417 l 745 417 l 745 0 l 505 0 m 996 -330 q 894 -295 927 -330 q 861 -200 861 -260 l 861 -80 l 1028 -80 l 1028 -189 q 1035 -217 1028 -209 q 1066 -226 1042 -226 q 1078 -225 1070 -226 q 1099 -224 1086 -225 l 1099 -323 q 1049 -328 1078 -326 q 996 -330 1019 -330 m 366 773 q 229 803 277 773 q 180 890 180 833 q 228 979 180 947 q 366 1011 277 1011 l 397 1011 l 397 909 l 357 909 q 309 900 326 909 q 293 872 293 891 q 311 843 293 852 q 364 833 329 833 l 375 833 l 375 773 l 366 773 m 384 1069 q 323 1079 349 1069 q 278 1103 298 1090 q 242 1127 259 1117 q 208 1138 226 1138 q 175 1121 186 1138 q 161 1074 163 1103 l 41 1074 q 85 1206 43 1161 q 193 1251 127 1251 q 253 1241 227 1251 q 298 1218 278 1232 q 334 1194 317 1204 q 368 1183 351 1183 q 404 1200 393 1183 q 416 1249 415 1217 l 535 1249 q 491 1115 534 1161 q 384 1069 448 1069 z "},"ῌ":{"ha":1031,"x_min":76,"x_max":956,"o":"m 76 0 l 76 1010 l 316 1010 l 316 615 l 715 615 l 715 1010 l 956 1010 l 956 0 l 715 0 l 715 417 l 316 417 l 316 0 l 76 0 m 566 -330 q 465 -295 498 -330 q 431 -200 431 -260 l 431 -80 l 599 -80 l 599 -189 q 606 -217 599 -209 q 637 -226 612 -226 q 649 -225 641 -226 q 669 -224 657 -225 l 669 -323 q 620 -328 649 -326 q 566 -330 590 -330 z "},"I":{"ha":392,"x_min":76,"x_max":316,"o":"m 316 1010 l 316 0 l 76 0 l 76 1010 l 316 1010 z "},"":{"ha":783,"x_min":76,"x_max":708,"o":"m 316 1010 l 316 0 l 76 0 l 76 1010 l 316 1010 m 708 1010 l 708 0 l 468 0 l 468 1010 l 708 1010 z "},"Ï":{"ha":392,"x_min":-70,"x_max":463,"o":"m 316 1010 l 316 0 l 76 0 l 76 1010 l 316 1010 m 350 1101 q 270 1133 303 1101 q 237 1211 237 1165 q 270 1288 237 1256 q 350 1319 303 1319 q 430 1288 397 1319 q 463 1211 463 1256 q 430 1133 463 1165 q 350 1101 397 1101 m 43 1101 q -37 1133 -5 1101 q -70 1211 -70 1165 q -37 1288 -70 1256 q 43 1319 -4 1319 q 123 1288 90 1319 q 156 1211 156 1256 q 123 1133 156 1165 q 43 1101 90 1101 z "},"Ḯ":{"ha":392,"x_min":-71,"x_max":462,"o":"m 316 1010 l 316 0 l 76 0 l 76 1010 l 316 1010 m 349 1086 q 269 1118 302 1086 q 236 1196 236 1150 q 269 1273 236 1241 q 349 1304 302 1304 q 429 1273 396 1304 q 462 1196 462 1241 q 429 1118 462 1149 q 349 1086 396 1086 m 41 1086 q -39 1118 -6 1086 q -71 1196 -71 1150 q -38 1273 -71 1241 q 41 1304 -5 1304 q 122 1273 89 1304 q 155 1196 155 1241 q 122 1118 155 1149 q 41 1086 89 1086 m 125 1353 l 213 1536 l 394 1536 l 260 1353 l 125 1353 z "},"Ɨ":{"ha":516,"x_min":7,"x_max":507,"o":"m 378 1010 l 378 0 l 138 0 l 138 1010 l 378 1010 m 7 489 l 7 573 l 507 573 l 507 489 l 7 489 z "},"Ḭ":{"ha":392,"x_min":-56,"x_max":447,"o":"m 316 1010 l 316 0 l 76 0 l 76 1010 l 316 1010 m 293 -301 q 232 -290 258 -301 q 185 -264 205 -279 q 149 -237 165 -249 q 115 -226 132 -226 q 80 -245 92 -226 q 66 -296 68 -264 l -56 -296 q -11 -152 -54 -201 q 98 -102 32 -102 q 159 -113 134 -102 q 205 -139 185 -124 q 242 -165 225 -154 q 277 -176 259 -176 q 314 -158 302 -176 q 326 -106 325 -140 l 447 -106 q 401 -251 446 -201 q 293 -301 357 -301 z "},"Ì":{"ha":392,"x_min":-33,"x_max":316,"o":"m 316 1010 l 316 0 l 76 0 l 76 1010 l 316 1010 m 121 1103 l -33 1320 l 179 1320 l 281 1103 l 121 1103 z "},"Í":{"ha":392,"x_min":76,"x_max":427,"o":"m 316 1010 l 316 0 l 76 0 l 76 1010 l 316 1010 m 113 1103 l 214 1320 l 427 1320 l 273 1103 l 113 1103 z "},"Î":{"ha":392,"x_min":-92,"x_max":485,"o":"m 316 1010 l 316 0 l 76 0 l 76 1010 l 316 1010 m 102 1107 l -92 1107 l -92 1111 l 109 1320 l 283 1320 l 485 1111 l 485 1107 l 291 1107 l 196 1220 l 102 1107 z "},"Ĩ":{"ha":392,"x_min":-54,"x_max":448,"o":"m 316 1010 l 316 0 l 76 0 l 76 1010 l 316 1010 m 294 1113 q 233 1124 259 1113 q 187 1150 207 1135 q 150 1177 167 1165 q 116 1188 134 1188 q 81 1169 94 1188 q 68 1118 69 1150 l -54 1118 q -9 1262 -52 1213 q 100 1312 33 1312 q 161 1301 135 1312 q 207 1275 186 1290 q 243 1249 227 1260 q 278 1238 260 1238 q 315 1256 304 1238 q 328 1308 326 1274 l 448 1308 q 403 1163 447 1213 q 294 1113 359 1113 z "},"Ī":{"ha":392,"x_min":-3,"x_max":396,"o":"m 316 1010 l 316 0 l 76 0 l 76 1010 l 316 1010 m 397 1280 l 397 1138 l -3 1138 l -3 1280 l 397 1280 z "},"Ĭ":{"ha":392,"x_min":-52,"x_max":446,"o":"m 316 1010 l 316 0 l 76 0 l 76 1010 l 316 1010 m 197 1097 q 69 1126 125 1097 q -20 1205 13 1156 q -53 1316 -53 1255 l 79 1316 q 113 1246 79 1274 q 197 1218 146 1218 q 280 1246 246 1218 q 313 1316 313 1274 l 446 1316 q 413 1205 446 1255 q 323 1126 380 1156 q 197 1097 267 1097 z "},"Į":{"ha":392,"x_min":5,"x_max":339,"o":"m 316 1010 l 316 0 l 76 0 l 76 1010 l 316 1010 m 196 -289 q 57 -250 109 -289 q 5 -142 5 -212 q 29 -54 5 -95 q 94 18 54 -12 l 316 0 q 235 -50 260 -24 q 210 -106 210 -76 q 222 -141 210 -129 q 258 -154 234 -154 q 282 -151 271 -154 q 304 -142 294 -148 l 339 -262 q 273 -281 313 -274 q 196 -289 234 -289 z "},"İ":{"ha":392,"x_min":73,"x_max":321,"o":"m 316 1010 l 316 0 l 76 0 l 76 1010 l 316 1010 m 197 1095 q 109 1128 144 1095 q 73 1210 73 1162 q 109 1292 73 1259 q 197 1325 144 1325 q 284 1292 248 1325 q 320 1210 320 1259 q 284 1128 320 1162 q 197 1095 248 1095 z "},"Ǐ":{"ha":392,"x_min":-92,"x_max":485,"o":"m 316 1010 l 316 0 l 76 0 l 76 1010 l 316 1010 m 102 1320 l 196 1206 l 291 1320 l 485 1320 l 485 1316 l 283 1107 l 109 1107 l -92 1316 l -92 1320 l 102 1320 z "},"Ȉ":{"ha":392,"x_min":-176,"x_max":403,"o":"m 316 1010 l 316 0 l 76 0 l 76 1010 l 316 1010 m 243 1103 l 127 1320 l 328 1320 l 404 1103 l 243 1103 m -2 1103 l -176 1320 l 41 1320 l 162 1103 l -2 1103 z "},"Ȋ":{"ha":392,"x_min":-54,"x_max":448,"o":"m 316 1010 l 316 0 l 76 0 l 76 1010 l 316 1010 m 197 1327 q 325 1298 269 1327 q 415 1219 382 1268 q 448 1107 448 1169 l 315 1107 q 281 1177 315 1149 q 197 1205 247 1205 q 112 1177 146 1205 q 77 1107 77 1149 l -54 1107 q -21 1219 -54 1169 q 68 1298 12 1268 q 197 1327 125 1327 z "},"Ỉ":{"ha":392,"x_min":58,"x_max":331,"o":"m 316 1010 l 316 0 l 76 0 l 76 1010 l 316 1010 m 258 1103 l 124 1103 l 177 1194 q 178 1202 180 1199 q 172 1204 177 1204 l 58 1204 l 58 1320 l 173 1320 q 272 1303 237 1320 q 319 1261 307 1287 q 324 1205 331 1235 q 296 1149 317 1176 l 258 1103 z "},"Ị":{"ha":392,"x_min":71,"x_max":319,"o":"m 316 1010 l 316 0 l 76 0 l 76 1010 l 316 1010 m 195 -319 q 107 -286 143 -319 q 71 -205 71 -253 q 107 -123 71 -156 q 195 -90 143 -90 q 283 -123 247 -90 q 319 -205 319 -156 q 283 -286 319 -253 q 195 -319 247 -319 z "},"Ɩ":{"ha":438,"x_min":75,"x_max":429,"o":"m 324 -3 q 135 48 195 -3 q 75 208 75 99 l 75 1010 l 311 1010 l 311 234 q 324 190 311 204 q 365 176 337 176 q 387 177 378 176 q 401 180 395 178 l 429 11 q 385 1 412 6 q 324 -3 358 -3 z "},"Ι":{"ha":392,"x_min":76,"x_max":316,"o":"m 316 1010 l 316 0 l 76 0 l 76 1010 l 316 1010 z "},"Ί":{"ha":670,"x_min":41,"x_max":595,"o":"m 595 1010 l 595 0 l 355 0 l 355 1010 l 595 1010 m 41 794 l 64 1010 l 267 1010 l 177 794 l 41 794 z "},"Ϊ":{"ha":392,"x_min":-70,"x_max":463,"o":"m 316 1010 l 316 0 l 76 0 l 76 1010 l 316 1010 m 350 1101 q 270 1133 303 1101 q 237 1211 237 1165 q 270 1288 237 1256 q 350 1319 303 1319 q 430 1288 397 1319 q 463 1211 463 1256 q 430 1133 463 1165 q 350 1101 397 1101 m 43 1101 q -37 1133 -5 1101 q -70 1211 -70 1165 q -37 1288 -70 1256 q 43 1319 -4 1319 q 123 1288 90 1319 q 156 1211 156 1256 q 123 1133 156 1165 q 43 1101 90 1101 z "},"Ἰ":{"ha":658,"x_min":41,"x_max":583,"o":"m 583 1010 l 583 0 l 342 0 l 342 1010 l 583 1010 m 72 788 l 63 788 l 63 848 l 73 848 q 127 858 109 848 q 145 888 145 867 q 129 915 145 906 q 81 924 113 924 l 41 924 l 41 1026 l 72 1026 q 210 994 161 1026 q 258 905 258 962 q 210 818 258 848 q 72 788 161 788 z "},"Ἱ":{"ha":675,"x_min":41,"x_max":599,"o":"m 599 1010 l 599 0 l 359 0 l 359 1010 l 599 1010 m 228 777 q 90 807 139 777 q 41 894 41 837 q 90 983 41 951 q 228 1015 138 1015 l 258 1015 l 258 913 l 219 913 q 171 904 186 913 q 155 876 155 895 q 173 846 155 856 q 226 836 191 836 l 237 836 l 237 777 l 228 777 z "},"Ἲ":{"ha":923,"x_min":41,"x_max":847,"o":"m 847 1010 l 847 0 l 607 0 l 607 1010 l 847 1010 m 72 777 l 63 777 l 63 836 l 73 836 q 127 846 109 836 q 145 876 145 856 q 129 904 145 895 q 81 913 113 913 l 41 913 l 41 1015 l 72 1015 q 210 983 161 1015 q 258 894 258 951 q 210 807 258 837 q 72 777 161 777 m 478 785 l 359 785 l 279 1010 l 458 1010 l 478 785 z "},"Ἳ":{"ha":954,"x_min":41,"x_max":878,"o":"m 878 1010 l 878 0 l 637 0 l 637 1010 l 878 1010 m 228 777 q 90 807 139 777 q 41 894 41 837 q 90 983 41 951 q 228 1015 138 1015 l 258 1015 l 258 913 l 219 913 q 171 904 186 913 q 155 876 155 895 q 173 846 155 856 q 226 836 191 836 l 237 836 l 237 777 l 228 777 m 503 785 l 383 785 l 303 1010 l 483 1010 l 503 785 z "},"Ἴ":{"ha":932,"x_min":41,"x_max":856,"o":"m 857 1010 l 857 0 l 616 0 l 616 1010 l 857 1010 m 72 777 l 63 777 l 63 836 l 73 836 q 127 846 109 836 q 145 876 145 856 q 129 904 145 895 q 81 913 113 913 l 41 913 l 41 1015 l 72 1015 q 210 983 161 1015 q 258 894 258 951 q 210 807 258 837 q 72 777 161 777 m 336 785 l 356 1010 l 536 1010 l 456 785 l 336 785 z "},"Ἵ":{"ha":957,"x_min":41,"x_max":882,"o":"m 882 1010 l 882 0 l 642 0 l 642 1010 l 882 1010 m 228 777 q 90 807 139 777 q 41 894 41 837 q 90 983 41 951 q 228 1015 138 1015 l 258 1015 l 258 913 l 219 913 q 171 904 186 913 q 155 876 155 895 q 173 846 155 856 q 226 836 191 836 l 237 836 l 237 777 l 228 777 m 354 785 l 374 1010 l 553 1010 l 473 785 l 354 785 z "},"Ἶ":{"ha":800,"x_min":41,"x_max":724,"o":"m 724 1010 l 724 0 l 484 0 l 484 1010 l 724 1010 m 210 789 l 201 789 l 201 849 l 212 849 q 266 859 248 849 q 283 888 283 869 q 267 917 283 907 q 219 926 251 926 l 180 926 l 180 1027 l 210 1027 q 348 996 300 1027 q 397 907 397 964 q 348 820 397 850 q 210 789 299 789 m 384 1085 q 323 1096 349 1085 q 278 1120 298 1106 q 242 1144 259 1133 q 208 1154 226 1154 q 175 1137 186 1154 q 161 1090 163 1120 l 41 1090 q 85 1222 43 1177 q 193 1267 127 1267 q 253 1258 227 1267 q 298 1234 278 1248 q 334 1210 317 1221 q 368 1200 351 1200 q 404 1216 393 1200 q 416 1265 415 1233 l 535 1265 q 491 1131 534 1177 q 384 1085 448 1085 z "},"Ἷ":{"ha":821,"x_min":41,"x_max":745,"o":"m 745 1010 l 745 0 l 505 0 l 505 1010 l 745 1010 m 366 773 q 229 803 277 773 q 180 890 180 833 q 228 979 180 947 q 366 1011 277 1011 l 397 1011 l 397 909 l 357 909 q 309 900 326 909 q 293 872 293 891 q 311 843 293 852 q 364 833 329 833 l 375 833 l 375 773 l 366 773 m 384 1069 q 323 1079 349 1069 q 278 1103 298 1090 q 242 1127 259 1117 q 208 1138 226 1138 q 175 1121 186 1138 q 161 1074 163 1103 l 41 1074 q 85 1206 43 1161 q 193 1251 127 1251 q 253 1241 227 1251 q 298 1218 278 1232 q 334 1194 317 1204 q 368 1183 351 1183 q 404 1200 393 1183 q 416 1249 415 1217 l 535 1249 q 491 1115 534 1161 q 384 1069 448 1069 z "},"Ῐ":{"ha":392,"x_min":-52,"x_max":446,"o":"m 316 1010 l 316 0 l 76 0 l 76 1010 l 316 1010 m 197 1097 q 69 1126 125 1097 q -20 1205 13 1156 q -53 1316 -53 1255 l 79 1316 q 113 1246 79 1274 q 197 1218 146 1218 q 280 1246 246 1218 q 313 1316 313 1274 l 446 1316 q 413 1205 446 1255 q 323 1126 380 1156 q 197 1097 267 1097 z "},"Ῑ":{"ha":392,"x_min":-3,"x_max":396,"o":"m 316 1010 l 316 0 l 76 0 l 76 1010 l 316 1010 m 397 1280 l 397 1138 l -3 1138 l -3 1280 l 397 1280 z "},"Ὶ":{"ha":652,"x_min":-59,"x_max":576,"o":"m 576 1010 l 576 0 l 336 0 l 336 1010 l 576 1010 m 167 836 l 31 836 l -59 1053 l 144 1053 l 167 836 z "},"Ί":{"ha":670,"x_min":41,"x_max":595,"o":"m 595 1010 l 595 0 l 355 0 l 355 1010 l 595 1010 m 41 794 l 64 1010 l 267 1010 l 177 794 l 41 794 z "},"І":{"ha":392,"x_min":76,"x_max":316,"o":"m 316 1010 l 316 0 l 76 0 l 76 1010 l 316 1010 z "},"Ї":{"ha":392,"x_min":-70,"x_max":463,"o":"m 316 1010 l 316 0 l 76 0 l 76 1010 l 316 1010 m 350 1101 q 270 1133 303 1101 q 237 1211 237 1165 q 270 1288 237 1256 q 350 1319 303 1319 q 430 1288 397 1319 q 463 1211 463 1256 q 430 1133 463 1165 q 350 1101 397 1101 m 43 1101 q -37 1133 -5 1101 q -70 1211 -70 1165 q -37 1288 -70 1256 q 43 1319 -4 1319 q 123 1288 90 1319 q 156 1211 156 1256 q 123 1133 156 1165 q 43 1101 90 1101 z "},"":{"ha":658,"x_min":43,"x_max":614,"o":"m 43 0 l 43 195 l 209 195 l 209 815 l 43 815 l 43 1010 l 614 1010 l 614 815 l 449 815 l 449 195 l 614 195 l 614 0 l 43 0 z "},"":{"ha":658,"x_min":43,"x_max":614,"o":"m 43 0 l 43 195 l 209 195 l 209 815 l 43 815 l 43 1010 l 614 1010 l 614 815 l 449 815 l 449 195 l 614 195 l 614 0 l 43 0 m 482 1101 q 402 1133 435 1101 q 370 1211 370 1165 q 402 1288 370 1256 q 482 1319 435 1319 q 563 1288 530 1319 q 595 1211 595 1256 q 563 1133 595 1165 q 482 1101 530 1101 m 175 1101 q 95 1133 127 1101 q 62 1211 62 1165 q 95 1288 62 1256 q 175 1319 128 1319 q 255 1288 222 1319 q 288 1211 288 1256 q 255 1133 288 1165 q 175 1101 222 1101 z "},"":{"ha":658,"x_min":43,"x_max":614,"o":"m 43 0 l 43 195 l 209 195 l 209 815 l 43 815 l 43 1010 l 614 1010 l 614 815 l 449 815 l 449 195 l 614 195 l 614 0 l 43 0 m 481 1086 q 401 1118 434 1086 q 368 1196 368 1150 q 401 1273 368 1241 q 481 1304 434 1304 q 561 1273 528 1304 q 594 1196 594 1241 q 561 1118 594 1149 q 481 1086 528 1086 m 174 1086 q 94 1118 126 1086 q 61 1196 61 1150 q 94 1273 61 1241 q 174 1304 127 1304 q 254 1273 221 1304 q 287 1196 287 1241 q 254 1118 287 1149 q 174 1086 221 1086 m 258 1353 l 345 1536 l 526 1536 l 393 1353 l 258 1353 z "},"":{"ha":658,"x_min":43,"x_max":614,"o":"m 43 0 l 43 195 l 209 195 l 209 815 l 43 815 l 43 1010 l 614 1010 l 614 815 l 449 815 l 449 195 l 614 195 l 614 0 l 43 0 m 79 489 l 79 573 l 578 573 l 578 489 l 79 489 z "},"":{"ha":658,"x_min":43,"x_max":614,"o":"m 43 0 l 43 195 l 209 195 l 209 815 l 43 815 l 43 1010 l 614 1010 l 614 815 l 449 815 l 449 195 l 614 195 l 614 0 l 43 0 m 427 -301 q 366 -290 392 -301 q 320 -264 340 -279 q 283 -237 300 -249 q 249 -226 267 -226 q 214 -245 227 -226 q 201 -296 202 -264 l 79 -296 q 123 -152 81 -201 q 233 -102 166 -102 q 294 -113 268 -102 q 339 -139 319 -124 q 376 -165 359 -154 q 411 -176 393 -176 q 448 -158 437 -176 q 460 -106 459 -140 l 581 -106 q 536 -251 580 -201 q 427 -301 492 -301 z "},"":{"ha":658,"x_min":43,"x_max":614,"o":"m 43 0 l 43 195 l 209 195 l 209 815 l 43 815 l 43 1010 l 614 1010 l 614 815 l 449 815 l 449 195 l 614 195 l 614 0 l 43 0 m 253 1103 l 99 1320 l 311 1320 l 413 1103 l 253 1103 z "},"":{"ha":658,"x_min":43,"x_max":614,"o":"m 43 0 l 43 195 l 209 195 l 209 815 l 43 815 l 43 1010 l 614 1010 l 614 815 l 449 815 l 449 195 l 614 195 l 614 0 l 43 0 m 245 1103 l 347 1320 l 559 1320 l 405 1103 l 245 1103 z "},"":{"ha":658,"x_min":41,"x_max":618,"o":"m 43 0 l 43 195 l 209 195 l 209 815 l 43 815 l 43 1010 l 614 1010 l 614 815 l 449 815 l 449 195 l 614 195 l 614 0 l 43 0 m 235 1107 l 40 1107 l 40 1111 l 241 1320 l 415 1320 l 617 1111 l 617 1107 l 423 1107 l 328 1220 l 235 1107 z "},"":{"ha":658,"x_min":43,"x_max":614,"o":"m 43 0 l 43 195 l 209 195 l 209 815 l 43 815 l 43 1010 l 614 1010 l 614 815 l 449 815 l 449 195 l 614 195 l 614 0 l 43 0 m 427 1113 q 365 1124 391 1113 q 319 1150 339 1135 q 282 1177 299 1165 q 248 1188 266 1188 q 214 1169 226 1188 q 200 1118 201 1150 l 78 1118 q 123 1262 80 1213 q 232 1312 165 1312 q 293 1301 267 1312 q 339 1275 319 1290 q 376 1249 359 1260 q 410 1238 393 1238 q 447 1256 436 1238 q 460 1308 458 1274 l 581 1308 q 535 1163 579 1213 q 427 1113 491 1113 z "},"":{"ha":658,"x_min":43,"x_max":614,"o":"m 43 0 l 43 195 l 209 195 l 209 815 l 43 815 l 43 1010 l 614 1010 l 614 815 l 449 815 l 449 195 l 614 195 l 614 0 l 43 0 m 529 1280 l 529 1138 l 130 1138 l 130 1280 l 529 1280 z "},"":{"ha":658,"x_min":43,"x_max":614,"o":"m 43 0 l 43 195 l 209 195 l 209 815 l 43 815 l 43 1010 l 614 1010 l 614 815 l 449 815 l 449 195 l 614 195 l 614 0 l 43 0 m 329 1097 q 201 1126 258 1097 q 112 1205 145 1156 q 79 1316 79 1255 l 211 1316 q 245 1246 211 1274 q 329 1218 279 1218 q 412 1246 378 1218 q 446 1316 446 1274 l 578 1316 q 545 1205 578 1255 q 456 1126 512 1156 q 329 1097 399 1097 z "},"":{"ha":658,"x_min":43,"x_max":637,"o":"m 43 0 l 43 195 l 209 195 l 209 815 l 43 815 l 43 1010 l 614 1010 l 614 815 l 449 815 l 449 195 l 614 195 l 614 0 l 43 0 m 494 -289 q 355 -250 407 -289 q 303 -142 303 -212 q 328 -54 303 -95 q 393 18 352 -12 l 614 0 q 533 -50 558 -24 q 509 -106 509 -76 q 520 -141 509 -129 q 556 -154 532 -154 q 581 -151 569 -154 q 602 -142 592 -148 l 637 -262 q 572 -281 611 -274 q 494 -289 532 -289 z "},"":{"ha":658,"x_min":43,"x_max":614,"o":"m 43 0 l 43 195 l 209 195 l 209 815 l 43 815 l 43 1010 l 614 1010 l 614 815 l 449 815 l 449 195 l 614 195 l 614 0 l 43 0 m 329 1095 q 241 1128 277 1095 q 205 1210 205 1162 q 241 1292 205 1259 q 329 1325 277 1325 q 416 1292 380 1325 q 452 1210 452 1259 q 416 1128 452 1162 q 329 1095 380 1095 z "},"":{"ha":658,"x_min":41,"x_max":618,"o":"m 43 0 l 43 195 l 209 195 l 209 815 l 43 815 l 43 1010 l 614 1010 l 614 815 l 449 815 l 449 195 l 614 195 l 614 0 l 43 0 m 235 1320 l 328 1206 l 423 1320 l 617 1320 l 617 1316 l 415 1107 l 241 1107 l 40 1316 l 40 1320 l 235 1320 z "},"":{"ha":658,"x_min":-44,"x_max":614,"o":"m 43 0 l 43 195 l 209 195 l 209 815 l 43 815 l 43 1010 l 614 1010 l 614 815 l 449 815 l 449 195 l 614 195 l 614 0 l 43 0 m 376 1103 l 260 1320 l 460 1320 l 536 1103 l 376 1103 m 130 1103 l -44 1320 l 174 1320 l 294 1103 l 130 1103 z "},"":{"ha":658,"x_min":43,"x_max":614,"o":"m 43 0 l 43 195 l 209 195 l 209 815 l 43 815 l 43 1010 l 614 1010 l 614 815 l 449 815 l 449 195 l 614 195 l 614 0 l 43 0 m 329 1327 q 457 1298 401 1327 q 547 1219 514 1268 q 580 1107 580 1169 l 448 1107 q 413 1177 448 1149 q 329 1205 379 1205 q 244 1177 279 1205 q 210 1107 210 1149 l 78 1107 q 111 1219 78 1169 q 201 1298 144 1268 q 329 1327 258 1327 z "},"":{"ha":658,"x_min":43,"x_max":614,"o":"m 43 0 l 43 195 l 209 195 l 209 815 l 43 815 l 43 1010 l 614 1010 l 614 815 l 449 815 l 449 195 l 614 195 l 614 0 l 43 0 m 391 1103 l 256 1103 l 309 1194 q 311 1202 312 1199 q 304 1204 309 1204 l 191 1204 l 191 1320 l 305 1320 q 404 1303 369 1320 q 451 1261 439 1287 q 456 1205 463 1235 q 428 1149 449 1176 l 391 1103 z "},"":{"ha":658,"x_min":43,"x_max":614,"o":"m 43 0 l 43 195 l 209 195 l 209 815 l 43 815 l 43 1010 l 614 1010 l 614 815 l 449 815 l 449 195 l 614 195 l 614 0 l 43 0 m 330 -319 q 241 -286 277 -319 q 205 -205 205 -253 q 241 -123 205 -156 q 330 -90 277 -90 q 417 -123 381 -90 q 453 -205 453 -156 q 417 -286 453 -253 q 330 -319 381 -319 z "},"":{"ha":954,"x_min":41,"x_max":911,"o":"m 340 0 l 340 195 l 505 195 l 505 815 l 340 815 l 340 1010 l 911 1010 l 911 815 l 745 815 l 745 195 l 911 195 l 911 0 l 340 0 m 72 788 l 63 788 l 63 848 l 73 848 q 127 858 109 848 q 145 888 145 867 q 129 915 145 906 q 81 924 113 924 l 41 924 l 41 1026 l 72 1026 q 210 994 161 1026 q 258 905 258 962 q 210 818 258 848 q 72 788 161 788 z "},"":{"ha":970,"x_min":41,"x_max":927,"o":"m 356 0 l 356 195 l 522 195 l 522 815 l 356 815 l 356 1010 l 927 1010 l 927 815 l 762 815 l 762 195 l 927 195 l 927 0 l 356 0 m 228 777 q 90 807 139 777 q 41 894 41 837 q 90 983 41 951 q 228 1015 138 1015 l 258 1015 l 258 913 l 219 913 q 171 904 186 913 q 155 876 155 895 q 173 846 155 856 q 226 836 191 836 l 237 836 l 237 777 l 228 777 z "},"":{"ha":1232,"x_min":41,"x_max":1175,"o":"m 604 0 l 604 195 l 770 195 l 770 815 l 604 815 l 604 1010 l 1175 1010 l 1175 815 l 1010 815 l 1010 195 l 1175 195 l 1175 0 l 604 0 m 72 777 l 63 777 l 63 836 l 73 836 q 127 846 109 836 q 145 876 145 856 q 129 904 145 895 q 81 913 113 913 l 41 913 l 41 1015 l 72 1015 q 210 983 161 1015 q 258 894 258 951 q 210 807 258 837 q 72 777 161 777 m 478 785 l 359 785 l 279 1010 l 458 1010 l 478 785 z "},"":{"ha":1249,"x_min":41,"x_max":1206,"o":"m 635 0 l 635 195 l 800 195 l 800 815 l 635 815 l 635 1010 l 1206 1010 l 1206 815 l 1040 815 l 1040 195 l 1206 195 l 1206 0 l 635 0 m 228 777 q 90 807 139 777 q 41 894 41 837 q 90 983 41 951 q 228 1015 138 1015 l 258 1015 l 258 913 l 219 913 q 171 904 186 913 q 155 876 155 895 q 173 846 155 856 q 226 836 191 836 l 237 836 l 237 777 l 228 777 m 503 785 l 383 785 l 303 1010 l 483 1010 l 503 785 z "},"":{"ha":1227,"x_min":41,"x_max":1184,"o":"m 613 0 l 613 195 l 779 195 l 779 815 l 613 815 l 613 1010 l 1184 1010 l 1184 815 l 1019 815 l 1019 195 l 1184 195 l 1184 0 l 613 0 m 72 777 l 63 777 l 63 836 l 73 836 q 127 846 109 836 q 145 876 145 856 q 129 904 145 895 q 81 913 113 913 l 41 913 l 41 1015 l 72 1015 q 210 983 161 1015 q 258 894 258 951 q 210 807 258 837 q 72 777 161 777 m 336 785 l 356 1010 l 536 1010 l 456 785 l 336 785 z "},"":{"ha":1253,"x_min":41,"x_max":1209,"o":"m 638 0 l 638 195 l 804 195 l 804 815 l 638 815 l 638 1010 l 1209 1010 l 1209 815 l 1044 815 l 1044 195 l 1209 195 l 1209 0 l 638 0 m 228 777 q 90 807 139 777 q 41 894 41 837 q 90 983 41 951 q 228 1015 138 1015 l 258 1015 l 258 913 l 219 913 q 171 904 186 913 q 155 876 155 895 q 173 846 155 856 q 226 836 191 836 l 237 836 l 237 777 l 228 777 m 354 785 l 374 1010 l 553 1010 l 473 785 l 354 785 z "},"":{"ha":1095,"x_min":41,"x_max":1052,"o":"m 481 0 l 481 195 l 646 195 l 646 815 l 481 815 l 481 1010 l 1052 1010 l 1052 815 l 886 815 l 886 195 l 1052 195 l 1052 0 l 481 0 m 210 789 l 201 789 l 201 849 l 212 849 q 266 859 248 849 q 283 888 283 869 q 267 917 283 907 q 219 926 251 926 l 180 926 l 180 1027 l 210 1027 q 348 996 300 1027 q 397 907 397 964 q 348 820 397 850 q 210 789 299 789 m 384 1085 q 323 1096 349 1085 q 278 1120 298 1106 q 242 1144 259 1133 q 208 1154 226 1154 q 175 1137 186 1154 q 161 1090 163 1120 l 41 1090 q 85 1222 43 1177 q 193 1267 127 1267 q 253 1258 227 1267 q 298 1234 278 1248 q 334 1210 317 1221 q 368 1200 351 1200 q 404 1216 393 1200 q 416 1265 415 1233 l 535 1265 q 491 1131 534 1177 q 384 1085 448 1085 z "},"":{"ha":1116,"x_min":41,"x_max":1073,"o":"m 502 0 l 502 195 l 667 195 l 667 815 l 502 815 l 502 1010 l 1073 1010 l 1073 815 l 907 815 l 907 195 l 1073 195 l 1073 0 l 502 0 m 366 773 q 229 803 277 773 q 180 890 180 833 q 228 979 180 947 q 366 1011 277 1011 l 397 1011 l 397 909 l 357 909 q 309 900 326 909 q 293 872 293 891 q 311 843 293 852 q 364 833 329 833 l 375 833 l 375 773 l 366 773 m 384 1069 q 323 1079 349 1069 q 278 1103 298 1090 q 242 1127 259 1117 q 208 1138 226 1138 q 175 1121 186 1138 q 161 1074 163 1103 l 41 1074 q 85 1206 43 1161 q 193 1251 127 1251 q 253 1241 227 1251 q 298 1218 278 1232 q 334 1194 317 1204 q 368 1183 351 1183 q 404 1200 393 1183 q 416 1249 415 1217 l 535 1249 q 491 1115 534 1161 q 384 1069 448 1069 z "},"":{"ha":658,"x_min":43,"x_max":614,"o":"m 43 0 l 43 195 l 209 195 l 209 815 l 43 815 l 43 1010 l 614 1010 l 614 815 l 449 815 l 449 195 l 614 195 l 614 0 l 43 0 m 329 1097 q 201 1126 258 1097 q 112 1205 145 1156 q 79 1316 79 1255 l 211 1316 q 245 1246 211 1274 q 329 1218 279 1218 q 412 1246 378 1218 q 446 1316 446 1274 l 578 1316 q 545 1205 578 1255 q 456 1126 512 1156 q 329 1097 399 1097 z "},"":{"ha":658,"x_min":43,"x_max":614,"o":"m 43 0 l 43 195 l 209 195 l 209 815 l 43 815 l 43 1010 l 614 1010 l 614 815 l 449 815 l 449 195 l 614 195 l 614 0 l 43 0 m 529 1280 l 529 1138 l 130 1138 l 130 1280 l 529 1280 z "},"":{"ha":918,"x_min":-89,"x_max":875,"o":"m 304 0 l 304 195 l 469 195 l 469 815 l 304 815 l 304 1010 l 875 1010 l 875 815 l 709 815 l 709 195 l 875 195 l 875 0 l 304 0 m 137 836 l 1 836 l -89 1053 l 115 1053 l 137 836 z "},"":{"ha":966,"x_min":41,"x_max":922,"o":"m 351 0 l 351 195 l 517 195 l 517 815 l 351 815 l 351 1010 l 922 1010 l 922 815 l 757 815 l 757 195 l 922 195 l 922 0 l 351 0 m 41 794 l 64 1010 l 267 1010 l 177 794 l 41 794 z "},"":{"ha":658,"x_min":43,"x_max":614,"o":"m 43 0 l 43 195 l 209 195 l 209 815 l 43 815 l 43 1010 l 614 1010 l 614 815 l 449 815 l 449 195 l 614 195 l 614 0 l 43 0 z "},"":{"ha":658,"x_min":43,"x_max":614,"o":"m 43 0 l 43 195 l 209 195 l 209 815 l 43 815 l 43 1010 l 614 1010 l 614 815 l 449 815 l 449 195 l 614 195 l 614 0 l 43 0 m 482 1101 q 402 1133 435 1101 q 370 1211 370 1165 q 402 1288 370 1256 q 482 1319 435 1319 q 563 1288 530 1319 q 595 1211 595 1256 q 563 1133 595 1165 q 482 1101 530 1101 m 175 1101 q 95 1133 127 1101 q 62 1211 62 1165 q 95 1288 62 1256 q 175 1319 128 1319 q 255 1288 222 1319 q 288 1211 288 1256 q 255 1133 288 1165 q 175 1101 222 1101 z "},"J":{"ha":814,"x_min":37,"x_max":739,"o":"m 388 -14 q 129 70 222 -14 q 37 311 37 154 l 37 374 l 273 374 l 273 307 q 303 211 273 243 q 387 178 334 178 q 471 211 441 178 q 500 307 500 243 l 500 1010 l 739 1010 l 739 310 q 646 70 739 154 q 388 -14 554 -14 z "},"Ĵ":{"ha":814,"x_min":37,"x_max":907,"o":"m 388 -14 q 129 70 222 -14 q 37 311 37 154 l 37 374 l 273 374 l 273 307 q 303 211 273 243 q 387 178 334 178 q 471 211 441 178 q 500 307 500 243 l 500 1010 l 739 1010 l 739 310 q 646 70 739 154 q 388 -14 554 -14 m 525 1107 l 330 1107 l 330 1111 l 532 1320 l 705 1320 l 907 1111 l 907 1107 l 713 1107 l 618 1220 l 525 1107 z "},"Ɉ":{"ha":876,"x_min":37,"x_max":867,"o":"m 388 -14 q 129 70 222 -14 q 37 311 37 154 l 37 374 l 273 374 l 273 307 q 303 211 273 243 q 387 178 334 178 q 471 211 441 178 q 500 307 500 243 l 500 1010 l 739 1010 l 739 310 q 646 70 739 154 q 388 -14 554 -14 m 368 557 l 368 642 l 867 642 l 867 557 l 368 557 z "},"Ϳ":{"ha":814,"x_min":37,"x_max":739,"o":"m 388 -14 q 129 70 222 -14 q 37 311 37 154 l 37 374 l 273 374 l 273 307 q 303 211 273 243 q 387 178 334 178 q 471 211 441 178 q 500 307 500 243 l 500 1010 l 739 1010 l 739 310 q 646 70 739 154 q 388 -14 554 -14 z "},"Ј":{"ha":814,"x_min":37,"x_max":739,"o":"m 388 -14 q 129 70 222 -14 q 37 311 37 154 l 37 374 l 273 374 l 273 307 q 303 211 273 243 q 387 178 334 178 q 471 211 441 178 q 500 307 500 243 l 500 1010 l 739 1010 l 739 310 q 646 70 739 154 q 388 -14 554 -14 z "},"K":{"ha":1015,"x_min":76,"x_max":989,"o":"m 255 198 l 255 427 q 315 531 286 484 q 380 628 345 579 q 462 734 416 676 l 687 1010 l 975 1010 l 550 505 l 528 511 l 255 198 m 76 0 l 76 1010 l 316 1010 l 316 762 l 313 489 l 316 372 l 316 0 l 76 0 m 707 0 l 435 433 l 585 610 l 989 0 l 707 0 z "},"Ķ":{"ha":1015,"x_min":76,"x_max":989,"o":"m 255 198 l 255 427 q 315 531 286 484 q 380 628 345 579 q 462 734 416 676 l 687 1010 l 975 1010 l 550 505 l 528 511 l 255 198 m 76 0 l 76 1010 l 316 1010 l 316 762 l 313 489 l 316 372 l 316 0 l 76 0 m 707 0 l 435 433 l 585 610 l 989 0 l 707 0 m 330 -321 l 392 -80 l 608 -80 l 492 -321 l 330 -321 z "},"Ǩ":{"ha":1015,"x_min":76,"x_max":989,"o":"m 255 198 l 255 427 q 315 531 286 484 q 380 628 345 579 q 462 734 416 676 l 687 1010 l 975 1010 l 550 505 l 528 511 l 255 198 m 76 0 l 76 1010 l 316 1010 l 316 762 l 313 489 l 316 372 l 316 0 l 76 0 m 707 0 l 435 433 l 585 610 l 989 0 l 707 0 m 404 1320 l 497 1206 l 592 1320 l 786 1320 l 786 1316 l 584 1107 l 410 1107 l 209 1316 l 209 1320 l 404 1320 z "},"Ḱ":{"ha":1015,"x_min":76,"x_max":989,"o":"m 255 198 l 255 427 q 315 531 286 484 q 380 628 345 579 q 462 734 416 676 l 687 1010 l 975 1010 l 550 505 l 528 511 l 255 198 m 76 0 l 76 1010 l 316 1010 l 316 762 l 313 489 l 316 372 l 316 0 l 76 0 m 707 0 l 435 433 l 585 610 l 989 0 l 707 0 m 414 1103 l 515 1320 l 728 1320 l 574 1103 l 414 1103 z "},"Ḳ":{"ha":1015,"x_min":76,"x_max":989,"o":"m 255 198 l 255 427 q 315 531 286 484 q 380 628 345 579 q 462 734 416 676 l 687 1010 l 975 1010 l 550 505 l 528 511 l 255 198 m 76 0 l 76 1010 l 316 1010 l 316 762 l 313 489 l 316 372 l 316 0 l 76 0 m 707 0 l 435 433 l 585 610 l 989 0 l 707 0 m 498 -319 q 410 -286 446 -319 q 374 -205 374 -253 q 410 -123 374 -156 q 498 -90 446 -90 q 586 -123 550 -90 q 622 -205 622 -156 q 586 -286 622 -253 q 498 -319 550 -319 z "},"Ḵ":{"ha":1015,"x_min":76,"x_max":989,"o":"m 255 198 l 255 427 q 315 531 286 484 q 380 628 345 579 q 462 734 416 676 l 687 1010 l 975 1010 l 550 505 l 528 511 l 255 198 m 76 0 l 76 1010 l 316 1010 l 316 762 l 313 489 l 316 372 l 316 0 l 76 0 m 707 0 l 435 433 l 585 610 l 989 0 l 707 0 m 698 -126 l 698 -269 l 298 -269 l 298 -126 l 698 -126 z "},"Ҡ":{"ha":1248,"x_min":41,"x_max":1221,"o":"m 424 1010 l 424 813 l 41 813 l 41 1010 l 424 1010 m 308 0 l 308 1010 l 548 1010 l 548 614 l 648 614 l 922 1010 l 1204 1010 l 846 518 l 1221 0 l 940 0 l 646 418 l 548 418 l 548 0 l 308 0 z "},"Қ":{"ha":1079,"x_min":76,"x_max":1046,"o":"m 76 0 l 76 1010 l 316 1010 l 316 614 l 416 614 l 690 1010 l 972 1010 l 614 518 l 989 0 l 708 0 l 414 418 l 316 418 l 316 0 l 76 0 m 806 -217 l 806 0 l 744 0 l 744 187 l 1046 187 l 1034 -217 l 806 -217 z "},"Ƙ":{"ha":1029,"x_min":76,"x_max":1024,"o":"m 76 0 l 76 1010 l 315 1010 l 315 594 l 328 594 l 640 920 q 758 1002 696 977 q 887 1022 820 1028 q 1024 975 954 1015 l 950 808 q 877 817 906 829 q 814 771 848 805 l 591 541 l 1006 0 l 719 0 l 437 372 l 315 241 l 315 0 l 76 0 z "},"Κ":{"ha":1015,"x_min":76,"x_max":989,"o":"m 255 198 l 255 427 q 315 531 286 484 q 380 628 345 579 q 462 734 416 676 l 687 1010 l 975 1010 l 550 505 l 528 511 l 255 198 m 76 0 l 76 1010 l 316 1010 l 316 762 l 313 489 l 316 372 l 316 0 l 76 0 m 707 0 l 435 433 l 585 610 l 989 0 l 707 0 z "},"L":{"ha":785,"x_min":76,"x_max":744,"o":"m 76 0 l 76 1010 l 316 1010 l 316 198 l 744 198 l 744 0 l 76 0 z "},"Ĺ":{"ha":785,"x_min":76,"x_max":744,"o":"m 76 0 l 76 1010 l 316 1010 l 316 198 l 744 198 l 744 0 l 76 0 m 110 1103 l 212 1320 l 424 1320 l 270 1103 l 110 1103 z "},"Ļ":{"ha":785,"x_min":76,"x_max":744,"o":"m 76 0 l 76 1010 l 316 1010 l 316 198 l 744 198 l 744 0 l 76 0 m 239 -321 l 301 -80 l 517 -80 l 401 -321 l 239 -321 z "},"Ľ":{"ha":785,"x_min":76,"x_max":744,"o":"m 76 0 l 76 1010 l 316 1010 l 316 198 l 744 198 l 744 0 l 76 0 m 461 802 l 461 1063 l 631 1063 l 594 802 l 461 802 z "},"Ḷ":{"ha":785,"x_min":76,"x_max":744,"o":"m 76 0 l 76 1010 l 316 1010 l 316 198 l 744 198 l 744 0 l 76 0 m 408 -319 q 319 -286 355 -319 q 283 -205 283 -253 q 319 -123 283 -156 q 408 -90 355 -90 q 495 -123 459 -90 q 531 -205 531 -156 q 495 -286 531 -253 q 408 -319 459 -319 z "},"Ḹ":{"ha":785,"x_min":-5,"x_max":744,"o":"m 76 0 l 76 1010 l 316 1010 l 316 198 l 744 198 l 744 0 l 76 0 m 408 -319 q 319 -286 355 -319 q 283 -205 283 -253 q 319 -123 283 -156 q 408 -90 355 -90 q 495 -123 459 -90 q 531 -205 531 -156 q 495 -286 531 -253 q 408 -319 459 -319 m 394 1280 l 394 1138 l -5 1138 l -5 1280 l 394 1280 z "},"Ḻ":{"ha":785,"x_min":76,"x_max":744,"o":"m 76 0 l 76 1010 l 316 1010 l 316 198 l 744 198 l 744 0 l 76 0 m 608 -126 l 608 -269 l 208 -269 l 208 -126 l 608 -126 z "},"Ḽ":{"ha":785,"x_min":76,"x_max":744,"o":"m 76 0 l 76 1010 l 316 1010 l 316 198 l 744 198 l 744 0 l 76 0 m 314 -308 l 119 -308 l 119 -304 l 321 -95 l 494 -95 l 696 -304 l 696 -308 l 503 -308 l 408 -195 l 314 -308 z "},"Ł":{"ha":846,"x_min":5,"x_max":806,"o":"m 137 0 l 137 1010 l 377 1010 l 377 198 l 805 198 l 805 0 l 137 0 m 5 250 l 5 449 l 608 797 l 608 598 l 5 250 z "},"Ƚ":{"ha":853,"x_min":14,"x_max":812,"o":"m 144 0 l 144 1010 l 384 1010 l 384 198 l 812 198 l 812 0 l 144 0 m 14 428 l 14 583 l 578 583 l 578 428 l 14 428 z "},"ǈ":{"ha":1172,"x_min":76,"x_max":1103,"o":"m 76 0 l 76 1010 l 316 1010 l 316 198 l 744 198 l 744 0 l 76 0 m 861 749 l 1097 749 l 1097 -35 q 1061 -179 1097 -125 q 959 -259 1025 -234 q 800 -283 892 -283 l 742 -283 l 742 -104 l 775 -104 q 842 -85 823 -104 q 861 -26 861 -66 l 861 749 m 979 833 q 890 867 926 833 q 854 948 854 900 q 890 1030 854 997 q 979 1063 926 1063 q 1066 1030 1030 1063 q 1102 948 1102 997 q 1066 867 1102 900 q 979 833 1030 833 z "},"M":{"ha":1299,"x_min":76,"x_max":1224,"o":"m 76 0 l 76 1010 l 446 1010 l 575 616 q 600 523 586 581 q 629 399 614 465 q 655 273 643 334 q 675 170 668 212 l 626 170 q 646 273 634 212 q 672 399 658 334 q 701 522 687 465 q 726 616 715 580 l 853 1010 l 1224 1010 l 1224 0 l 983 0 l 983 436 q 985 523 983 470 q 988 637 986 575 q 991 761 989 699 q 993 878 993 824 l 1010 878 q 982 755 998 819 q 949 631 966 692 q 919 520 933 571 q 894 436 904 469 l 750 0 l 551 0 l 404 436 q 379 520 394 469 q 348 631 364 570 q 315 755 332 691 q 285 878 299 819 l 306 878 q 308 763 306 825 q 311 638 309 700 q 314 523 313 576 q 315 436 315 470 l 315 0 l 76 0 z "},"Ḿ":{"ha":1299,"x_min":76,"x_max":1224,"o":"m 76 0 l 76 1010 l 446 1010 l 575 616 q 600 523 586 581 q 629 399 614 465 q 655 273 643 334 q 675 170 668 212 l 626 170 q 646 273 634 212 q 672 399 658 334 q 701 522 687 465 q 726 616 715 580 l 853 1010 l 1224 1010 l 1224 0 l 983 0 l 983 436 q 985 523 983 470 q 988 637 986 575 q 991 761 989 699 q 993 878 993 824 l 1010 878 q 982 755 998 819 q 949 631 966 692 q 919 520 933 571 q 894 436 904 469 l 750 0 l 551 0 l 404 436 q 379 520 394 469 q 348 631 364 570 q 315 755 332 691 q 285 878 299 819 l 306 878 q 308 763 306 825 q 311 638 309 700 q 314 523 313 576 q 315 436 315 470 l 315 0 l 76 0 m 565 1103 l 667 1320 l 879 1320 l 725 1103 l 565 1103 z "},"Ṁ":{"ha":1299,"x_min":76,"x_max":1224,"o":"m 76 0 l 76 1010 l 446 1010 l 575 616 q 600 523 586 581 q 629 399 614 465 q 655 273 643 334 q 675 170 668 212 l 626 170 q 646 273 634 212 q 672 399 658 334 q 701 522 687 465 q 726 616 715 580 l 853 1010 l 1224 1010 l 1224 0 l 983 0 l 983 436 q 985 523 983 470 q 988 637 986 575 q 991 761 989 699 q 993 878 993 824 l 1010 878 q 982 755 998 819 q 949 631 966 692 q 919 520 933 571 q 894 436 904 469 l 750 0 l 551 0 l 404 436 q 379 520 394 469 q 348 631 364 570 q 315 755 332 691 q 285 878 299 819 l 306 878 q 308 763 306 825 q 311 638 309 700 q 314 523 313 576 q 315 436 315 470 l 315 0 l 76 0 m 649 1095 q 561 1128 597 1095 q 525 1210 525 1162 q 561 1292 525 1259 q 649 1325 597 1325 q 736 1292 701 1325 q 772 1210 772 1259 q 736 1128 772 1162 q 649 1095 701 1095 z "},"Ṃ":{"ha":1299,"x_min":76,"x_max":1224,"o":"m 76 0 l 76 1010 l 446 1010 l 575 616 q 600 523 586 581 q 629 399 614 465 q 655 273 643 334 q 675 170 668 212 l 626 170 q 646 273 634 212 q 672 399 658 334 q 701 522 687 465 q 726 616 715 580 l 853 1010 l 1224 1010 l 1224 0 l 983 0 l 983 436 q 985 523 983 470 q 988 637 986 575 q 991 761 989 699 q 993 878 993 824 l 1010 878 q 982 755 998 819 q 949 631 966 692 q 919 520 933 571 q 894 436 904 469 l 750 0 l 551 0 l 404 436 q 379 520 394 469 q 348 631 364 570 q 315 755 332 691 q 285 878 299 819 l 306 878 q 308 763 306 825 q 311 638 309 700 q 314 523 313 576 q 315 436 315 470 l 315 0 l 76 0 m 650 -319 q 562 -286 597 -319 q 526 -205 526 -253 q 562 -123 526 -156 q 650 -90 597 -90 q 737 -123 701 -90 q 773 -205 773 -156 q 737 -286 773 -253 q 650 -319 701 -319 z "},"Ӎ":{"ha":1299,"x_min":76,"x_max":1350,"o":"m 76 0 l 76 1010 l 446 1010 l 575 616 q 600 523 586 581 q 629 399 614 465 q 655 273 643 334 q 675 170 668 212 l 626 170 q 646 273 634 212 q 672 399 658 334 q 701 522 687 465 q 726 616 715 580 l 853 1010 l 1224 1010 l 1224 0 l 983 0 l 983 436 q 985 523 983 470 q 988 637 986 575 q 991 761 989 699 q 993 878 993 824 l 1010 878 q 982 755 998 819 q 949 631 966 692 q 919 520 933 571 q 894 436 904 469 l 750 0 l 551 0 l 404 436 q 379 520 394 469 q 348 631 364 570 q 315 755 332 691 q 285 878 299 819 l 306 878 q 308 763 306 825 q 311 638 309 700 q 314 523 313 576 q 315 436 315 470 l 315 0 l 76 0 m 1008 -217 l 1078 0 l 1018 0 l 1018 182 l 1350 182 l 1224 -217 l 1008 -217 z "},"Μ":{"ha":1299,"x_min":76,"x_max":1224,"o":"m 76 0 l 76 1010 l 446 1010 l 575 616 q 600 523 586 581 q 629 399 614 465 q 655 273 643 334 q 675 170 668 212 l 626 170 q 646 273 634 212 q 672 399 658 334 q 701 522 687 465 q 726 616 715 580 l 853 1010 l 1224 1010 l 1224 0 l 983 0 l 983 436 q 985 523 983 470 q 988 637 986 575 q 991 761 989 699 q 993 878 993 824 l 1010 878 q 982 755 998 819 q 949 631 966 692 q 919 520 933 571 q 894 436 904 469 l 750 0 l 551 0 l 404 436 q 379 520 394 469 q 348 631 364 570 q 315 755 332 691 q 285 878 299 819 l 306 878 q 308 763 306 825 q 311 638 309 700 q 314 523 313 576 q 315 436 315 470 l 315 0 l 76 0 z "},"Ϻ":{"ha":1299,"x_min":76,"x_max":1224,"o":"m 76 0 l 76 1010 l 446 1010 l 575 616 q 600 523 586 581 q 629 399 614 465 q 655 273 643 334 q 675 170 668 212 l 626 170 q 646 273 634 212 q 672 399 658 334 q 701 522 687 465 q 726 616 715 580 l 853 1010 l 1224 1010 l 1224 0 l 983 0 l 983 436 q 985 523 983 470 q 988 637 986 575 q 991 761 989 699 q 993 878 993 824 l 1010 878 q 982 755 998 819 q 949 631 966 692 q 919 520 933 571 q 894 436 904 469 l 750 0 l 551 0 l 404 436 q 379 520 394 469 q 348 631 364 570 q 315 755 332 691 q 285 878 299 819 l 306 878 q 308 763 306 825 q 311 638 309 700 q 314 523 313 576 q 315 436 315 470 l 315 0 l 76 0 z "},"М":{"ha":1299,"x_min":76,"x_max":1224,"o":"m 76 0 l 76 1010 l 446 1010 l 575 616 q 600 523 586 581 q 629 399 614 465 q 655 273 643 334 q 675 170 668 212 l 626 170 q 646 273 634 212 q 672 399 658 334 q 701 522 687 465 q 726 616 715 580 l 853 1010 l 1224 1010 l 1224 0 l 983 0 l 983 436 q 985 523 983 470 q 988 637 986 575 q 991 761 989 699 q 993 878 993 824 l 1010 878 q 982 755 998 819 q 949 631 966 692 q 919 520 933 571 q 894 436 904 469 l 750 0 l 551 0 l 404 436 q 379 520 394 469 q 348 631 364 570 q 315 755 332 691 q 285 878 299 819 l 306 878 q 308 763 306 825 q 311 638 309 700 q 314 523 313 576 q 315 436 315 470 l 315 0 l 76 0 z "},"N":{"ha":1053,"x_min":76,"x_max":977,"o":"m 76 0 l 76 1010 l 336 1010 l 619 553 q 670 466 644 513 q 722 362 696 418 q 773 236 747 305 l 749 221 q 742 343 745 276 q 735 473 738 410 q 732 578 732 536 l 732 1010 l 977 1010 l 977 0 l 716 0 l 456 419 q 397 522 425 471 q 339 634 368 573 q 272 772 309 694 l 304 777 q 313 636 309 705 q 319 511 317 568 q 321 419 321 455 l 321 0 l 76 0 z "},"Ñ":{"ha":1053,"x_min":76,"x_max":977,"o":"m 76 0 l 76 1010 l 336 1010 l 619 553 q 670 466 644 513 q 722 362 696 418 q 773 236 747 305 l 749 221 q 742 343 745 276 q 735 473 738 410 q 732 578 732 536 l 732 1010 l 977 1010 l 977 0 l 716 0 l 456 419 q 397 522 425 471 q 339 634 368 573 q 272 772 309 694 l 304 777 q 313 636 309 705 q 319 511 317 568 q 321 419 321 455 l 321 0 l 76 0 m 624 1113 q 563 1124 589 1113 q 516 1150 536 1135 q 480 1177 496 1165 q 446 1188 463 1188 q 411 1169 423 1188 q 397 1118 399 1150 l 275 1118 q 320 1262 277 1213 q 429 1312 363 1312 q 490 1301 465 1312 q 536 1275 516 1290 q 573 1249 556 1260 q 608 1238 590 1238 q 645 1256 633 1238 q 657 1308 656 1274 l 778 1308 q 732 1163 777 1213 q 624 1113 688 1113 z "},"Ń":{"ha":1053,"x_min":76,"x_max":977,"o":"m 76 0 l 76 1010 l 336 1010 l 619 553 q 670 466 644 513 q 722 362 696 418 q 773 236 747 305 l 749 221 q 742 343 745 276 q 735 473 738 410 q 732 578 732 536 l 732 1010 l 977 1010 l 977 0 l 716 0 l 456 419 q 397 522 425 471 q 339 634 368 573 q 272 772 309 694 l 304 777 q 313 636 309 705 q 319 511 317 568 q 321 419 321 455 l 321 0 l 76 0 m 442 1103 l 544 1320 l 756 1320 l 602 1103 l 442 1103 z "},"Ņ":{"ha":1053,"x_min":76,"x_max":977,"o":"m 76 0 l 76 1010 l 336 1010 l 619 553 q 670 466 644 513 q 722 362 696 418 q 773 236 747 305 l 749 221 q 742 343 745 276 q 735 473 738 410 q 732 578 732 536 l 732 1010 l 977 1010 l 977 0 l 716 0 l 456 419 q 397 522 425 471 q 339 634 368 573 q 272 772 309 694 l 304 777 q 313 636 309 705 q 319 511 317 568 q 321 419 321 455 l 321 0 l 76 0 m 358 -321 l 420 -80 l 636 -80 l 521 -321 l 358 -321 z "},"Ň":{"ha":1053,"x_min":76,"x_max":977,"o":"m 76 0 l 76 1010 l 336 1010 l 619 553 q 670 466 644 513 q 722 362 696 418 q 773 236 747 305 l 749 221 q 742 343 745 276 q 735 473 738 410 q 732 578 732 536 l 732 1010 l 977 1010 l 977 0 l 716 0 l 456 419 q 397 522 425 471 q 339 634 368 573 q 272 772 309 694 l 304 777 q 313 636 309 705 q 319 511 317 568 q 321 419 321 455 l 321 0 l 76 0 m 433 1320 l 526 1206 l 621 1320 l 815 1320 l 815 1316 l 613 1107 l 439 1107 l 238 1316 l 238 1320 l 433 1320 z "},"Ǹ":{"ha":1053,"x_min":76,"x_max":977,"o":"m 76 0 l 76 1010 l 336 1010 l 619 553 q 670 466 644 513 q 722 362 696 418 q 773 236 747 305 l 749 221 q 742 343 745 276 q 735 473 738 410 q 732 578 732 536 l 732 1010 l 977 1010 l 977 0 l 716 0 l 456 419 q 397 522 425 471 q 339 634 368 573 q 272 772 309 694 l 304 777 q 313 636 309 705 q 319 511 317 568 q 321 419 321 455 l 321 0 l 76 0 m 451 1103 l 297 1320 l 509 1320 l 611 1103 l 451 1103 z "},"Ṅ":{"ha":1053,"x_min":76,"x_max":977,"o":"m 76 0 l 76 1010 l 336 1010 l 619 553 q 670 466 644 513 q 722 362 696 418 q 773 236 747 305 l 749 221 q 742 343 745 276 q 735 473 738 410 q 732 578 732 536 l 732 1010 l 977 1010 l 977 0 l 716 0 l 456 419 q 397 522 425 471 q 339 634 368 573 q 272 772 309 694 l 304 777 q 313 636 309 705 q 319 511 317 568 q 321 419 321 455 l 321 0 l 76 0 m 527 1095 q 439 1128 475 1095 q 403 1210 403 1162 q 439 1292 403 1259 q 527 1325 475 1325 q 614 1292 578 1325 q 650 1210 650 1259 q 614 1128 650 1162 q 527 1095 578 1095 z "},"Ṇ":{"ha":1053,"x_min":76,"x_max":977,"o":"m 76 0 l 76 1010 l 336 1010 l 619 553 q 670 466 644 513 q 722 362 696 418 q 773 236 747 305 l 749 221 q 742 343 745 276 q 735 473 738 410 q 732 578 732 536 l 732 1010 l 977 1010 l 977 0 l 716 0 l 456 419 q 397 522 425 471 q 339 634 368 573 q 272 772 309 694 l 304 777 q 313 636 309 705 q 319 511 317 568 q 321 419 321 455 l 321 0 l 76 0 m 527 -319 q 439 -286 475 -319 q 403 -205 403 -253 q 439 -123 403 -156 q 527 -90 475 -90 q 614 -123 578 -90 q 650 -205 650 -156 q 614 -286 650 -253 q 527 -319 578 -319 z "},"Ṉ":{"ha":1053,"x_min":76,"x_max":977,"o":"m 76 0 l 76 1010 l 336 1010 l 619 553 q 670 466 644 513 q 722 362 696 418 q 773 236 747 305 l 749 221 q 742 343 745 276 q 735 473 738 410 q 732 578 732 536 l 732 1010 l 977 1010 l 977 0 l 716 0 l 456 419 q 397 522 425 471 q 339 634 368 573 q 272 772 309 694 l 304 777 q 313 636 309 705 q 319 511 317 568 q 321 419 321 455 l 321 0 l 76 0 m 727 -126 l 727 -269 l 328 -269 l 328 -126 l 727 -126 z "},"Ṋ":{"ha":1053,"x_min":76,"x_max":977,"o":"m 76 0 l 76 1010 l 336 1010 l 619 553 q 670 466 644 513 q 722 362 696 418 q 773 236 747 305 l 749 221 q 742 343 745 276 q 735 473 738 410 q 732 578 732 536 l 732 1010 l 977 1010 l 977 0 l 716 0 l 456 419 q 397 522 425 471 q 339 634 368 573 q 272 772 309 694 l 304 777 q 313 636 309 705 q 319 511 317 568 q 321 419 321 455 l 321 0 l 76 0 m 433 -308 l 239 -308 l 239 -304 l 440 -95 l 614 -95 l 816 -304 l 816 -308 l 622 -308 l 527 -195 l 433 -308 z "},"Ɲ":{"ha":1053,"x_min":-71,"x_max":977,"o":"m -71 -283 l -71 -102 q -35 -105 -54 -104 q 2 -106 -16 -106 q 60 -93 43 -106 q 76 -48 76 -79 l 76 85 l 316 85 l 316 -62 q 249 -235 316 -177 q 51 -294 182 -294 q -15 -291 16 -294 q -71 -283 -46 -288 m 76 0 l 76 1010 l 336 1010 l 619 553 q 670 466 644 513 q 722 362 696 418 q 773 236 747 305 l 749 221 q 742 343 745 276 q 735 473 738 410 q 732 578 732 536 l 732 1010 l 977 1010 l 977 0 l 716 0 l 456 419 q 397 522 425 471 q 339 634 368 573 q 272 772 309 694 l 304 777 q 313 636 309 705 q 319 511 317 568 q 321 419 321 455 l 321 0 l 76 0 z "},"Ŋ":{"ha":1053,"x_min":76,"x_max":979,"o":"m 592 -283 l 592 -102 q 628 -105 609 -104 q 665 -106 646 -106 q 722 -93 706 -106 q 739 -48 739 -79 l 739 85 l 979 85 l 979 -62 q 912 -235 979 -177 q 713 -294 845 -294 q 647 -291 678 -294 q 592 -283 616 -288 m 76 0 l 76 1010 l 336 1010 l 619 553 q 670 466 644 513 q 722 362 696 418 q 773 236 747 305 l 749 221 q 742 343 745 276 q 735 473 738 410 q 732 578 732 536 l 732 1010 l 977 1010 l 977 0 l 716 0 l 456 419 q 397 522 425 471 q 339 634 368 573 q 272 772 309 694 l 304 777 q 313 636 309 705 q 319 511 317 568 q 321 419 321 455 l 321 0 l 76 0 z "},"И":{"ha":1053,"x_min":76,"x_max":977,"o":"m 977 0 l 732 0 l 732 419 q 734 511 732 455 q 741 636 736 568 q 749 777 745 705 l 781 772 q 714 634 744 694 q 656 522 684 573 q 597 419 629 471 l 337 0 l 76 0 l 76 1010 l 321 1010 l 321 578 q 318 473 321 536 q 311 343 315 410 q 304 221 307 276 l 280 236 q 332 362 306 305 q 383 466 357 418 q 433 553 409 513 l 716 1010 l 977 1010 l 977 0 z "},"Ѝ":{"ha":1053,"x_min":76,"x_max":977,"o":"m 977 0 l 732 0 l 732 419 q 734 511 732 455 q 741 636 736 568 q 749 777 745 705 l 781 772 q 714 634 744 694 q 656 522 684 573 q 597 419 629 471 l 337 0 l 76 0 l 76 1010 l 321 1010 l 321 578 q 318 473 321 536 q 311 343 315 410 q 304 221 307 276 l 280 236 q 332 362 306 305 q 383 466 357 418 q 433 553 409 513 l 716 1010 l 977 1010 l 977 0 m 431 1103 l 277 1320 l 490 1320 l 591 1103 l 431 1103 z "},"Й":{"ha":1053,"x_min":76,"x_max":977,"o":"m 977 0 l 732 0 l 732 419 q 734 511 732 455 q 741 636 736 568 q 749 777 745 705 l 781 772 q 714 634 744 694 q 656 522 684 573 q 597 419 629 471 l 337 0 l 76 0 l 76 1010 l 321 1010 l 321 578 q 318 473 321 536 q 311 343 315 410 q 304 221 307 276 l 280 236 q 332 362 306 305 q 383 466 357 418 q 433 553 409 513 l 716 1010 l 977 1010 l 977 0 m 508 1097 q 380 1126 437 1097 q 291 1205 324 1156 q 258 1316 258 1255 l 390 1316 q 424 1246 390 1274 q 508 1218 458 1218 q 591 1246 557 1218 q 625 1316 625 1274 l 757 1316 q 724 1205 757 1255 q 635 1126 691 1156 q 508 1097 578 1097 z "},"Ӣ":{"ha":1053,"x_min":76,"x_max":977,"o":"m 977 0 l 732 0 l 732 419 q 734 511 732 455 q 741 636 736 568 q 749 777 745 705 l 781 772 q 714 634 744 694 q 656 522 684 573 q 597 419 629 471 l 337 0 l 76 0 l 76 1010 l 321 1010 l 321 578 q 318 473 321 536 q 311 343 315 410 q 304 221 307 276 l 280 236 q 332 362 306 305 q 383 466 357 418 q 433 553 409 513 l 716 1010 l 977 1010 l 977 0 m 707 1280 l 707 1138 l 308 1138 l 308 1280 l 707 1280 z "},"Ӥ":{"ha":1053,"x_min":76,"x_max":977,"o":"m 977 0 l 732 0 l 732 419 q 734 511 732 455 q 741 636 736 568 q 749 777 745 705 l 781 772 q 714 634 744 694 q 656 522 684 573 q 597 419 629 471 l 337 0 l 76 0 l 76 1010 l 321 1010 l 321 578 q 318 473 321 536 q 311 343 315 410 q 304 221 307 276 l 280 236 q 332 362 306 305 q 383 466 357 418 q 433 553 409 513 l 716 1010 l 977 1010 l 977 0 m 661 1101 q 582 1133 614 1101 q 549 1211 549 1165 q 582 1288 549 1256 q 661 1319 614 1319 q 742 1288 709 1319 q 774 1211 774 1256 q 742 1133 774 1165 q 661 1101 709 1101 m 354 1101 q 274 1133 307 1101 q 241 1211 241 1165 q 274 1288 241 1256 q 354 1319 307 1319 q 434 1288 401 1319 q 467 1211 467 1256 q 434 1133 467 1165 q 354 1101 401 1101 z "},"Ҋ":{"ha":1053,"x_min":76,"x_max":1067,"o":"m 977 0 l 732 0 l 732 419 q 734 511 732 455 q 741 636 736 568 q 749 777 745 705 l 781 772 q 714 634 744 694 q 656 522 684 573 q 597 419 629 471 l 337 0 l 76 0 l 76 1010 l 321 1010 l 321 578 q 318 473 321 536 q 311 343 315 410 q 304 221 307 276 l 280 236 q 332 362 306 305 q 383 466 357 418 q 433 553 409 513 l 716 1010 l 977 1010 l 977 0 m 508 1097 q 380 1126 437 1097 q 291 1205 324 1156 q 258 1316 258 1255 l 390 1316 q 424 1246 390 1274 q 508 1218 458 1218 q 591 1246 557 1218 q 625 1316 625 1274 l 757 1316 q 724 1205 757 1255 q 635 1126 691 1156 q 508 1097 578 1097 m 725 -217 l 794 0 l 734 0 l 734 182 l 1067 182 l 941 -217 l 725 -217 z "},"Ͷ":{"ha":1053,"x_min":76,"x_max":977,"o":"m 977 0 l 732 0 l 732 419 q 734 511 732 455 q 741 636 736 568 q 749 777 745 705 l 781 772 q 714 634 744 694 q 656 522 684 573 q 597 419 629 471 l 337 0 l 76 0 l 76 1010 l 321 1010 l 321 578 q 318 473 321 536 q 311 343 315 410 q 304 221 307 276 l 280 236 q 332 362 306 305 q 383 466 357 418 q 433 553 409 513 l 716 1010 l 977 1010 l 977 0 z "},"Ν":{"ha":1053,"x_min":76,"x_max":977,"o":"m 76 0 l 76 1010 l 336 1010 l 619 553 q 670 466 644 513 q 722 362 696 418 q 773 236 747 305 l 749 221 q 742 343 745 276 q 735 473 738 410 q 732 578 732 536 l 732 1010 l 977 1010 l 977 0 l 716 0 l 456 419 q 397 522 425 471 q 339 634 368 573 q 272 772 309 694 l 304 777 q 313 636 309 705 q 319 511 317 568 q 321 419 321 455 l 321 0 l 76 0 z "},"ǋ":{"ha":1440,"x_min":76,"x_max":1370,"o":"m 76 0 l 76 1010 l 336 1010 l 619 553 q 670 466 644 513 q 722 362 696 418 q 773 236 747 305 l 749 221 q 742 343 745 276 q 735 473 738 410 q 732 578 732 536 l 732 1010 l 977 1010 l 977 0 l 716 0 l 456 419 q 397 522 425 471 q 339 634 368 573 q 272 772 309 694 l 304 777 q 313 636 309 705 q 319 511 317 568 q 321 419 321 455 l 321 0 l 76 0 m 1128 749 l 1364 749 l 1364 -35 q 1329 -179 1364 -125 q 1226 -259 1293 -234 q 1067 -283 1160 -283 l 1010 -283 l 1010 -104 l 1043 -104 q 1109 -85 1090 -104 q 1128 -26 1128 -66 l 1128 749 m 1246 833 q 1158 867 1194 833 q 1122 948 1122 900 q 1158 1030 1122 997 q 1246 1063 1194 1063 q 1334 1030 1298 1063 q 1370 948 1370 997 q 1334 867 1370 900 q 1246 833 1298 833 z "},"O":{"ha":1065,"x_min":52,"x_max":1014,"o":"m 533 -14 q 288 46 397 -14 q 115 223 178 107 q 52 505 52 339 q 115 787 52 671 q 288 964 178 903 q 533 1025 397 1025 q 778 964 669 1025 q 950 787 886 903 q 1014 505 1014 671 q 950 223 1014 339 q 778 46 886 107 q 533 -14 669 -14 m 533 197 q 659 232 606 197 q 741 337 712 268 q 769 505 769 406 q 741 673 769 604 q 659 778 712 743 q 533 814 606 814 q 407 778 460 814 q 325 673 354 743 q 296 505 296 604 q 325 337 296 406 q 407 232 354 268 q 533 197 460 197 z "},"Ö":{"ha":1065,"x_min":52,"x_max":1014,"o":"m 533 -14 q 288 46 397 -14 q 115 223 178 107 q 52 505 52 339 q 115 787 52 671 q 288 964 178 903 q 533 1025 397 1025 q 778 964 669 1025 q 950 787 886 903 q 1014 505 1014 671 q 950 223 1014 339 q 778 46 886 107 q 533 -14 669 -14 m 533 197 q 659 232 606 197 q 741 337 712 268 q 769 505 769 406 q 741 673 769 604 q 659 778 712 743 q 533 814 606 814 q 407 778 460 814 q 325 673 354 743 q 296 505 296 604 q 325 337 296 406 q 407 232 354 268 q 533 197 460 197 m 686 1101 q 607 1133 640 1101 q 574 1211 574 1165 q 607 1288 574 1256 q 686 1319 640 1319 q 767 1288 734 1319 q 800 1211 800 1256 q 767 1133 800 1165 q 686 1101 734 1101 m 379 1101 q 299 1133 332 1101 q 267 1211 267 1165 q 299 1288 267 1256 q 379 1319 332 1319 q 459 1288 427 1319 q 492 1211 492 1256 q 459 1133 492 1165 q 379 1101 427 1101 z "},"Õ":{"ha":1065,"x_min":52,"x_max":1014,"o":"m 533 -14 q 288 46 397 -14 q 115 223 178 107 q 52 505 52 339 q 115 787 52 671 q 288 964 178 903 q 533 1025 397 1025 q 778 964 669 1025 q 950 787 886 903 q 1014 505 1014 671 q 950 223 1014 339 q 778 46 886 107 q 533 -14 669 -14 m 533 197 q 659 232 606 197 q 741 337 712 268 q 769 505 769 406 q 741 673 769 604 q 659 778 712 743 q 533 814 606 814 q 407 778 460 814 q 325 673 354 743 q 296 505 296 604 q 325 337 296 406 q 407 232 354 268 q 533 197 460 197 m 630 1113 q 569 1124 595 1113 q 523 1150 543 1135 q 486 1177 503 1165 q 452 1188 469 1188 q 417 1169 429 1188 q 404 1118 405 1150 l 281 1118 q 326 1262 283 1213 q 435 1312 369 1312 q 496 1301 471 1312 q 542 1275 522 1290 q 579 1249 562 1260 q 614 1238 596 1238 q 651 1256 640 1238 q 663 1308 662 1274 l 784 1308 q 739 1163 783 1213 q 630 1113 694 1113 z "},"Ø":{"ha":1065,"x_min":52,"x_max":1014,"o":"m 533 -14 q 288 46 397 -14 q 115 223 178 107 q 52 505 52 339 q 115 787 52 671 q 288 964 178 903 q 533 1025 397 1025 q 778 964 669 1025 q 950 787 886 903 q 1014 505 1014 671 q 950 223 1014 339 q 778 46 886 107 q 533 -14 669 -14 m 533 197 q 659 232 606 197 q 741 337 712 268 q 769 505 769 406 q 741 673 769 604 q 659 778 712 743 q 533 814 606 814 q 407 778 460 814 q 325 673 354 743 q 296 505 296 604 q 325 337 296 406 q 407 232 354 268 q 533 197 460 197 m 205 -50 l 96 31 l 860 1059 l 969 979 l 205 -50 z "},"Ơ":{"ha":1080,"x_min":52,"x_max":1021,"o":"m 541 881 l 541 1025 q 596 1023 572 1025 q 646 1018 621 1021 q 707 1013 672 1015 q 795 1010 742 1010 q 814 1030 814 1010 l 814 1156 l 1021 1156 l 1021 1013 q 976 903 1021 936 q 861 871 930 871 q 788 872 824 871 q 715 876 753 873 q 634 880 677 878 q 541 881 591 881 m 533 -14 q 288 46 397 -14 q 115 223 178 107 q 52 505 52 339 q 115 787 52 671 q 288 964 178 903 q 533 1025 397 1025 q 778 964 669 1025 q 950 787 886 903 q 1014 505 1014 671 q 950 223 1014 339 q 778 46 886 107 q 533 -14 669 -14 m 533 197 q 659 232 606 197 q 741 337 712 268 q 769 505 769 406 q 741 673 769 604 q 659 778 712 743 q 533 814 606 814 q 407 778 460 814 q 325 673 354 743 q 296 505 296 604 q 325 337 296 406 q 407 232 354 268 q 533 197 460 197 z "},"Ò":{"ha":1065,"x_min":52,"x_max":1014,"o":"m 533 -14 q 288 46 397 -14 q 115 223 178 107 q 52 505 52 339 q 115 787 52 671 q 288 964 178 903 q 533 1025 397 1025 q 778 964 669 1025 q 950 787 886 903 q 1014 505 1014 671 q 950 223 1014 339 q 778 46 886 107 q 533 -14 669 -14 m 533 197 q 659 232 606 197 q 741 337 712 268 q 769 505 769 406 q 741 673 769 604 q 659 778 712 743 q 533 814 606 814 q 407 778 460 814 q 325 673 354 743 q 296 505 296 604 q 325 337 296 406 q 407 232 354 268 q 533 197 460 197 m 456 1103 l 302 1320 l 515 1320 l 616 1103 l 456 1103 z "},"Ó":{"ha":1065,"x_min":52,"x_max":1014,"o":"m 533 -14 q 288 46 397 -14 q 115 223 178 107 q 52 505 52 339 q 115 787 52 671 q 288 964 178 903 q 533 1025 397 1025 q 778 964 669 1025 q 950 787 886 903 q 1014 505 1014 671 q 950 223 1014 339 q 778 46 886 107 q 533 -14 669 -14 m 533 197 q 659 232 606 197 q 741 337 712 268 q 769 505 769 406 q 741 673 769 604 q 659 778 712 743 q 533 814 606 814 q 407 778 460 814 q 325 673 354 743 q 296 505 296 604 q 325 337 296 406 q 407 232 354 268 q 533 197 460 197 m 448 1103 l 550 1320 l 762 1320 l 608 1103 l 448 1103 z "},"Ô":{"ha":1065,"x_min":52,"x_max":1014,"o":"m 533 -14 q 288 46 397 -14 q 115 223 178 107 q 52 505 52 339 q 115 787 52 671 q 288 964 178 903 q 533 1025 397 1025 q 778 964 669 1025 q 950 787 886 903 q 1014 505 1014 671 q 950 223 1014 339 q 778 46 886 107 q 533 -14 669 -14 m 533 197 q 659 232 606 197 q 741 337 712 268 q 769 505 769 406 q 741 673 769 604 q 659 778 712 743 q 533 814 606 814 q 407 778 460 814 q 325 673 354 743 q 296 505 296 604 q 325 337 296 406 q 407 232 354 268 q 533 197 460 197 m 439 1107 l 244 1107 l 244 1111 l 446 1320 l 619 1320 l 821 1111 l 821 1107 l 627 1107 l 532 1220 l 439 1107 z "},"Ō":{"ha":1065,"x_min":52,"x_max":1014,"o":"m 533 -14 q 288 46 397 -14 q 115 223 178 107 q 52 505 52 339 q 115 787 52 671 q 288 964 178 903 q 533 1025 397 1025 q 778 964 669 1025 q 950 787 886 903 q 1014 505 1014 671 q 950 223 1014 339 q 778 46 886 107 q 533 -14 669 -14 m 533 197 q 659 232 606 197 q 741 337 712 268 q 769 505 769 406 q 741 673 769 604 q 659 778 712 743 q 533 814 606 814 q 407 778 460 814 q 325 673 354 743 q 296 505 296 604 q 325 337 296 406 q 407 232 354 268 q 533 197 460 197 m 732 1280 l 732 1138 l 333 1138 l 333 1280 l 732 1280 z "},"Ŏ":{"ha":1065,"x_min":52,"x_max":1014,"o":"m 533 -14 q 288 46 397 -14 q 115 223 178 107 q 52 505 52 339 q 115 787 52 671 q 288 964 178 903 q 533 1025 397 1025 q 778 964 669 1025 q 950 787 886 903 q 1014 505 1014 671 q 950 223 1014 339 q 778 46 886 107 q 533 -14 669 -14 m 533 197 q 659 232 606 197 q 741 337 712 268 q 769 505 769 406 q 741 673 769 604 q 659 778 712 743 q 533 814 606 814 q 407 778 460 814 q 325 673 354 743 q 296 505 296 604 q 325 337 296 406 q 407 232 354 268 q 533 197 460 197 m 533 1097 q 406 1126 462 1097 q 316 1205 349 1156 q 283 1316 283 1255 l 415 1316 q 449 1246 415 1274 q 533 1218 483 1218 q 616 1246 583 1218 q 650 1316 650 1274 l 782 1316 q 749 1205 782 1255 q 660 1126 716 1156 q 533 1097 604 1097 z "},"Ő":{"ha":1065,"x_min":52,"x_max":1014,"o":"m 533 -14 q 288 46 397 -14 q 115 223 178 107 q 52 505 52 339 q 115 787 52 671 q 288 964 178 903 q 533 1025 397 1025 q 778 964 669 1025 q 950 787 886 903 q 1014 505 1014 671 q 950 223 1014 339 q 778 46 886 107 q 533 -14 669 -14 m 533 197 q 659 232 606 197 q 741 337 712 268 q 769 505 769 406 q 741 673 769 604 q 659 778 712 743 q 533 814 606 814 q 407 778 460 814 q 325 673 354 743 q 296 505 296 604 q 325 337 296 406 q 407 232 354 268 q 533 197 460 197 m 441 1103 l 282 1103 l 357 1320 l 557 1320 l 441 1103 m 687 1103 l 523 1103 l 644 1320 l 861 1320 l 687 1103 z "},"Ǒ":{"ha":1065,"x_min":52,"x_max":1014,"o":"m 533 -14 q 288 46 397 -14 q 115 223 178 107 q 52 505 52 339 q 115 787 52 671 q 288 964 178 903 q 533 1025 397 1025 q 778 964 669 1025 q 950 787 886 903 q 1014 505 1014 671 q 950 223 1014 339 q 778 46 886 107 q 533 -14 669 -14 m 533 197 q 659 232 606 197 q 741 337 712 268 q 769 505 769 406 q 741 673 769 604 q 659 778 712 743 q 533 814 606 814 q 407 778 460 814 q 325 673 354 743 q 296 505 296 604 q 325 337 296 406 q 407 232 354 268 q 533 197 460 197 m 439 1320 l 532 1206 l 627 1320 l 821 1320 l 821 1316 l 619 1107 l 446 1107 l 244 1316 l 244 1320 l 439 1320 z "},"Ǫ":{"ha":1065,"x_min":52,"x_max":1014,"o":"m 533 -14 q 288 46 397 -14 q 115 223 178 107 q 52 505 52 339 q 115 787 52 671 q 288 964 178 903 q 533 1025 397 1025 q 778 964 669 1025 q 950 787 886 903 q 1014 505 1014 671 q 950 223 1014 339 q 778 46 886 107 q 533 -14 669 -14 m 533 197 q 659 232 606 197 q 741 337 712 268 q 769 505 769 406 q 741 673 769 604 q 659 778 712 743 q 533 814 606 814 q 407 778 460 814 q 325 673 354 743 q 296 505 296 604 q 325 337 296 406 q 407 232 354 268 q 533 197 460 197 m 573 -289 q 434 -250 486 -289 q 382 -142 382 -212 q 413 -53 382 -89 q 495 11 444 -17 q 607 65 546 38 q 729 126 668 92 q 840 209 789 160 q 922 329 891 258 q 953 505 953 401 l 1014 505 q 991 317 1014 395 q 930 183 968 238 q 846 92 892 129 q 755 30 801 56 q 671 -15 709 5 q 610 -57 633 -35 q 587 -106 587 -78 q 600 -141 587 -129 q 635 -154 612 -154 q 659 -151 648 -154 q 682 -142 671 -148 l 716 -262 q 651 -281 690 -274 q 573 -289 611 -289 z "},"Ǭ":{"ha":1065,"x_min":52,"x_max":1014,"o":"m 533 -14 q 288 46 397 -14 q 115 223 178 107 q 52 505 52 339 q 115 787 52 671 q 288 964 178 903 q 533 1025 397 1025 q 778 964 669 1025 q 950 787 886 903 q 1014 505 1014 671 q 950 223 1014 339 q 778 46 886 107 q 533 -14 669 -14 m 533 197 q 659 232 606 197 q 741 337 712 268 q 769 505 769 406 q 741 673 769 604 q 659 778 712 743 q 533 814 606 814 q 407 778 460 814 q 325 673 354 743 q 296 505 296 604 q 325 337 296 406 q 407 232 354 268 q 533 197 460 197 m 573 -289 q 434 -250 486 -289 q 382 -142 382 -212 q 413 -53 382 -89 q 495 11 444 -17 q 607 65 546 38 q 729 126 668 92 q 840 209 789 160 q 922 329 891 258 q 953 505 953 401 l 1014 505 q 991 317 1014 395 q 930 183 968 238 q 846 92 892 129 q 755 30 801 56 q 671 -15 709 5 q 610 -57 633 -35 q 587 -106 587 -78 q 600 -141 587 -129 q 635 -154 612 -154 q 659 -151 648 -154 q 682 -142 671 -148 l 716 -262 q 651 -281 690 -274 q 573 -289 611 -289 m 732 1280 l 732 1138 l 333 1138 l 333 1280 l 732 1280 z "},"Ȍ":{"ha":1065,"x_min":52,"x_max":1014,"o":"m 533 -14 q 288 46 397 -14 q 115 223 178 107 q 52 505 52 339 q 115 787 52 671 q 288 964 178 903 q 533 1025 397 1025 q 778 964 669 1025 q 950 787 886 903 q 1014 505 1014 671 q 950 223 1014 339 q 778 46 886 107 q 533 -14 669 -14 m 533 197 q 659 232 606 197 q 741 337 712 268 q 769 505 769 406 q 741 673 769 604 q 659 778 712 743 q 533 814 606 814 q 407 778 460 814 q 325 673 354 743 q 296 505 296 604 q 325 337 296 406 q 407 232 354 268 q 533 197 460 197 m 579 1103 l 463 1320 l 664 1320 l 739 1103 l 579 1103 m 334 1103 l 159 1320 l 377 1320 l 498 1103 l 334 1103 z "},"Ȏ":{"ha":1065,"x_min":52,"x_max":1014,"o":"m 533 -14 q 288 46 397 -14 q 115 223 178 107 q 52 505 52 339 q 115 787 52 671 q 288 964 178 903 q 533 1025 397 1025 q 778 964 669 1025 q 950 787 886 903 q 1014 505 1014 671 q 950 223 1014 339 q 778 46 886 107 q 533 -14 669 -14 m 533 197 q 659 232 606 197 q 741 337 712 268 q 769 505 769 406 q 741 673 769 604 q 659 778 712 743 q 533 814 606 814 q 407 778 460 814 q 325 673 354 743 q 296 505 296 604 q 325 337 296 406 q 407 232 354 268 q 533 197 460 197 m 532 1327 q 661 1298 604 1327 q 750 1219 718 1268 q 783 1107 783 1169 l 651 1107 q 617 1177 651 1149 q 532 1205 583 1205 q 448 1177 482 1205 q 413 1107 413 1149 l 281 1107 q 314 1219 281 1169 q 404 1298 347 1268 q 532 1327 461 1327 z "},"Ȫ":{"ha":1065,"x_min":52,"x_max":1014,"o":"m 533 -14 q 288 46 397 -14 q 115 223 178 107 q 52 505 52 339 q 115 787 52 671 q 288 964 178 903 q 533 1025 397 1025 q 778 964 669 1025 q 950 787 886 903 q 1014 505 1014 671 q 950 223 1014 339 q 778 46 886 107 q 533 -14 669 -14 m 533 197 q 659 232 606 197 q 741 337 712 268 q 769 505 769 406 q 741 673 769 604 q 659 778 712 743 q 533 814 606 814 q 407 778 460 814 q 325 673 354 743 q 296 505 296 604 q 325 337 296 406 q 407 232 354 268 q 533 197 460 197 m 685 1086 q 605 1118 638 1086 q 572 1196 572 1150 q 605 1273 572 1241 q 685 1304 638 1304 q 765 1273 732 1304 q 798 1196 798 1241 q 765 1118 798 1149 q 685 1086 732 1086 m 378 1086 q 298 1118 330 1086 q 265 1196 265 1150 q 298 1273 265 1241 q 378 1304 331 1304 q 458 1273 425 1304 q 491 1196 491 1241 q 458 1118 491 1149 q 378 1086 425 1086 m 733 1500 l 733 1381 l 334 1381 l 334 1500 l 733 1500 z "},"Ȭ":{"ha":1065,"x_min":52,"x_max":1014,"o":"m 533 -14 q 288 46 397 -14 q 115 223 178 107 q 52 505 52 339 q 115 787 52 671 q 288 964 178 903 q 533 1025 397 1025 q 778 964 669 1025 q 950 787 886 903 q 1014 505 1014 671 q 950 223 1014 339 q 778 46 886 107 q 533 -14 669 -14 m 533 197 q 659 232 606 197 q 741 337 712 268 q 769 505 769 406 q 741 673 769 604 q 659 778 712 743 q 533 814 606 814 q 407 778 460 814 q 325 673 354 743 q 296 505 296 604 q 325 337 296 406 q 407 232 354 268 q 533 197 460 197 m 631 1098 q 569 1109 595 1098 q 523 1136 543 1120 q 487 1162 503 1151 q 452 1173 470 1173 q 418 1154 430 1173 q 404 1103 406 1135 l 282 1103 q 327 1248 284 1198 q 436 1297 370 1297 q 497 1286 471 1297 q 543 1260 523 1275 q 580 1234 563 1245 q 614 1223 597 1223 q 651 1241 640 1223 q 664 1293 663 1259 l 785 1293 q 739 1148 783 1199 q 631 1098 695 1098 m 733 1500 l 733 1381 l 334 1381 l 334 1500 l 733 1500 z "},"Ȯ":{"ha":1065,"x_min":52,"x_max":1014,"o":"m 533 -14 q 288 46 397 -14 q 115 223 178 107 q 52 505 52 339 q 115 787 52 671 q 288 964 178 903 q 533 1025 397 1025 q 778 964 669 1025 q 950 787 886 903 q 1014 505 1014 671 q 950 223 1014 339 q 778 46 886 107 q 533 -14 669 -14 m 533 197 q 659 232 606 197 q 741 337 712 268 q 769 505 769 406 q 741 673 769 604 q 659 778 712 743 q 533 814 606 814 q 407 778 460 814 q 325 673 354 743 q 296 505 296 604 q 325 337 296 406 q 407 232 354 268 q 533 197 460 197 m 533 1095 q 445 1128 481 1095 q 409 1210 409 1162 q 445 1292 409 1259 q 533 1325 481 1325 q 621 1292 585 1325 q 656 1210 656 1259 q 621 1128 656 1162 q 533 1095 585 1095 z "},"Ȱ":{"ha":1065,"x_min":52,"x_max":1014,"o":"m 533 -14 q 288 46 397 -14 q 115 223 178 107 q 52 505 52 339 q 115 787 52 671 q 288 964 178 903 q 533 1025 397 1025 q 778 964 669 1025 q 950 787 886 903 q 1014 505 1014 671 q 950 223 1014 339 q 778 46 886 107 q 533 -14 669 -14 m 533 197 q 659 232 606 197 q 741 337 712 268 q 769 505 769 406 q 741 673 769 604 q 659 778 712 743 q 533 814 606 814 q 407 778 460 814 q 325 673 354 743 q 296 505 296 604 q 325 337 296 406 q 407 232 354 268 q 533 197 460 197 m 533 1080 q 445 1113 481 1080 q 409 1195 409 1147 q 445 1277 409 1244 q 533 1310 481 1310 q 621 1277 585 1310 q 656 1195 656 1244 q 621 1113 656 1147 q 533 1080 585 1080 m 732 1500 l 732 1381 l 334 1381 l 334 1500 l 732 1500 z "},"Ṍ":{"ha":1065,"x_min":52,"x_max":1014,"o":"m 533 -14 q 288 46 397 -14 q 115 223 178 107 q 52 505 52 339 q 115 787 52 671 q 288 964 178 903 q 533 1025 397 1025 q 778 964 669 1025 q 950 787 886 903 q 1014 505 1014 671 q 950 223 1014 339 q 778 46 886 107 q 533 -14 669 -14 m 533 197 q 659 232 606 197 q 741 337 712 268 q 769 505 769 406 q 741 673 769 604 q 659 778 712 743 q 533 814 606 814 q 407 778 460 814 q 325 673 354 743 q 296 505 296 604 q 325 337 296 406 q 407 232 354 268 q 533 197 460 197 m 631 1098 q 569 1109 595 1098 q 523 1136 543 1120 q 487 1162 503 1151 q 452 1173 470 1173 q 418 1154 430 1173 q 404 1103 406 1135 l 282 1103 q 327 1248 284 1198 q 436 1297 370 1297 q 497 1286 471 1297 q 543 1260 523 1275 q 580 1234 563 1245 q 614 1223 597 1223 q 651 1241 640 1223 q 664 1293 663 1259 l 785 1293 q 739 1148 783 1199 q 631 1098 695 1098 m 457 1353 l 545 1536 l 726 1536 l 593 1353 l 457 1353 z "},"Ṏ":{"ha":1065,"x_min":52,"x_max":1014,"o":"m 533 -14 q 288 46 397 -14 q 115 223 178 107 q 52 505 52 339 q 115 787 52 671 q 288 964 178 903 q 533 1025 397 1025 q 778 964 669 1025 q 950 787 886 903 q 1014 505 1014 671 q 950 223 1014 339 q 778 46 886 107 q 533 -14 669 -14 m 533 197 q 659 232 606 197 q 741 337 712 268 q 769 505 769 406 q 741 673 769 604 q 659 778 712 743 q 533 814 606 814 q 407 778 460 814 q 325 673 354 743 q 296 505 296 604 q 325 337 296 406 q 407 232 354 268 q 533 197 460 197 m 630 1098 q 569 1109 595 1098 q 523 1135 543 1120 q 486 1161 503 1150 q 452 1173 469 1173 q 417 1154 429 1173 q 404 1103 405 1135 l 281 1103 q 326 1246 283 1198 q 435 1295 369 1295 q 496 1284 471 1295 q 542 1259 522 1274 q 579 1233 562 1244 q 614 1222 596 1222 q 651 1240 640 1222 q 663 1292 662 1258 l 784 1292 q 739 1148 783 1198 q 630 1098 694 1098 m 682 1348 q 604 1376 636 1348 q 572 1446 572 1404 q 604 1515 572 1487 q 682 1544 636 1544 q 760 1515 728 1544 q 792 1446 792 1487 q 760 1376 792 1404 q 682 1348 728 1348 m 381 1348 q 303 1376 335 1348 q 271 1446 271 1404 q 303 1515 271 1487 q 381 1544 335 1544 q 459 1515 427 1544 q 491 1446 491 1487 q 459 1376 491 1404 q 381 1348 427 1348 z "},"Ṑ":{"ha":1065,"x_min":52,"x_max":1014,"o":"m 533 -14 q 288 46 397 -14 q 115 223 178 107 q 52 505 52 339 q 115 787 52 671 q 288 964 178 903 q 533 1025 397 1025 q 778 964 669 1025 q 950 787 886 903 q 1014 505 1014 671 q 950 223 1014 339 q 778 46 886 107 q 533 -14 669 -14 m 533 197 q 659 232 606 197 q 741 337 712 268 q 769 505 769 406 q 741 673 769 604 q 659 778 712 743 q 533 814 606 814 q 407 778 460 814 q 325 673 354 743 q 296 505 296 604 q 325 337 296 406 q 407 232 354 268 q 533 197 460 197 m 733 1266 l 733 1124 l 334 1124 l 334 1266 l 733 1266 m 473 1352 l 340 1536 l 521 1536 l 609 1352 l 473 1352 z "},"Ṓ":{"ha":1065,"x_min":52,"x_max":1014,"o":"m 533 -14 q 288 46 397 -14 q 115 223 178 107 q 52 505 52 339 q 115 787 52 671 q 288 964 178 903 q 533 1025 397 1025 q 778 964 669 1025 q 950 787 886 903 q 1014 505 1014 671 q 950 223 1014 339 q 778 46 886 107 q 533 -14 669 -14 m 533 197 q 659 232 606 197 q 741 337 712 268 q 769 505 769 406 q 741 673 769 604 q 659 778 712 743 q 533 814 606 814 q 407 778 460 814 q 325 673 354 743 q 296 505 296 604 q 325 337 296 406 q 407 232 354 268 q 533 197 460 197 m 733 1265 l 733 1123 l 334 1123 l 334 1265 l 733 1265 m 466 1352 l 553 1536 l 734 1536 l 601 1352 l 466 1352 z "},"Ọ":{"ha":1065,"x_min":52,"x_max":1014,"o":"m 533 -14 q 288 46 397 -14 q 115 223 178 107 q 52 505 52 339 q 115 787 52 671 q 288 964 178 903 q 533 1025 397 1025 q 778 964 669 1025 q 950 787 886 903 q 1014 505 1014 671 q 950 223 1014 339 q 778 46 886 107 q 533 -14 669 -14 m 533 197 q 659 232 606 197 q 741 337 712 268 q 769 505 769 406 q 741 673 769 604 q 659 778 712 743 q 533 814 606 814 q 407 778 460 814 q 325 673 354 743 q 296 505 296 604 q 325 337 296 406 q 407 232 354 268 q 533 197 460 197 m 533 -319 q 445 -286 481 -319 q 409 -205 409 -253 q 445 -123 409 -156 q 533 -90 481 -90 q 621 -123 585 -90 q 656 -205 656 -156 q 621 -286 656 -253 q 533 -319 585 -319 z "},"Ỏ":{"ha":1065,"x_min":52,"x_max":1014,"o":"m 533 -14 q 288 46 397 -14 q 115 223 178 107 q 52 505 52 339 q 115 787 52 671 q 288 964 178 903 q 533 1025 397 1025 q 778 964 669 1025 q 950 787 886 903 q 1014 505 1014 671 q 950 223 1014 339 q 778 46 886 107 q 533 -14 669 -14 m 533 197 q 659 232 606 197 q 741 337 712 268 q 769 505 769 406 q 741 673 769 604 q 659 778 712 743 q 533 814 606 814 q 407 778 460 814 q 325 673 354 743 q 296 505 296 604 q 325 337 296 406 q 407 232 354 268 q 533 197 460 197 m 594 1103 l 460 1103 l 513 1194 q 514 1202 515 1199 q 507 1204 513 1204 l 394 1204 l 394 1320 l 509 1320 q 607 1303 572 1320 q 654 1261 642 1287 q 660 1205 667 1235 q 631 1149 652 1176 l 594 1103 z "},"Ố":{"ha":1065,"x_min":52,"x_max":1014,"o":"m 533 -14 q 288 46 397 -14 q 115 223 178 107 q 52 505 52 339 q 115 787 52 671 q 288 964 178 903 q 533 1025 397 1025 q 778 964 669 1025 q 950 787 886 903 q 1014 505 1014 671 q 950 223 1014 339 q 778 46 886 107 q 533 -14 669 -14 m 533 197 q 659 232 606 197 q 741 337 712 268 q 769 505 769 406 q 741 673 769 604 q 659 778 712 743 q 533 814 606 814 q 407 778 460 814 q 325 673 354 743 q 296 505 296 604 q 325 337 296 406 q 407 232 354 268 q 533 197 460 197 m 439 1091 l 245 1091 l 245 1095 l 446 1304 l 620 1304 l 822 1095 l 822 1091 l 628 1091 l 533 1205 l 439 1091 m 636 1350 l 722 1533 l 899 1533 l 769 1350 l 636 1350 z "},"Ồ":{"ha":1065,"x_min":52,"x_max":1014,"o":"m 533 -14 q 288 46 397 -14 q 115 223 178 107 q 52 505 52 339 q 115 787 52 671 q 288 964 178 903 q 533 1025 397 1025 q 778 964 669 1025 q 950 787 886 903 q 1014 505 1014 671 q 950 223 1014 339 q 778 46 886 107 q 533 -14 669 -14 m 533 197 q 659 232 606 197 q 741 337 712 268 q 769 505 769 406 q 741 673 769 604 q 659 778 712 743 q 533 814 606 814 q 407 778 460 814 q 325 673 354 743 q 296 505 296 604 q 325 337 296 406 q 407 232 354 268 q 533 197 460 197 m 439 1091 l 245 1091 l 245 1095 l 446 1304 l 620 1304 l 822 1095 l 822 1091 l 628 1091 l 533 1205 l 439 1091 m 704 1350 l 574 1533 l 751 1533 l 837 1350 l 704 1350 z "},"Ổ":{"ha":1065,"x_min":52,"x_max":1014,"o":"m 533 -14 q 288 46 397 -14 q 115 223 178 107 q 52 505 52 339 q 115 787 52 671 q 288 964 178 903 q 533 1025 397 1025 q 778 964 669 1025 q 950 787 886 903 q 1014 505 1014 671 q 950 223 1014 339 q 778 46 886 107 q 533 -14 669 -14 m 533 197 q 659 232 606 197 q 741 337 712 268 q 769 505 769 406 q 741 673 769 604 q 659 778 712 743 q 533 814 606 814 q 407 778 460 814 q 325 673 354 743 q 296 505 296 604 q 325 337 296 406 q 407 232 354 268 q 533 197 460 197 m 439 1091 l 245 1091 l 245 1095 l 446 1304 l 620 1304 l 822 1095 l 822 1091 l 628 1091 l 533 1205 l 439 1091 m 749 1350 l 637 1350 l 681 1426 q 682 1433 683 1430 q 675 1435 680 1435 l 581 1435 l 581 1533 l 677 1533 q 777 1509 747 1533 q 805 1451 806 1485 q 779 1388 804 1417 l 749 1350 z "},"Ỗ":{"ha":1065,"x_min":52,"x_max":1014,"o":"m 533 -14 q 288 46 397 -14 q 115 223 178 107 q 52 505 52 339 q 115 787 52 671 q 288 964 178 903 q 533 1025 397 1025 q 778 964 669 1025 q 950 787 886 903 q 1014 505 1014 671 q 950 223 1014 339 q 778 46 886 107 q 533 -14 669 -14 m 533 197 q 659 232 606 197 q 741 337 712 268 q 769 505 769 406 q 741 673 769 604 q 659 778 712 743 q 533 814 606 814 q 407 778 460 814 q 325 673 354 743 q 296 505 296 604 q 325 337 296 406 q 407 232 354 268 q 533 197 460 197 m 439 1091 l 245 1091 l 245 1095 l 446 1304 l 620 1304 l 822 1095 l 822 1091 l 628 1091 l 533 1205 l 439 1091 m 631 1355 q 569 1365 595 1355 q 524 1388 543 1375 q 487 1411 504 1401 q 452 1421 470 1421 q 418 1404 430 1421 q 405 1359 406 1388 l 282 1359 q 327 1486 284 1442 q 436 1529 370 1529 q 497 1519 471 1529 q 543 1496 524 1509 q 580 1474 563 1484 q 614 1464 597 1464 q 651 1480 640 1464 q 664 1525 663 1496 l 785 1525 q 740 1399 783 1443 q 631 1355 696 1355 z "},"Ộ":{"ha":1065,"x_min":52,"x_max":1014,"o":"m 533 -14 q 288 46 397 -14 q 115 223 178 107 q 52 505 52 339 q 115 787 52 671 q 288 964 178 903 q 533 1025 397 1025 q 778 964 669 1025 q 950 787 886 903 q 1014 505 1014 671 q 950 223 1014 339 q 778 46 886 107 q 533 -14 669 -14 m 533 197 q 659 232 606 197 q 741 337 712 268 q 769 505 769 406 q 741 673 769 604 q 659 778 712 743 q 533 814 606 814 q 407 778 460 814 q 325 673 354 743 q 296 505 296 604 q 325 337 296 406 q 407 232 354 268 q 533 197 460 197 m 439 1107 l 244 1107 l 244 1111 l 446 1320 l 619 1320 l 821 1111 l 821 1107 l 627 1107 l 532 1220 l 439 1107 m 533 -319 q 445 -286 481 -319 q 409 -205 409 -253 q 445 -123 409 -156 q 533 -90 481 -90 q 621 -123 585 -90 q 656 -205 656 -156 q 621 -286 656 -253 q 533 -319 585 -319 z "},"Ớ":{"ha":1080,"x_min":52,"x_max":1021,"o":"m 541 881 l 541 1025 q 596 1023 572 1025 q 646 1018 621 1021 q 707 1013 672 1015 q 795 1010 742 1010 q 814 1030 814 1010 l 814 1156 l 1021 1156 l 1021 1013 q 976 903 1021 936 q 861 871 930 871 q 788 872 824 871 q 715 876 753 873 q 634 880 677 878 q 541 881 591 881 m 533 -14 q 288 46 397 -14 q 115 223 178 107 q 52 505 52 339 q 115 787 52 671 q 288 964 178 903 q 533 1025 397 1025 q 778 964 669 1025 q 950 787 886 903 q 1014 505 1014 671 q 950 223 1014 339 q 778 46 886 107 q 533 -14 669 -14 m 533 197 q 659 232 606 197 q 741 337 712 268 q 769 505 769 406 q 741 673 769 604 q 659 778 712 743 q 533 814 606 814 q 407 778 460 814 q 325 673 354 743 q 296 505 296 604 q 325 337 296 406 q 407 232 354 268 q 533 197 460 197 m 448 1103 l 550 1320 l 762 1320 l 608 1103 l 448 1103 z "},"Ờ":{"ha":1080,"x_min":52,"x_max":1021,"o":"m 541 881 l 541 1025 q 596 1023 572 1025 q 646 1018 621 1021 q 707 1013 672 1015 q 795 1010 742 1010 q 814 1030 814 1010 l 814 1156 l 1021 1156 l 1021 1013 q 976 903 1021 936 q 861 871 930 871 q 788 872 824 871 q 715 876 753 873 q 634 880 677 878 q 541 881 591 881 m 533 -14 q 288 46 397 -14 q 115 223 178 107 q 52 505 52 339 q 115 787 52 671 q 288 964 178 903 q 533 1025 397 1025 q 778 964 669 1025 q 950 787 886 903 q 1014 505 1014 671 q 950 223 1014 339 q 778 46 886 107 q 533 -14 669 -14 m 533 197 q 659 232 606 197 q 741 337 712 268 q 769 505 769 406 q 741 673 769 604 q 659 778 712 743 q 533 814 606 814 q 407 778 460 814 q 325 673 354 743 q 296 505 296 604 q 325 337 296 406 q 407 232 354 268 q 533 197 460 197 m 456 1103 l 302 1320 l 515 1320 l 616 1103 l 456 1103 z "},"Ở":{"ha":1080,"x_min":52,"x_max":1021,"o":"m 541 881 l 541 1025 q 596 1023 572 1025 q 646 1018 621 1021 q 707 1013 672 1015 q 795 1010 742 1010 q 814 1030 814 1010 l 814 1156 l 1021 1156 l 1021 1013 q 976 903 1021 936 q 861 871 930 871 q 788 872 824 871 q 715 876 753 873 q 634 880 677 878 q 541 881 591 881 m 533 -14 q 288 46 397 -14 q 115 223 178 107 q 52 505 52 339 q 115 787 52 671 q 288 964 178 903 q 533 1025 397 1025 q 778 964 669 1025 q 950 787 886 903 q 1014 505 1014 671 q 950 223 1014 339 q 778 46 886 107 q 533 -14 669 -14 m 533 197 q 659 232 606 197 q 741 337 712 268 q 769 505 769 406 q 741 673 769 604 q 659 778 712 743 q 533 814 606 814 q 407 778 460 814 q 325 673 354 743 q 296 505 296 604 q 325 337 296 406 q 407 232 354 268 q 533 197 460 197 m 594 1103 l 460 1103 l 513 1194 q 514 1202 515 1199 q 507 1204 513 1204 l 394 1204 l 394 1320 l 509 1320 q 607 1303 572 1320 q 654 1261 642 1287 q 660 1205 667 1235 q 631 1149 652 1176 l 594 1103 z "},"Ỡ":{"ha":1080,"x_min":52,"x_max":1021,"o":"m 541 881 l 541 1025 q 596 1023 572 1025 q 646 1018 621 1021 q 707 1013 672 1015 q 795 1010 742 1010 q 814 1030 814 1010 l 814 1156 l 1021 1156 l 1021 1013 q 976 903 1021 936 q 861 871 930 871 q 788 872 824 871 q 715 876 753 873 q 634 880 677 878 q 541 881 591 881 m 533 -14 q 288 46 397 -14 q 115 223 178 107 q 52 505 52 339 q 115 787 52 671 q 288 964 178 903 q 533 1025 397 1025 q 778 964 669 1025 q 950 787 886 903 q 1014 505 1014 671 q 950 223 1014 339 q 778 46 886 107 q 533 -14 669 -14 m 533 197 q 659 232 606 197 q 741 337 712 268 q 769 505 769 406 q 741 673 769 604 q 659 778 712 743 q 533 814 606 814 q 407 778 460 814 q 325 673 354 743 q 296 505 296 604 q 325 337 296 406 q 407 232 354 268 q 533 197 460 197 m 630 1113 q 569 1124 595 1113 q 523 1150 543 1135 q 486 1177 503 1165 q 452 1188 469 1188 q 417 1169 429 1188 q 404 1118 405 1150 l 281 1118 q 326 1262 283 1213 q 435 1312 369 1312 q 496 1301 471 1312 q 542 1275 522 1290 q 579 1249 562 1260 q 614 1238 596 1238 q 651 1256 640 1238 q 663 1308 662 1274 l 784 1308 q 739 1163 783 1213 q 630 1113 694 1113 z "},"Ợ":{"ha":1080,"x_min":52,"x_max":1021,"o":"m 541 881 l 541 1025 q 596 1023 572 1025 q 646 1018 621 1021 q 707 1013 672 1015 q 795 1010 742 1010 q 814 1030 814 1010 l 814 1156 l 1021 1156 l 1021 1013 q 976 903 1021 936 q 861 871 930 871 q 788 872 824 871 q 715 876 753 873 q 634 880 677 878 q 541 881 591 881 m 533 -14 q 288 46 397 -14 q 115 223 178 107 q 52 505 52 339 q 115 787 52 671 q 288 964 178 903 q 533 1025 397 1025 q 778 964 669 1025 q 950 787 886 903 q 1014 505 1014 671 q 950 223 1014 339 q 778 46 886 107 q 533 -14 669 -14 m 533 197 q 659 232 606 197 q 741 337 712 268 q 769 505 769 406 q 741 673 769 604 q 659 778 712 743 q 533 814 606 814 q 407 778 460 814 q 325 673 354 743 q 296 505 296 604 q 325 337 296 406 q 407 232 354 268 q 533 197 460 197 m 533 -319 q 445 -286 481 -319 q 409 -205 409 -253 q 445 -123 409 -156 q 533 -90 481 -90 q 621 -123 585 -90 q 656 -205 656 -156 q 621 -286 656 -253 q 533 -319 585 -319 z "},"Ǿ":{"ha":1065,"x_min":52,"x_max":1014,"o":"m 533 -14 q 288 46 397 -14 q 115 223 178 107 q 52 505 52 339 q 115 787 52 671 q 288 964 178 903 q 533 1025 397 1025 q 778 964 669 1025 q 950 787 886 903 q 1014 505 1014 671 q 950 223 1014 339 q 778 46 886 107 q 533 -14 669 -14 m 533 197 q 659 232 606 197 q 741 337 712 268 q 769 505 769 406 q 741 673 769 604 q 659 778 712 743 q 533 814 606 814 q 407 778 460 814 q 325 673 354 743 q 296 505 296 604 q 325 337 296 406 q 407 232 354 268 q 533 197 460 197 m 205 -50 l 96 31 l 860 1059 l 969 979 l 205 -50 m 448 1103 l 550 1320 l 762 1320 l 608 1103 l 448 1103 z "},"Ο":{"ha":1065,"x_min":52,"x_max":1014,"o":"m 533 -14 q 288 46 397 -14 q 115 223 178 107 q 52 505 52 339 q 115 787 52 671 q 288 964 178 903 q 533 1025 397 1025 q 778 964 669 1025 q 950 787 886 903 q 1014 505 1014 671 q 950 223 1014 339 q 778 46 886 107 q 533 -14 669 -14 m 533 197 q 659 232 606 197 q 741 337 712 268 q 769 505 769 406 q 741 673 769 604 q 659 778 712 743 q 533 814 606 814 q 407 778 460 814 q 325 673 354 743 q 296 505 296 604 q 325 337 296 406 q 407 232 354 268 q 533 197 460 197 z "},"Ό":{"ha":1288,"x_min":41,"x_max":1220,"o":"m 739 -14 q 494 46 603 -14 q 321 223 385 107 q 258 505 258 339 q 321 787 258 671 q 494 964 385 903 q 739 1025 603 1025 q 984 964 875 1025 q 1156 787 1093 903 q 1220 505 1220 671 q 1156 223 1220 339 q 984 46 1093 107 q 739 -14 875 -14 m 739 197 q 865 232 812 197 q 947 337 918 268 q 975 505 975 406 q 947 673 975 604 q 865 778 918 743 q 739 814 812 814 q 613 778 666 814 q 531 673 560 743 q 503 505 503 604 q 531 337 503 406 q 613 232 560 268 q 739 197 666 197 m 41 794 l 64 1010 l 267 1010 l 177 794 l 41 794 z "},"Ὀ":{"ha":1276,"x_min":41,"x_max":1208,"o":"m 727 -14 q 481 46 591 -14 q 309 223 372 107 q 245 505 245 339 q 309 787 245 671 q 481 964 372 903 q 727 1025 591 1025 q 971 964 863 1025 q 1144 787 1080 903 q 1208 505 1208 671 q 1144 223 1208 339 q 971 46 1080 107 q 727 -14 863 -14 m 727 197 q 853 232 800 197 q 935 337 906 268 q 963 505 963 406 q 935 673 963 604 q 853 778 906 743 q 727 814 800 814 q 601 778 654 814 q 519 673 548 743 q 490 505 490 604 q 519 337 490 406 q 601 232 548 268 q 727 197 654 197 m 72 788 l 63 788 l 63 848 l 73 848 q 127 858 109 848 q 145 888 145 867 q 129 915 145 906 q 81 924 113 924 l 41 924 l 41 1026 l 72 1026 q 210 994 161 1026 q 258 905 258 962 q 210 818 258 848 q 72 788 161 788 z "},"Ὁ":{"ha":1292,"x_min":41,"x_max":1225,"o":"m 744 -14 q 498 46 608 -14 q 326 223 389 107 q 262 505 262 339 q 326 787 262 671 q 498 964 389 903 q 744 1025 608 1025 q 988 964 880 1025 q 1161 787 1097 903 q 1225 505 1225 671 q 1161 223 1225 339 q 988 46 1097 107 q 744 -14 880 -14 m 744 197 q 870 232 817 197 q 951 337 923 268 q 980 505 980 406 q 951 673 980 604 q 870 778 923 743 q 744 814 817 814 q 618 778 671 814 q 536 673 565 743 q 507 505 507 604 q 536 337 507 406 q 618 232 565 268 q 744 197 671 197 m 228 777 q 90 807 139 777 q 41 894 41 837 q 90 983 41 951 q 228 1015 138 1015 l 258 1015 l 258 913 l 219 913 q 171 904 186 913 q 155 876 155 895 q 173 846 155 856 q 226 836 191 836 l 237 836 l 237 777 l 228 777 z "},"Ὂ":{"ha":1540,"x_min":41,"x_max":1472,"o":"m 991 -14 q 746 46 855 -14 q 573 223 637 107 q 510 505 510 339 q 573 787 510 671 q 746 964 637 903 q 991 1025 855 1025 q 1236 964 1127 1025 q 1409 787 1345 903 q 1472 505 1472 671 q 1409 223 1472 339 q 1236 46 1345 107 q 991 -14 1127 -14 m 991 197 q 1118 232 1065 197 q 1199 337 1171 268 q 1227 505 1227 406 q 1199 673 1227 604 q 1118 778 1171 743 q 991 814 1065 814 q 865 778 918 814 q 784 673 812 743 q 755 505 755 604 q 784 337 755 406 q 865 232 812 268 q 991 197 918 197 m 72 777 l 63 777 l 63 836 l 73 836 q 127 846 109 836 q 145 876 145 856 q 129 904 145 895 q 81 913 113 913 l 41 913 l 41 1015 l 72 1015 q 210 983 161 1015 q 258 894 258 951 q 210 807 258 837 q 72 777 161 777 m 478 785 l 359 785 l 279 1010 l 458 1010 l 478 785 z "},"Ὃ":{"ha":1571,"x_min":41,"x_max":1503,"o":"m 1022 -14 q 777 46 886 -14 q 604 223 667 107 q 541 505 541 339 q 604 787 541 671 q 777 964 667 903 q 1022 1025 886 1025 q 1266 964 1158 1025 q 1439 787 1375 903 q 1503 505 1503 671 q 1439 223 1503 339 q 1266 46 1375 107 q 1022 -14 1158 -14 m 1022 197 q 1148 232 1095 197 q 1230 337 1201 268 q 1258 505 1258 406 q 1230 673 1258 604 q 1148 778 1201 743 q 1022 814 1095 814 q 896 778 949 814 q 814 673 843 743 q 785 505 785 604 q 814 337 785 406 q 896 232 843 268 q 1022 197 949 197 m 228 777 q 90 807 139 777 q 41 894 41 837 q 90 983 41 951 q 228 1015 138 1015 l 258 1015 l 258 913 l 219 913 q 171 904 186 913 q 155 876 155 895 q 173 846 155 856 q 226 836 191 836 l 237 836 l 237 777 l 228 777 m 503 785 l 383 785 l 303 1010 l 483 1010 l 503 785 z "},"Ὄ":{"ha":1550,"x_min":41,"x_max":1482,"o":"m 1001 -14 q 755 46 865 -14 q 583 223 646 107 q 519 505 519 339 q 583 787 519 671 q 755 964 646 903 q 1001 1025 865 1025 q 1245 964 1137 1025 q 1418 787 1354 903 q 1482 505 1482 671 q 1418 223 1482 339 q 1245 46 1354 107 q 1001 -14 1137 -14 m 1001 197 q 1127 232 1074 197 q 1208 337 1180 268 q 1237 505 1237 406 q 1208 673 1237 604 q 1127 778 1180 743 q 1001 814 1074 814 q 875 778 928 814 q 793 673 822 743 q 764 505 764 604 q 793 337 764 406 q 875 232 822 268 q 1001 197 928 197 m 72 777 l 63 777 l 63 836 l 73 836 q 127 846 109 836 q 145 876 145 856 q 129 904 145 895 q 81 913 113 913 l 41 913 l 41 1015 l 72 1015 q 210 983 161 1015 q 258 894 258 951 q 210 807 258 837 q 72 777 161 777 m 336 785 l 356 1010 l 536 1010 l 456 785 l 336 785 z "},"Ὅ":{"ha":1575,"x_min":41,"x_max":1507,"o":"m 1026 -14 q 781 46 890 -14 q 608 223 671 107 q 545 505 545 339 q 608 787 545 671 q 781 964 671 903 q 1026 1025 890 1025 q 1271 964 1162 1025 q 1443 787 1379 903 q 1507 505 1507 671 q 1443 223 1507 339 q 1271 46 1379 107 q 1026 -14 1162 -14 m 1026 197 q 1152 232 1099 197 q 1234 337 1205 268 q 1262 505 1262 406 q 1234 673 1262 604 q 1152 778 1205 743 q 1026 814 1099 814 q 900 778 953 814 q 818 673 847 743 q 789 505 789 604 q 818 337 789 406 q 900 232 847 268 q 1026 197 953 197 m 228 777 q 90 807 139 777 q 41 894 41 837 q 90 983 41 951 q 228 1015 138 1015 l 258 1015 l 258 913 l 219 913 q 171 904 186 913 q 155 876 155 895 q 173 846 155 856 q 226 836 191 836 l 237 836 l 237 777 l 228 777 m 354 785 l 374 1010 l 553 1010 l 473 785 l 354 785 z "},"Ὸ":{"ha":1065,"x_min":-247,"x_max":1014,"o":"m 533 -14 q 288 46 397 -14 q 115 223 178 107 q 52 505 52 339 q 115 787 52 671 q 288 964 178 903 q 533 1025 397 1025 q 778 964 669 1025 q 950 787 886 903 q 1014 505 1014 671 q 950 223 1014 339 q 778 46 886 107 q 533 -14 669 -14 m 533 197 q 659 232 606 197 q 741 337 712 268 q 769 505 769 406 q 741 673 769 604 q 659 778 712 743 q 533 814 606 814 q 407 778 460 814 q 325 673 354 743 q 296 505 296 604 q 325 337 296 406 q 407 232 354 268 q 533 197 460 197 m -21 836 l -157 836 l -247 1053 l -43 1053 l -21 836 z "},"ϴ":{"ha":1065,"x_min":52,"x_max":1014,"o":"m 863 578 l 863 432 l 225 432 l 225 578 l 863 578 m 533 -14 q 288 46 397 -14 q 115 223 178 107 q 52 505 52 339 q 115 787 52 671 q 288 964 178 903 q 533 1025 397 1025 q 778 964 669 1025 q 950 787 886 903 q 1014 505 1014 671 q 950 223 1014 339 q 778 46 886 107 q 533 -14 669 -14 m 533 197 q 659 232 606 197 q 741 337 712 268 q 769 505 769 406 q 741 673 769 604 q 659 778 712 743 q 533 814 606 814 q 407 778 460 814 q 325 673 354 743 q 296 505 296 604 q 325 337 296 406 q 407 232 354 268 q 533 197 460 197 z "},"Ό":{"ha":1288,"x_min":41,"x_max":1220,"o":"m 739 -14 q 494 46 603 -14 q 321 223 385 107 q 258 505 258 339 q 321 787 258 671 q 494 964 385 903 q 739 1025 603 1025 q 984 964 875 1025 q 1156 787 1093 903 q 1220 505 1220 671 q 1156 223 1220 339 q 984 46 1093 107 q 739 -14 875 -14 m 739 197 q 865 232 812 197 q 947 337 918 268 q 975 505 975 406 q 947 673 975 604 q 865 778 918 743 q 739 814 812 814 q 613 778 666 814 q 531 673 560 743 q 503 505 503 604 q 531 337 503 406 q 613 232 560 268 q 739 197 666 197 m 41 794 l 64 1010 l 267 1010 l 177 794 l 41 794 z "},"О":{"ha":1065,"x_min":52,"x_max":1014,"o":"m 533 -14 q 288 46 397 -14 q 115 223 178 107 q 52 505 52 339 q 115 787 52 671 q 288 964 178 903 q 533 1025 397 1025 q 778 964 669 1025 q 950 787 886 903 q 1014 505 1014 671 q 950 223 1014 339 q 778 46 886 107 q 533 -14 669 -14 m 533 197 q 659 232 606 197 q 741 337 712 268 q 769 505 769 406 q 741 673 769 604 q 659 778 712 743 q 533 814 606 814 q 407 778 460 814 q 325 673 354 743 q 296 505 296 604 q 325 337 296 406 q 407 232 354 268 q 533 197 460 197 z "},"Ӧ":{"ha":1065,"x_min":52,"x_max":1014,"o":"m 533 -14 q 288 46 397 -14 q 115 223 178 107 q 52 505 52 339 q 115 787 52 671 q 288 964 178 903 q 533 1025 397 1025 q 778 964 669 1025 q 950 787 886 903 q 1014 505 1014 671 q 950 223 1014 339 q 778 46 886 107 q 533 -14 669 -14 m 533 197 q 659 232 606 197 q 741 337 712 268 q 769 505 769 406 q 741 673 769 604 q 659 778 712 743 q 533 814 606 814 q 407 778 460 814 q 325 673 354 743 q 296 505 296 604 q 325 337 296 406 q 407 232 354 268 q 533 197 460 197 m 686 1101 q 607 1133 640 1101 q 574 1211 574 1165 q 607 1288 574 1256 q 686 1319 640 1319 q 767 1288 734 1319 q 800 1211 800 1256 q 767 1133 800 1165 q 686 1101 734 1101 m 379 1101 q 299 1133 332 1101 q 267 1211 267 1165 q 299 1288 267 1256 q 379 1319 332 1319 q 459 1288 427 1319 q 492 1211 492 1256 q 459 1133 492 1165 q 379 1101 427 1101 z "},"Ɵ":{"ha":1065,"x_min":52,"x_max":1014,"o":"m 863 578 l 863 432 l 225 432 l 225 578 l 863 578 m 533 -14 q 288 46 397 -14 q 115 223 178 107 q 52 505 52 339 q 115 787 52 671 q 288 964 178 903 q 533 1025 397 1025 q 778 964 669 1025 q 950 787 886 903 q 1014 505 1014 671 q 950 223 1014 339 q 778 46 886 107 q 533 -14 669 -14 m 533 197 q 659 232 606 197 q 741 337 712 268 q 769 505 769 406 q 741 673 769 604 q 659 778 712 743 q 533 814 606 814 q 407 778 460 814 q 325 673 354 743 q 296 505 296 604 q 325 337 296 406 q 407 232 354 268 q 533 197 460 197 z "},"Ө":{"ha":1065,"x_min":52,"x_max":1014,"o":"m 863 578 l 863 432 l 225 432 l 225 578 l 863 578 m 533 -14 q 288 46 397 -14 q 115 223 178 107 q 52 505 52 339 q 115 787 52 671 q 288 964 178 903 q 533 1025 397 1025 q 778 964 669 1025 q 950 787 886 903 q 1014 505 1014 671 q 950 223 1014 339 q 778 46 886 107 q 533 -14 669 -14 m 533 197 q 659 232 606 197 q 741 337 712 268 q 769 505 769 406 q 741 673 769 604 q 659 778 712 743 q 533 814 606 814 q 407 778 460 814 q 325 673 354 743 q 296 505 296 604 q 325 337 296 406 q 407 232 354 268 q 533 197 460 197 z "},"Ӫ":{"ha":1065,"x_min":52,"x_max":1014,"o":"m 863 578 l 863 432 l 225 432 l 225 578 l 863 578 m 533 -14 q 288 46 397 -14 q 115 223 178 107 q 52 505 52 339 q 115 787 52 671 q 288 964 178 903 q 533 1025 397 1025 q 778 964 669 1025 q 950 787 886 903 q 1014 505 1014 671 q 950 223 1014 339 q 778 46 886 107 q 533 -14 669 -14 m 533 197 q 659 232 606 197 q 741 337 712 268 q 769 505 769 406 q 741 673 769 604 q 659 778 712 743 q 533 814 606 814 q 407 778 460 814 q 325 673 354 743 q 296 505 296 604 q 325 337 296 406 q 407 232 354 268 q 533 197 460 197 m 686 1101 q 607 1133 640 1101 q 574 1211 574 1165 q 607 1288 574 1256 q 686 1319 640 1319 q 767 1288 734 1319 q 800 1211 800 1256 q 767 1133 800 1165 q 686 1101 734 1101 m 379 1101 q 299 1133 332 1101 q 267 1211 267 1165 q 299 1288 267 1256 q 379 1319 332 1319 q 459 1288 427 1319 q 492 1211 492 1256 q 459 1133 492 1165 q 379 1101 427 1101 z "},"Œ":{"ha":1428,"x_min":52,"x_max":1366,"o":"m 545 0 q 284 61 395 0 q 112 236 173 123 q 52 505 52 349 q 113 774 52 661 q 285 949 174 888 q 547 1010 396 1010 l 791 1010 l 791 806 l 559 806 q 414 775 473 806 q 323 678 354 745 q 292 505 292 612 q 323 332 292 399 q 412 235 354 266 q 554 204 471 204 l 788 204 l 788 0 l 545 0 m 653 0 l 653 1010 l 1366 1010 l 1366 812 l 893 812 l 893 606 l 1329 606 l 1329 413 l 893 413 l 893 198 l 1365 198 l 1365 0 l 653 0 z "},"P":{"ha":902,"x_min":76,"x_max":861,"o":"m 76 0 l 76 1010 l 490 1010 q 687 967 604 1010 q 815 845 770 924 q 861 663 861 767 q 815 481 861 559 q 685 361 769 404 q 484 318 600 318 l 223 318 l 223 510 l 446 510 q 538 529 501 510 q 595 583 576 549 q 614 663 614 617 q 595 743 614 709 q 538 796 576 777 q 446 814 501 814 l 316 814 l 316 0 l 76 0 z "},"Ṕ":{"ha":902,"x_min":76,"x_max":861,"o":"m 76 0 l 76 1010 l 490 1010 q 687 967 604 1010 q 815 845 770 924 q 861 663 861 767 q 815 481 861 559 q 685 361 769 404 q 484 318 600 318 l 223 318 l 223 510 l 446 510 q 538 529 501 510 q 595 583 576 549 q 614 663 614 617 q 595 743 614 709 q 538 796 576 777 q 446 814 501 814 l 316 814 l 316 0 l 76 0 m 359 1103 l 461 1320 l 673 1320 l 519 1103 l 359 1103 z "},"Ṗ":{"ha":902,"x_min":76,"x_max":861,"o":"m 76 0 l 76 1010 l 490 1010 q 687 967 604 1010 q 815 845 770 924 q 861 663 861 767 q 815 481 861 559 q 685 361 769 404 q 484 318 600 318 l 223 318 l 223 510 l 446 510 q 538 529 501 510 q 595 583 576 549 q 614 663 614 617 q 595 743 614 709 q 538 796 576 777 q 446 814 501 814 l 316 814 l 316 0 l 76 0 m 444 1095 q 355 1128 391 1095 q 319 1210 319 1162 q 355 1292 319 1259 q 444 1325 391 1325 q 531 1292 495 1325 q 567 1210 567 1259 q 531 1128 567 1162 q 444 1095 495 1095 z "},"Ҏ":{"ha":922,"x_min":82,"x_max":867,"o":"m 500 667 l 762 262 l 673 205 l 411 610 l 500 667 m 82 0 l 82 1010 l 496 1010 q 693 967 610 1010 q 822 845 777 924 q 867 663 867 767 q 821 481 867 559 q 691 361 775 404 q 490 318 606 318 l 229 318 l 229 510 l 452 510 q 545 529 507 510 q 601 583 582 549 q 621 663 621 617 q 601 743 621 709 q 545 796 582 777 q 452 814 507 814 l 322 814 l 322 0 l 82 0 z "},"Ƥ":{"ha":1195,"x_min":28,"x_max":1154,"o":"m 28 706 l 28 765 q 99 949 28 888 q 319 1010 170 1010 l 369 1010 l 369 814 l 330 814 q 266 795 288 814 q 245 741 245 777 l 245 706 l 28 706 m 369 0 l 369 1010 l 783 1010 q 980 967 897 1010 q 1108 845 1063 924 q 1154 663 1154 767 q 1108 481 1154 559 q 978 361 1062 404 q 777 318 893 318 l 516 318 l 516 510 l 739 510 q 831 529 794 510 q 888 583 869 549 q 907 663 907 617 q 888 743 907 709 q 831 796 869 777 q 739 814 794 814 l 609 814 l 609 0 l 369 0 z "},"Ρ":{"ha":902,"x_min":76,"x_max":861,"o":"m 76 0 l 76 1010 l 490 1010 q 687 967 604 1010 q 815 845 770 924 q 861 663 861 767 q 815 481 861 559 q 685 361 769 404 q 484 318 600 318 l 223 318 l 223 510 l 446 510 q 538 529 501 510 q 595 583 576 549 q 614 663 614 617 q 595 743 614 709 q 538 796 576 777 q 446 814 501 814 l 316 814 l 316 0 l 76 0 z "},"Ῥ":{"ha":1199,"x_min":41,"x_max":1158,"o":"m 373 0 l 373 1010 l 787 1010 q 984 967 901 1010 q 1113 845 1067 924 q 1158 663 1158 767 q 1112 481 1158 559 q 982 361 1066 404 q 781 318 897 318 l 520 318 l 520 510 l 743 510 q 836 529 798 510 q 892 583 873 549 q 911 663 911 617 q 892 743 911 709 q 836 796 873 777 q 743 814 798 814 l 613 814 l 613 0 l 373 0 m 228 777 q 90 807 139 777 q 41 894 41 837 q 90 983 41 951 q 228 1015 138 1015 l 258 1015 l 258 913 l 219 913 q 171 904 186 913 q 155 876 155 895 q 173 846 155 856 q 226 836 191 836 l 237 836 l 237 777 l 228 777 z "},"Q":{"ha":1075,"x_min":52,"x_max":1014,"o":"m 455 360 l 650 360 l 735 252 l 841 130 l 1011 -79 l 795 -79 l 678 62 l 608 160 l 455 360 m 533 -14 q 288 46 397 -14 q 115 223 178 107 q 52 505 52 339 q 115 787 52 671 q 288 964 178 903 q 533 1025 397 1025 q 778 964 669 1025 q 950 787 886 903 q 1014 505 1014 671 q 950 223 1014 339 q 778 46 886 107 q 533 -14 669 -14 m 533 197 q 659 232 606 197 q 741 337 712 268 q 769 505 769 406 q 741 673 769 604 q 659 778 712 743 q 533 814 606 814 q 407 778 460 814 q 325 673 354 743 q 296 505 296 604 q 325 337 296 406 q 407 232 354 268 q 533 197 460 197 z "},"Ɋ":{"ha":1072,"x_min":52,"x_max":1144,"o":"m 996 1010 l 996 0 l 760 0 l 760 146 l 755 146 q 646 31 717 77 q 475 -14 575 -14 q 305 25 382 -14 q 171 136 228 65 q 83 301 114 206 q 52 505 52 395 q 83 710 52 615 q 172 875 115 804 q 307 985 229 945 q 475 1024 384 1024 q 646 979 575 1024 q 755 866 716 934 l 760 866 l 760 1010 l 996 1010 m 528 196 q 657 233 605 196 q 735 340 709 271 q 761 505 761 409 q 734 671 761 602 q 656 778 708 741 q 528 815 604 815 q 403 778 454 815 q 324 672 351 741 q 296 505 296 602 q 324 338 296 407 q 403 232 351 269 q 528 196 455 196 m 1023 -294 q 826 -235 891 -294 q 760 -62 760 -177 l 760 0 l 996 0 l 996 -59 q 1013 -104 996 -90 q 1072 -117 1030 -117 q 1109 -116 1090 -117 q 1144 -113 1127 -115 l 1144 -283 q 1089 -291 1120 -288 q 1023 -294 1058 -294 z "},"R":{"ha":918,"x_min":76,"x_max":895,"o":"m 76 0 l 76 1010 l 490 1010 q 688 969 605 1010 q 816 853 771 928 q 861 673 861 777 q 815 496 861 570 q 684 384 769 422 q 481 345 599 345 l 220 345 l 220 535 l 447 535 q 539 550 502 535 q 596 596 576 566 q 615 673 615 627 q 596 751 615 720 q 539 799 576 783 q 447 815 502 815 l 316 815 l 316 0 l 76 0 m 633 0 l 391 460 l 647 460 l 895 0 l 633 0 z "},"Ŕ":{"ha":918,"x_min":76,"x_max":895,"o":"m 76 0 l 76 1010 l 490 1010 q 688 969 605 1010 q 816 853 771 928 q 861 673 861 777 q 815 496 861 570 q 684 384 769 422 q 481 345 599 345 l 220 345 l 220 535 l 447 535 q 539 550 502 535 q 596 596 576 566 q 615 673 615 627 q 596 751 615 720 q 539 799 576 783 q 447 815 502 815 l 316 815 l 316 0 l 76 0 m 633 0 l 391 460 l 647 460 l 895 0 l 633 0 m 370 1103 l 471 1320 l 684 1320 l 530 1103 l 370 1103 z "},"Ŗ":{"ha":918,"x_min":76,"x_max":895,"o":"m 76 0 l 76 1010 l 490 1010 q 688 969 605 1010 q 816 853 771 928 q 861 673 861 777 q 815 496 861 570 q 684 384 769 422 q 481 345 599 345 l 220 345 l 220 535 l 447 535 q 539 550 502 535 q 596 596 576 566 q 615 673 615 627 q 596 751 615 720 q 539 799 576 783 q 447 815 502 815 l 316 815 l 316 0 l 76 0 m 633 0 l 391 460 l 647 460 l 895 0 l 633 0 m 299 -321 l 361 -80 l 577 -80 l 462 -321 l 299 -321 z "},"Ř":{"ha":918,"x_min":76,"x_max":895,"o":"m 76 0 l 76 1010 l 490 1010 q 688 969 605 1010 q 816 853 771 928 q 861 673 861 777 q 815 496 861 570 q 684 384 769 422 q 481 345 599 345 l 220 345 l 220 535 l 447 535 q 539 550 502 535 q 596 596 576 566 q 615 673 615 627 q 596 751 615 720 q 539 799 576 783 q 447 815 502 815 l 316 815 l 316 0 l 76 0 m 633 0 l 391 460 l 647 460 l 895 0 l 633 0 m 359 1320 l 453 1206 l 548 1320 l 742 1320 l 742 1316 l 540 1107 l 366 1107 l 165 1316 l 165 1320 l 359 1320 z "},"Ȑ":{"ha":918,"x_min":76,"x_max":895,"o":"m 76 0 l 76 1010 l 490 1010 q 688 969 605 1010 q 816 853 771 928 q 861 673 861 777 q 815 496 861 570 q 684 384 769 422 q 481 345 599 345 l 220 345 l 220 535 l 447 535 q 539 550 502 535 q 596 596 576 566 q 615 673 615 627 q 596 751 615 720 q 539 799 576 783 q 447 815 502 815 l 316 815 l 316 0 l 76 0 m 633 0 l 391 460 l 647 460 l 895 0 l 633 0 m 500 1103 l 385 1320 l 585 1320 l 661 1103 l 500 1103 m 255 1103 l 81 1320 l 298 1320 l 419 1103 l 255 1103 z "},"Ȓ":{"ha":918,"x_min":76,"x_max":895,"o":"m 76 0 l 76 1010 l 490 1010 q 688 969 605 1010 q 816 853 771 928 q 861 673 861 777 q 815 496 861 570 q 684 384 769 422 q 481 345 599 345 l 220 345 l 220 535 l 447 535 q 539 550 502 535 q 596 596 576 566 q 615 673 615 627 q 596 751 615 720 q 539 799 576 783 q 447 815 502 815 l 316 815 l 316 0 l 76 0 m 633 0 l 391 460 l 647 460 l 895 0 l 633 0 m 454 1327 q 582 1298 526 1327 q 672 1219 639 1268 q 705 1107 705 1169 l 572 1107 q 538 1177 572 1149 q 454 1205 504 1205 q 369 1177 404 1205 q 334 1107 334 1149 l 203 1107 q 236 1219 203 1169 q 326 1298 269 1268 q 454 1327 382 1327 z "},"Ṙ":{"ha":918,"x_min":76,"x_max":895,"o":"m 76 0 l 76 1010 l 490 1010 q 688 969 605 1010 q 816 853 771 928 q 861 673 861 777 q 815 496 861 570 q 684 384 769 422 q 481 345 599 345 l 220 345 l 220 535 l 447 535 q 539 550 502 535 q 596 596 576 566 q 615 673 615 627 q 596 751 615 720 q 539 799 576 783 q 447 815 502 815 l 316 815 l 316 0 l 76 0 m 633 0 l 391 460 l 647 460 l 895 0 l 633 0 m 454 1095 q 366 1128 401 1095 q 330 1210 330 1162 q 366 1292 330 1259 q 454 1325 401 1325 q 541 1292 505 1325 q 577 1210 577 1259 q 541 1128 577 1162 q 454 1095 505 1095 z "},"Ṛ":{"ha":918,"x_min":76,"x_max":895,"o":"m 76 0 l 76 1010 l 490 1010 q 688 969 605 1010 q 816 853 771 928 q 861 673 861 777 q 815 496 861 570 q 684 384 769 422 q 481 345 599 345 l 220 345 l 220 535 l 447 535 q 539 550 502 535 q 596 596 576 566 q 615 673 615 627 q 596 751 615 720 q 539 799 576 783 q 447 815 502 815 l 316 815 l 316 0 l 76 0 m 633 0 l 391 460 l 647 460 l 895 0 l 633 0 m 469 -319 q 380 -286 416 -319 q 345 -205 345 -253 q 380 -123 345 -156 q 469 -90 416 -90 q 556 -123 520 -90 q 592 -205 592 -156 q 556 -286 592 -253 q 469 -319 520 -319 z "},"Ṝ":{"ha":918,"x_min":76,"x_max":895,"o":"m 76 0 l 76 1010 l 490 1010 q 688 969 605 1010 q 816 853 771 928 q 861 673 861 777 q 815 496 861 570 q 684 384 769 422 q 481 345 599 345 l 220 345 l 220 535 l 447 535 q 539 550 502 535 q 596 596 576 566 q 615 673 615 627 q 596 751 615 720 q 539 799 576 783 q 447 815 502 815 l 316 815 l 316 0 l 76 0 m 633 0 l 391 460 l 647 460 l 895 0 l 633 0 m 469 -319 q 380 -286 416 -319 q 345 -205 345 -253 q 380 -123 345 -156 q 469 -90 416 -90 q 556 -123 520 -90 q 592 -205 592 -156 q 556 -286 592 -253 q 469 -319 520 -319 m 654 1280 l 654 1138 l 254 1138 l 254 1280 l 654 1280 z "},"Ṟ":{"ha":918,"x_min":76,"x_max":895,"o":"m 76 0 l 76 1010 l 490 1010 q 688 969 605 1010 q 816 853 771 928 q 861 673 861 777 q 815 496 861 570 q 684 384 769 422 q 481 345 599 345 l 220 345 l 220 535 l 447 535 q 539 550 502 535 q 596 596 576 566 q 615 673 615 627 q 596 751 615 720 q 539 799 576 783 q 447 815 502 815 l 316 815 l 316 0 l 76 0 m 633 0 l 391 460 l 647 460 l 895 0 l 633 0 m 668 -126 l 668 -269 l 269 -269 l 269 -126 l 668 -126 z "},"℟":{"ha":922,"x_min":80,"x_max":899,"o":"m 640 1154 l 360 -251 l 280 -241 l 551 1101 l 333 1149 l 353 1222 l 640 1154 m 80 0 l 80 1010 l 494 1010 q 692 969 609 1010 q 820 853 775 928 q 865 673 865 777 q 819 496 865 570 q 688 384 773 422 q 486 345 603 345 l 224 345 l 224 535 l 451 535 q 543 550 506 535 q 600 596 581 566 q 619 673 619 627 q 600 751 619 720 q 543 799 581 783 q 451 815 506 815 l 320 815 l 320 0 l 80 0 m 637 0 l 395 460 l 651 460 l 899 0 l 637 0 z "},"℞":{"ha":1090,"x_min":76,"x_max":1025,"o":"m 76 1010 l 480 1010 q 687 973 604 1010 q 814 865 771 935 q 857 694 857 794 q 827 553 857 613 q 749 454 798 494 q 637 391 699 414 l 589 370 l 225 370 l 224 563 l 480 563 q 554 576 522 563 q 603 617 585 589 q 621 688 621 646 q 603 759 621 731 q 554 802 585 787 q 480 816 522 816 l 315 816 l 315 0 l 76 0 l 76 1010 m 829 0 l 497 460 l 690 460 l 1025 0 l 829 0 m 663 0 l 511 0 l 846 460 l 994 460 l 663 0 z "},"Ɍ":{"ha":943,"x_min":7,"x_max":920,"o":"m 243 366 l 7 366 l 7 540 l 243 540 l 243 366 m 102 0 l 102 1010 l 516 1010 q 714 969 631 1010 q 842 853 797 928 q 887 673 887 777 q 841 496 887 570 q 710 384 795 422 q 507 345 625 345 l 245 345 l 245 535 l 473 535 q 565 550 528 535 q 622 596 602 566 q 641 673 641 627 q 622 751 641 720 q 565 799 602 783 q 472 815 527 815 l 342 815 l 342 0 l 102 0 m 659 0 l 417 460 l 673 460 l 920 0 l 659 0 z "},"S":{"ha":920,"x_min":48,"x_max":871,"o":"m 469 -14 q 247 24 340 -14 q 101 141 153 63 q 48 334 50 218 l 278 334 q 305 252 281 285 q 370 201 329 218 q 467 184 412 184 q 553 198 517 184 q 609 236 589 212 q 629 292 629 260 q 611 342 629 321 q 557 378 593 363 q 463 407 520 394 l 357 431 q 148 529 222 460 q 73 711 73 598 q 124 876 73 806 q 263 985 174 946 q 467 1025 352 1025 q 672 985 585 1025 q 806 874 758 945 q 856 706 854 802 l 627 706 q 581 795 622 763 q 467 827 540 827 q 387 814 420 827 q 337 778 354 801 q 320 726 320 755 q 338 675 320 696 q 390 640 356 654 q 472 615 425 625 l 559 595 q 693 553 635 579 q 791 490 751 526 q 851 405 831 453 q 871 296 871 356 q 823 130 871 199 q 685 23 775 60 q 469 -14 595 -14 z "},"Ś":{"ha":920,"x_min":48,"x_max":871,"o":"m 469 -14 q 247 24 340 -14 q 101 141 153 63 q 48 334 50 218 l 278 334 q 305 252 281 285 q 370 201 329 218 q 467 184 412 184 q 553 198 517 184 q 609 236 589 212 q 629 292 629 260 q 611 342 629 321 q 557 378 593 363 q 463 407 520 394 l 357 431 q 148 529 222 460 q 73 711 73 598 q 124 876 73 806 q 263 985 174 946 q 467 1025 352 1025 q 672 985 585 1025 q 806 874 758 945 q 856 706 854 802 l 627 706 q 581 795 622 763 q 467 827 540 827 q 387 814 420 827 q 337 778 354 801 q 320 726 320 755 q 338 675 320 696 q 390 640 356 654 q 472 615 425 625 l 559 595 q 693 553 635 579 q 791 490 751 526 q 851 405 831 453 q 871 296 871 356 q 823 130 871 199 q 685 23 775 60 q 469 -14 595 -14 m 376 1103 l 477 1320 l 690 1320 l 536 1103 l 376 1103 z "}}}
